STARTFONT 2.1
COMMENT
COMMENT Converted from OpenType font "NimbusSans-Regular.otf" by "otf2bdf 3.0".
COMMENT
FONT -FreeType-Nimbus Sans-Medium-R-Normal--77-560-100-100-P-404-ISO10646-1
SIZE 56 100 100
FONTBOUNDINGBOX 96 107 -16 -23
STARTPROPERTIES 19
FOUNDRY "FreeType"
FAMILY_NAME "Nimbus Sans"
WEIGHT_NAME "Medium"
SLANT "R"
SETWIDTH_NAME "Normal"
ADD_STYLE_NAME ""
PIXEL_SIZE 77
POINT_SIZE 560
RESOLUTION_X 100
RESOLUTION_Y 100
SPACING "P"
AVERAGE_WIDTH 404
CHARSET_REGISTRY "ISO10646"
CHARSET_ENCODING "1"
FONT_ASCENT 56
FONT_DESCENT 21
COPYRIGHT "(URW)++,Copyright 2014 by (URW)++ Design & Development"
_OTF_FONTFILE "NimbusSans-Regular.otf"
_OTF_PSNAME "NimbusSans-Regular"
ENDPROPERTIES
CHARS 854
STARTCHAR 0020
ENCODING 32
SWIDTH 282 0
DWIDTH 22 0
BBX 0 0 0 0
BITMAP
ENDCHAR
STARTCHAR 0021
ENCODING 33
SWIDTH 282 0
DWIDTH 22 0
BBX 6 57 10 0
BITMAP
FC
FC
FC
FC
FC
FC
FC
FC
FC
FC
FC
FC
FC
FC
FC
FC
FC
FC
FC
FC
FC
FC
FC
FC
FC
FC
FC
FC
FC
FC
FC
FC
FC
F8
F8
78
78
78
78
78
78
78
78
78
00
00
00
00
00
FC
FC
FC
FC
FC
FC
FC
FC
ENDCHAR
STARTCHAR 0022
ENCODING 34
SWIDTH 360 0
DWIDTH 28 0
BBX 20 19 4 36
BITMAP
FE0FF0
FE0FF0
FE0FF0
FE0FF0
FE0FF0
FE0FF0
FE0FF0
FE0FF0
FE0FF0
FE07F0
FE07E0
7E07E0
7C07E0
7C07E0
7C03C0
7C03C0
3C03C0
3803C0
3803C0
ENDCHAR
STARTCHAR 0023
ENCODING 35
SWIDTH 552 0
DWIDTH 43 0
BBX 41 56 1 -2
BITMAP
0001F801F800
0001F801F800
0001F803F000
0001F803F000
0003F003F000
0003F003F000
0003F003F000
0003F007E000
0003F007E000
0003E007E000
0007E007E000
0007E007E000
0007E007E000
0007E00FC000
0007E00FC000
000FC00FC000
1FFFFFFFFF80
1FFFFFFFFF80
1FFFFFFFFF80
1FFFFFFFFF80
1FFFFFFFFF80
001F801F8000
001F801F8000
001F801F0000
001F803F0000
001F003F0000
003F003F0000
003F003F0000
003F003F0000
003F007E0000
003F007E0000
007E007E0000
007E007E0000
007E007E0000
FFFFFFFFFE00
FFFFFFFFFE00
FFFFFFFFFE00
FFFFFFFFFE00
FFFFFFFFFE00
00FC00FC0000
00FC01F80000
00FC01F80000
01F801F80000
01F801F80000
01F801F80000
01F803F00000
01F803F00000
03F003F00000
03F003F00000
03F003F00000
03F003F00000
03F007E00000
03F007E00000
07E007E00000
07E007E00000
07E007E00000
ENDCHAR
STARTCHAR 0024
ENCODING 36
SWIDTH 552 0
DWIDTH 43 0
BBX 38 70 3 -10
BITMAP
0000F80000
0000F80000
0000F80000
0000F80000
0001FC0000
001FFFE000
007FFFF800
01FFFFFE00
03FFFFFF00
07FFFFFF80
0FFCF8FF80
1FE0F83FC0
1FC0F81FE0
3F80F80FE0
3F80F807E0
3F00F807F0
7F00F803F0
7F00F803F0
7E00F803F0
7E00F803F0
7F00F80000
7F00F80000
7F00F80000
7F80F80000
3F80F80000
3FC0F80000
1FF0F80000
1FFCF80000
0FFFF80000
07FFFC0000
03FFFFC000
01FFFFF000
007FFFFE00
001FFFFF00
0003FFFFC0
0000FFFFE0
0000F9FFE0
0000F87FF0
0000F81FF8
0000F807F8
0000F803F8
0000F801FC
0000F801FC
0000F801FC
FC00F801FC
FC00F801FC
FE00F801FC
FE00F801FC
FE00F801FC
FE00F801F8
7E00F803F8
7F00F803F8
7F80F807F0
3FC0F80FF0
3FE0F81FE0
1FF8F87FE0
0FFFFFFFC0
07FFFFFF80
03FFFFFF00
00FFFFFC00
003FFFF000
0003FE0000
0000F80000
0000F80000
0000F80000
0000F80000
0000F80000
0000F80000
0000F80000
0000F80000
ENDCHAR
STARTCHAR 0025
ENCODING 37
SWIDTH 887 0
DWIDTH 69 0
BBX 65 57 2 -2
BITMAP
000000000007C00000
000000000007C00000
003F8000000F800000
00FFF000000F800000
03FFF800001F000000
07FFFE00003F000000
0FFFFF00003E000000
1FFBFF00007E000000
3FC07F80007C000000
3F001F8000F8000000
7E000FC000F8000000
7E000FC001F0000000
7C0007C001F0000000
FC0007E003E0000000
FC0007E003E0000000
FC0007E007C0000000
FC0007E007C0000000
FC0007E00F80000000
7C0007C01F80000000
7E000FC01F00000000
7E000FC03E00000000
3F001F803E00000000
3FC07F807C00000000
1FFBFF007C00000000
0FFFFE00F800000000
07FFFC00F800000000
03FFF801F000000000
01FFF001F000000000
003F8003E000000000
00000003E000000000
00000007C000000000
0000000FC001FF8000
0000000F8007FFE000
0000001F001FFFF000
0000001F003FFFF800
0000003E007FFFFC00
0000003E007F83FE00
0000007C00FE00FE00
0000007C01FC007F00
000000F801F8003F00
000000F801F0001F80
000001F001F0001F80
000003F003F0001F80
000003E003F0001F80
000007E003F0001F80
000007C003F0001F80
00000F8001F8001F00
00000F8001F8003F00
00001F0001FC007F00
00001F0000FF00FE00
00003E00007FEFFC00
00003E00007FFFFC00
00007C00003FFFF800
00007C00000FFFE000
0000F8000007FFC000
0001F8000000FE0000
0001F0000000000000
ENDCHAR
STARTCHAR 0026
ENCODING 38
SWIDTH 668 0
DWIDTH 52 0
BBX 45 57 4 -2
BITMAP
0000FF000000
0007FFC00000
000FFFF00000
003FFFF80000
007FFFFC0000
007FEFFE0000
00FF01FE0000
01FC00FF0000
01FC007F0000
01F8003F0000
03F8003F0000
03F8003F0000
03F8003F0000
03F8003F0000
01F8003F0000
01FC007F0000
01FC007F0000
00FE00FE0000
00FF01FE0000
007F07FC0000
007F8FF80000
003FFFF00000
001FFFE00000
000FFF800000
000FFF000000
000FFC000000
003FFC000000
007FFE000000
01FFFF000000
03FEFF803F80
07FC7F803F80
0FF03FC03F00
1FE01FE03F00
3FC00FF03F00
3F800FF83F00
7F0007FC7F00
7F0003FC7E00
FE0001FEFE00
FE0000FFFE00
FE0000FFFC00
FE00007FFC00
FE00003FF800
FE00001FF800
FE00000FF000
FE00000FF800
FF00000FFC00
7F00001FFE00
7F80007FFE00
7FC000FFFF00
3FF003FF7F80
1FFC0FFE7FC0
1FFFFFFC3FE0
0FFFFFF81FF0
07FFFFE00FF0
01FFFFC007F8
00FFFF000000
001FF8000000
ENDCHAR
STARTCHAR 0027
ENCODING 39
SWIDTH 192 0
DWIDTH 15 0
BBX 7 19 4 36
BITMAP
FE
FE
FE
FE
FE
FE
FE
FE
FE
FE
FE
FC
7C
7C
7C
7C
78
38
38
ENDCHAR
STARTCHAR 0028
ENCODING 40
SWIDTH 334 0
DWIDTH 26 0
BBX 16 73 6 -16
BITMAP
000F
001F
001E
003E
007C
007C
00F8
00F8
01F0
01F0
03E0
03E0
07E0
07C0
0FC0
0F80
0F80
1F80
1F80
1F00
3F00
3F00
3F00
7E00
7E00
7E00
7E00
7E00
FE00
FC00
FC00
FC00
FC00
FC00
FC00
FC00
FC00
FC00
FC00
FC00
FC00
FC00
FC00
FC00
FE00
FE00
7E00
7E00
7E00
7E00
3F00
3F00
3F00
3F00
1F80
1F80
1F80
0F80
0FC0
07C0
07E0
07E0
03E0
03F0
01F0
01F8
00F8
007C
007C
003E
003E
001F
000F
ENDCHAR
STARTCHAR 0029
ENCODING 41
SWIDTH 334 0
DWIDTH 26 0
BBX 17 73 3 -16
BITMAP
F80000
780000
7C0000
3E0000
1E0000
1F0000
0F8000
0F8000
0FC000
07C000
07E000
03E000
03F000
03F000
01F000
01F800
01F800
00F800
00FC00
00FC00
007C00
007E00
007E00
007E00
007F00
003F00
003F00
003F00
003F00
003F00
003F80
003F80
003F80
001F80
001F80
001F80
001F80
001F80
001F80
001F80
001F80
003F80
003F80
003F00
003F00
003F00
003F00
003F00
003F00
007E00
007E00
007E00
007E00
00FC00
00FC00
00FC00
00F800
01F800
01F000
01F000
03F000
03E000
07E000
07C000
07C000
0F8000
0F8000
1F0000
1E0000
3E0000
3C0000
780000
F80000
ENDCHAR
STARTCHAR 002A
ENCODING 42
SWIDTH 385 0
DWIDTH 30 0
BBX 23 22 3 35
BITMAP
007C00
007C00
003C00
003C00
003C00
003C00
703C0C
7C3C7E
7FBDFE
FFFFFE
7FFFFE
0FFFF0
00FF00
00FF00
01FF80
03FF80
03E7C0
07C7E0
0FC3F0
1F81F8
0F01E0
0300C0
ENDCHAR
STARTCHAR 002B
ENCODING 43
SWIDTH 578 0
DWIDTH 45 0
BBX 38 38 4 -1
BITMAP
0000F80000
0000F80000
0000F80000
0000F80000
0000F80000
0000F80000
0000F80000
0000F80000
0000F80000
0000F80000
0000F80000
0000F80000
0000F80000
0000F80000
0000F80000
0000F80000
0000F80000
FFFFFFFFFC
FFFFFFFFFC
FFFFFFFFFC
FFFFFFFFFC
FFFFFFFFFC
0000F80000
0000F80000
0000F80000
0000F80000
0000F80000
0000F80000
0000F80000
0000F80000
0000F80000
0000F80000
0000F80000
0000F80000
0000F80000
0000F80000
0000F80000
0000F80000
ENDCHAR
STARTCHAR 002C
ENCODING 44
SWIDTH 282 0
DWIDTH 22 0
BBX 8 19 7 -12
BITMAP
FF
FF
FF
FF
FF
FF
FF
FF
0F
0F
0F
0F
0F
0E
0E
1E
FC
F8
F0
ENDCHAR
STARTCHAR 002D
ENCODING 45
SWIDTH 334 0
DWIDTH 26 0
BBX 18 6 4 18
BITMAP
FFFFC0
FFFFC0
FFFFC0
FFFFC0
FFFFC0
FFFFC0
ENDCHAR
STARTCHAR 002E
ENCODING 46
SWIDTH 282 0
DWIDTH 22 0
BBX 8 8 7 0
BITMAP
FF
FF
FF
FF
FF
FF
FF
FF
ENDCHAR
STARTCHAR 002F
ENCODING 47
SWIDTH 282 0
DWIDTH 22 0
BBX 22 59 0 -2
BITMAP
00003C
00007C
000078
000078
0000F8
0000F0
0000F0
0001F0
0001E0
0001E0
0001E0
0003C0
0003C0
0003C0
0007C0
000780
000780
000F80
000F00
000F00
001F00
001E00
001E00
003E00
003C00
003C00
003C00
007800
007800
007800
00F800
00F000
00F000
01F000
01E000
01E000
03E000
03C000
03C000
07C000
078000
078000
078000
0F0000
0F0000
0F0000
1F0000
1E0000
1E0000
3E0000
3C0000
3C0000
7C0000
780000
780000
F80000
F00000
F00000
F00000
ENDCHAR
STARTCHAR 0030
ENCODING 48
SWIDTH 552 0
DWIDTH 43 0
BBX 36 58 3 -2
BITMAP
0003FE0000
000FFF8000
003FFFE000
00FFFFF800
01FFFFFC00
03FFFFFE00
03FF07FE00
07FC01FF00
0FF000FF80
0FE0007F80
1FE0003FC0
1FC0001FC0
1FC0001FC0
3F80001FE0
3F80000FE0
3F80000FE0
3F80000FE0
7F00000FF0
7F000007F0
7F000007F0
7F000007F0
7F000007F0
7F000007F0
7F000007F0
7F000007F0
FE000007F0
FE000007F0
FE000007F0
FE000007F0
FE000007F0
FE000007F0
FE000007F0
FE000007F0
7F000007F0
7F000007F0
7F000007F0
7F000007F0
7F000007F0
7F000007F0
7F000007F0
7F000007F0
7F80000FE0
3F80000FE0
3F80000FE0
3F80000FE0
1FC0001FC0
1FC0001FC0
1FE0003F80
0FE0003F80
0FF0007F00
07F800FF00
03FE03FE00
03FFFFFC00
01FFFFFC00
00FFFFF000
003FFFE000
001FFF8000
0003FE0000
ENDCHAR
STARTCHAR 0031
ENCODING 49
SWIDTH 552 0
DWIDTH 43 0
BBX 19 56 8 0
BITMAP
0003E0
0003E0
0003E0
0007E0
0007E0
000FE0
000FE0
001FE0
003FE0
00FFE0
1FFFE0
FFFFE0
FFFFE0
FFFFE0
FFFFE0
FFFFE0
000FE0
000FE0
000FE0
000FE0
000FE0
000FE0
000FE0
000FE0
000FE0
000FE0
000FE0
000FE0
000FE0
000FE0
000FE0
000FE0
000FE0
000FE0
000FE0
000FE0
000FE0
000FE0
000FE0
000FE0
000FE0
000FE0
000FE0
000FE0
000FE0
000FE0
000FE0
000FE0
000FE0
000FE0
000FE0
000FE0
000FE0
000FE0
000FE0
000FE0
ENDCHAR
STARTCHAR 0032
ENCODING 50
SWIDTH 552 0
DWIDTH 43 0
BBX 37 56 3 0
BITMAP
0003FF0000
001FFFE000
007FFFF800
01FFFFFE00
03FFFFFF00
07FFFFFF80
0FFE03FFC0
0FF8007FC0
1FF0003FE0
1FE0001FE0
3FC0000FF0
3F800007F0
3F800007F0
7F800007F8
7F000003F8
7F000003F8
7F000003F8
7F000003F8
7F000003F8
00000007F0
00000007F0
00000007F0
0000000FF0
0000001FE0
0000001FE0
0000007FC0
000000FF80
000001FF00
000007FF00
00001FFC00
00007FF800
0000FFF000
0003FFC000
000FFF8000
001FFE0000
003FF80000
00FFE00000
01FFC00000
03FF000000
07FC000000
0FF8000000
0FF0000000
1FE0000000
3FC0000000
3F80000000
3F80000000
7F00000000
7F00000000
7F00000000
FFFFFFFFF0
FFFFFFFFF0
FFFFFFFFF0
FFFFFFFFF0
FFFFFFFFF0
FFFFFFFFF0
FFFFFFFFF0
ENDCHAR
STARTCHAR 0033
ENCODING 51
SWIDTH 552 0
DWIDTH 43 0
BBX 36 58 3 -2
BITMAP
0007FE0000
003FFFC000
00FFFFF000
03FFFFFC00
07FFFFFE00
07FFFFFF00
0FFC07FF00
1FF000FF80
1FE0007F80
3FC0003FC0
3F80001FC0
3F80001FC0
7F00001FE0
7F00000FE0
7F00000FE0
7F00000FE0
7F00000FE0
7F00000FE0
0000001FC0
0000001FC0
0000001FC0
0000003F80
0000007F80
000001FF00
0000FFFE00
0003FFFC00
0003FFF000
0003FFF000
0003FFFC00
0003FFFF00
000007FF80
000000FFC0
0000003FE0
0000001FE0
0000000FE0
0000000FF0
00000007F0
00000007F0
00000007F0
00000007F0
FC000007F0
FE000007F0
FE000007F0
FE000007F0
FE000007F0
FE000007F0
7F00000FE0
7F00000FE0
7F80001FE0
3FC0003FC0
3FF000FFC0
1FFC03FF80
0FFFFFFF00
07FFFFFE00
03FFFFFC00
01FFFFF000
007FFFC000
000FFE0000
ENDCHAR
STARTCHAR 0034
ENCODING 52
SWIDTH 552 0
DWIDTH 43 0
BBX 38 56 2 0
BITMAP
0000007C00
000000FC00
000001FC00
000003FC00
000003FC00
000007FC00
00000FFC00
00000FFC00
00001FFC00
00003FFC00
00007FFC00
00007FFC00
0000FFFC00
0001FDFC00
0001F9FC00
0003F1FC00
0007F1FC00
000FE1FC00
000FC1FC00
001FC1FC00
003F81FC00
003F01FC00
007F01FC00
00FE01FC00
00FC01FC00
01F801FC00
03F801FC00
07F001FC00
07E001FC00
0FE001FC00
1FC001FC00
1F8001FC00
3F8001FC00
7F0001FC00
FE0001FC00
FE0001FC00
FFFFFFFFFC
FFFFFFFFFC
FFFFFFFFFC
FFFFFFFFFC
FFFFFFFFFC
FFFFFFFFFC
000001FC00
000001FC00
000001FC00
000001FC00
000001FC00
000001FC00
000001FC00
000001FC00
000001FC00
000001FC00
000001FC00
000001FC00
000001FC00
000001FC00
ENDCHAR
STARTCHAR 0035
ENCODING 53
SWIDTH 552 0
DWIDTH 43 0
BBX 37 57 3 -2
BITMAP
07FFFFFFC0
07FFFFFFC0
07FFFFFFC0
07FFFFFFC0
07FFFFFFC0
07FFFFFFC0
07FFFFFFC0
07E0000000
0FE0000000
0FE0000000
0FE0000000
0FC0000000
0FC0000000
0FC0000000
0FC0000000
1FC0000000
1FC0000000
1FC0000000
1F80000000
1F81FF0000
1F8FFFE000
1FBFFFF800
3FFFFFFC00
3FFFFFFE00
3FFFFFFF00
3FFC03FF80
3FF000FFC0
3FC0003FE0
3F80001FE0
3F00001FF0
0000000FF0
00000007F0
00000007F0
00000007F8
00000003F8
00000003F8
00000003F8
00000003F8
00000003F8
00000003F8
00000003F8
00000003F8
FE000007F0
FE000007F0
FF000007F0
7F00000FE0
7F80000FE0
7F80001FE0
3FC0003FC0
3FF000FF80
1FFE03FF00
0FFFFFFF00
07FFFFFE00
03FFFFF800
00FFFFF000
003FFFC000
0007FC0000
ENDCHAR
STARTCHAR 0036
ENCODING 54
SWIDTH 552 0
DWIDTH 43 0
BBX 37 58 3 -2
BITMAP
0000FF0000
0007FFE000
001FFFF800
003FFFFC00
00FFFFFE00
01FFFFFF00
01FF83FF80
03FC007F80
07F8003FC0
07F0001FC0
0FE0001FE0
0FE0000FE0
1FC0000FE0
1FC00007F0
3F800007F0
3F80000000
3F80000000
3F00000000
7F00000000
7F00000000
7F00000000
7F00000000
7F00FF8000
7F07FFF000
7F1FFFF800
7E3FFFFE00
FE7FFFFF00
FEFFFFFF80
FFFF01FFC0
FFF8007FC0
FFF0003FE0
FFE0001FE0
FFC0000FF0
FF800007F0
FF800007F0
7F000007F8
7F000003F8
7F000003F8
7F000003F8
7F000003F8
7F000003F8
7F000003F8
7F000003F8
3F000003F8
3F800007F0
3F800007F0
1FC0000FF0
1FC0000FE0
0FE0001FE0
0FF0003FC0
07FC00FFC0
07FF03FF80
03FFFFFF00
01FFFFFE00
00FFFFFC00
007FFFF000
001FFFC000
0003FE0000
ENDCHAR
STARTCHAR 0037
ENCODING 55
SWIDTH 552 0
DWIDTH 43 0
BBX 36 55 4 0
BITMAP
FFFFFFFFF0
FFFFFFFFF0
FFFFFFFFF0
FFFFFFFFF0
FFFFFFFFF0
FFFFFFFFF0
FFFFFFFFF0
00000007E0
0000000FC0
0000000FC0
0000001F80
0000003F00
0000003F00
0000007E00
000000FC00
000000FC00
000001F800
000003F000
000003F000
000007E000
00000FE000
00000FC000
00001FC000
00001F8000
00003F0000
00003F0000
00007E0000
00007E0000
0000FC0000
0000FC0000
0001FC0000
0001F80000
0003F80000
0003F00000
0007F00000
0007E00000
000FE00000
000FE00000
000FC00000
001FC00000
001FC00000
001F800000
003F800000
003F800000
003F000000
007F000000
007F000000
007F000000
00FE000000
00FE000000
00FE000000
00FE000000
01FE000000
01FC000000
01FC000000
ENDCHAR
STARTCHAR 0038
ENCODING 56
SWIDTH 552 0
DWIDTH 43 0
BBX 37 58 3 -2
BITMAP
0003FE0000
001FFFC000
007FFFF000
01FFFFFC00
03FFFFFE00
07FFFFFF00
0FFE07FF00
0FF800FF80
1FE0007FC0
1FE0003FC0
3FC0001FC0
3F80001FE0
3F80000FE0
3F80000FE0
3F80000FE0
3F80000FE0
3F80000FE0
3F80000FE0
3F80001FE0
3FC0001FC0
1FE0003FC0
1FE0007F80
0FF800FF80
07FE03FF00
03FFFFFE00
00FFFFF800
007FFFF000
00FFFFF800
03FFFFFE00
07FFFFFF00
0FFC01FF80
1FF0007FC0
3FC0003FE0
3F80001FE0
7F80000FF0
7F000007F0
FF000007F0
FE000007F8
FE000003F8
FE000003F8
FE000003F8
FE000003F8
FE000003F8
FE000003F8
FE000007F8
7F000007F0
7F000007F0
7F80000FF0
3FC0001FE0
3FE0003FE0
1FF0007FC0
0FFE03FF80
0FFFFFFF00
07FFFFFE00
01FFFFFC00
00FFFFF000
003FFFC000
0003FE0000
ENDCHAR
STARTCHAR 0039
ENCODING 57
SWIDTH 552 0
DWIDTH 43 0
BBX 37 58 3 -2
BITMAP
0003FE0000
001FFFC000
007FFFE000
01FFFFF800
03FFFFFC00
07FFFFFE00
0FFE07FF00
1FF001FF00
1FE0007F80
3FC0003F80
3F80001FC0
7F80001FC0
7F00000FE0
7F00000FE0
FE000007E0
FE000007F0
FE000007F0
FE000007F0
FE000007F0
FE000007F0
FE000007F0
FE000007F0
FF000007F8
7F00000FF8
7F00000FF8
7F80001FF8
3FC0003FF8
3FE0007FF8
1FF000FFF8
1FFC07FFF8
0FFFFFFFF8
07FFFFF7F0
03FFFFE7F0
00FFFFC7F0
007FFF07F0
000FF807F0
00000007F0
00000007F0
00000007F0
00000007F0
0000000FE0
0000000FE0
0000000FE0
7F00000FE0
7F00001FC0
3F80001FC0
3F80003F80
3FC0003F80
1FC0007F00
1FE000FF00
1FF003FE00
0FFE0FFC00
07FFFFFC00
03FFFFF800
01FFFFE000
00FFFFC000
003FFF0000
0007F80000
ENDCHAR
STARTCHAR 003A
ENCODING 58
SWIDTH 282 0
DWIDTH 22 0
BBX 8 41 9 0
BITMAP
FF
FF
FF
FF
FF
FF
FF
FF
00
00
00
00
00
00
00
00
00
00
00
00
00
00
00
00
00
00
00
00
00
00
00
00
00
FF
FF
FF
FF
FF
FF
FF
FF
ENDCHAR
STARTCHAR 003B
ENCODING 59
SWIDTH 282 0
DWIDTH 22 0
BBX 8 52 9 -12
BITMAP
FF
FF
FF
FF
FF
FF
FF
FF
00
00
00
00
00
00
00
00
00
00
00
00
00
00
00
00
00
00
00
00
00
00
00
00
00
FF
FF
FF
FF
FF
FF
FF
FF
0F
0F
0F
0F
0E
0E
0E
1C
FC
F8
F0
ENDCHAR
STARTCHAR 003C
ENCODING 60
SWIDTH 578 0
DWIDTH 45 0
BBX 39 38 3 -1
BITMAP
0000000002
000000000E
000000003E
00000001FE
00000007FE
0000001FFE
000000FFFE
000003FFF0
00001FFFC0
00007FFE00
0001FFF800
000FFFE000
003FFF0000
00FFFC0000
07FFE00000
1FFF800000
7FFC000000
FFF0000000
FF80000000
FF80000000
FFE0000000
FFFC000000
3FFF000000
0FFFC00000
01FFF80000
007FFE0000
001FFFC000
0003FFF000
0000FFFC00
00003FFF80
000007FFE0
000001FFFC
0000003FFE
0000000FFE
00000003FE
000000007E
000000001E
0000000006
ENDCHAR
STARTCHAR 003D
ENCODING 61
SWIDTH 578 0
DWIDTH 45 0
BBX 38 18 4 9
BITMAP
FFFFFFFFFC
FFFFFFFFFC
FFFFFFFFFC
FFFFFFFFFC
FFFFFFFFFC
0000000000
0000000000
0000000000
0000000000
0000000000
0000000000
0000000000
0000000000
FFFFFFFFFC
FFFFFFFFFC
FFFFFFFFFC
FFFFFFFFFC
FFFFFFFFFC
ENDCHAR
STARTCHAR 003E
ENCODING 62
SWIDTH 578 0
DWIDTH 45 0
BBX 38 37 4 0
BITMAP
C000000000
F800000000
FE00000000
FF80000000
FFF0000000
FFFC000000
3FFF800000
0FFFE00000
01FFF80000
007FFF0000
000FFFC000
0003FFF000
0000FFFE00
00001FFF80
000007FFE0
000000FFFC
0000003FFC
0000000FFC
00000003FC
0000000FFC
0000007FFC
000001FFF8
00000FFFC0
00003FFF00
0001FFF800
0007FFE000
001FFF8000
00FFFC0000
03FFF00000
1FFFC00000
7FFE000000
FFF8000000
FFE0000000
FF00000000
FC00000000
E000000000
8000000000
ENDCHAR
STARTCHAR 003F
ENCODING 63
SWIDTH 552 0
DWIDTH 43 0
BBX 34 58 6 0
BITMAP
000FFC0000
007FFF8000
01FFFFE000
07FFFFF000
0FFFFFFC00
0FFFFFFE00
1FF80FFE00
3FE003FF00
3F8000FF00
7F80007F80
7F00007F80
7F00003F80
7E00003F80
FE00003FC0
FE00001FC0
FE00001FC0
FE00003FC0
FE00003F80
0000003F80
0000003F80
0000007F80
000000FF00
000000FF00
000001FE00
000003FC00
000007F800
00000FF000
00003FE000
00007FC000
0000FF8000
0000FF0000
0001FE0000
0003FC0000
0003F80000
0007F80000
0007F00000
0007F00000
0007F00000
0007F00000
0007F00000
0007F00000
0007F00000
0000000000
0000000000
0000000000
0000000000
0000000000
0000000000
0000000000
0000000000
0007F00000
0007F00000
0007F00000
0007F00000
0007F00000
0007F00000
0007F00000
0007F00000
ENDCHAR
STARTCHAR 0040
ENCODING 64
SWIDTH 1015 0
DWIDTH 79 0
BBX 71 69 3 -11
BITMAP
00000000FFF0000000
0000000FFFFF000000
0000007FFFFFE00000
000003FFFFFFFC0000
00000FFFFFFFFF0000
00003FFFFFFFFF8000
00007FFF003FFFE000
0001FFF00003FFF000
0003FF8000007FF800
0007FE0000001FFC00
001FF800000007FE00
003FF000000003FF00
003FC000000001FF80
007F80000000007FC0
00FF00000000003FE0
01FE00000000003FE0
03FC00000000001FF0
03F800003F80000FF0
07F00001FFE00007F8
07F00007FFF0FE07F8
0FE0001FFFF8FE03FC
0FC0003FFFFCFC03FC
1FC0007FC0FDFC01FC
1F8000FF003FFC01FC
3F8001FE001FF801FE
3F0003FC001FF800FE
7F0007F8000FF800FE
7F0007F0000FF000FE
7E000FE0000FF000FE
7E000FE0000FF000FE
FE001FC0000FE000FE
FE001FC0000FE000FE
FE001FC0000FE000FE
FC003F80000FC000FE
FC003F80000FC000FC
FC003F80001FC001FC
FC003F80001F8001FC
FC003F80001F8001F8
FC003F80003F8003F8
FC003F80003F8003F8
FE003F80003F0007F0
FE003F80007F0007F0
FE003F8000FF000FE0
FE003FC000FE001FE0
FF001FC001FE003FC0
7F001FE003FE007F80
7F001FF007FF00FF00
7F800FFC1FFF83FE00
3F8007FFFF3FFFFC00
3FC003FFFE3FFFF800
1FE001FFFC3FFFF000
1FE000FFF01FFFC000
0FF0001FC007FF0000
0FF800000000000000
07FC00000000000000
03FE00000000000000
01FF00000000000000
00FF80000000000000
00FFE0000000000000
003FF8000000000000
001FFE000000000000
000FFF800001E00000
0007FFFC003FE00000
0001FFFFFFFFF00000
00007FFFFFFFF00000
00001FFFFFFFF80000
000007FFFFFFC00000
000000FFFFFE000000
00000007FFC0000000
ENDCHAR
STARTCHAR 0041
ENCODING 65
SWIDTH 668 0
DWIDTH 52 0
BBX 50 57 1 0
BITMAP
00000FFC000000
00000FFC000000
00000FFE000000
00001FFE000000
00001FFE000000
00001FFF000000
00003FFF000000
00003FFF800000
00003FFF800000
00007FBF800000
00007F3FC00000
0000FF3FC00000
0000FE1FC00000
0000FE1FE00000
0001FE1FE00000
0001FC0FE00000
0001FC0FF00000
0003FC0FF00000
0003F807F00000
0003F807F80000
0007F807F80000
0007F003F80000
0007F003FC0000
000FF003FC0000
000FE001FC0000
001FE001FE0000
001FC001FE0000
001FC000FE0000
003FC000FF0000
003F8000FF0000
003F80007F8000
007F80007F8000
007F00007F8000
007F00003FC000
00FFFFFFFFC000
00FFFFFFFFC000
00FFFFFFFFE000
01FFFFFFFFE000
01FFFFFFFFE000
01FFFFFFFFF000
03FC00000FF000
03F800000FF000
07F8000007F800
07F8000007F800
07F0000007F800
0FF0000003FC00
0FF0000003FC00
0FE0000003FC00
1FE0000001FE00
1FE0000001FE00
1FC0000001FF00
3FC0000000FF00
3FC0000000FF00
3F80000000FF80
7F800000007F80
7F800000007F80
FF000000003FC0
ENDCHAR
STARTCHAR 0042
ENCODING 66
SWIDTH 668 0
DWIDTH 52 0
BBX 42 57 6 0
BITMAP
FFFFFFF80000
FFFFFFFF0000
FFFFFFFFC000
FFFFFFFFE000
FFFFFFFFF000
FFFFFFFFF800
FE0001FFFC00
FE00000FFC00
FE000003FE00
FE000001FE00
FE000001FF00
FE000000FF00
FE000000FF00
FE0000007F00
FE0000007F00
FE0000007F00
FE0000007F00
FE0000007F00
FE000000FE00
FE000000FE00
FE000000FE00
FE000001FC00
FE000003FC00
FE00000FF800
FE0001FFF000
FFFFFFFFE000
FFFFFFFF8000
FFFFFFFF8000
FFFFFFFFE000
FFFFFFFFF800
FFFFFFFFFC00
FE000007FE00
FE000001FF00
FE000000FF80
FE0000007F80
FE0000003FC0
FE0000003FC0
FE0000001FC0
FE0000001FC0
FE0000001FC0
FE0000001FC0
FE0000001FC0
FE0000001FC0
FE0000001FC0
FE0000001FC0
FE0000003FC0
FE0000003FC0
FE0000007F80
FE000000FF80
FE000003FF00
FE00001FFF00
FFFFFFFFFE00
FFFFFFFFFC00
FFFFFFFFF800
FFFFFFFFE000
FFFFFFFFC000
FFFFFFFC0000
ENDCHAR
STARTCHAR 0043
ENCODING 67
SWIDTH 720 0
DWIDTH 56 0
BBX 49 60 4 -2
BITMAP
00000FFE000000
0000FFFFE00000
0003FFFFF80000
000FFFFFFE0000
001FFFFFFF0000
007FFFFFFF8000
00FFFF3FFFC000
01FFE000FFE000
01FF00003FF000
03FE00001FF000
07FC00000FF800
07F8000007F800
0FF0000003FC00
1FE0000001FC00
1FE0000001FE00
1FC0000001FE00
3FC0000000FE00
3F80000000FE00
7F80000000FE00
7F000000000000
7F000000000000
7F000000000000
FF000000000000
FE000000000000
FE000000000000
FE000000000000
FE000000000000
FE000000000000
FE000000000000
FE000000000000
FE000000000000
FE000000000000
FE000000000000
FE000000000000
FE000000000000
FE000000000000
FF000000000000
FF000000007F80
7F000000007F80
7F000000007F00
7F800000007F00
7F80000000FF00
3F80000000FF00
3FC0000000FF00
3FC0000001FE00
1FE0000001FE00
1FE0000003FE00
0FF0000003FC00
0FF8000007FC00
07FC00000FF800
03FE00001FF800
03FF80003FF000
01FFE000FFE000
00FFFF1FFFC000
007FFFFFFF8000
003FFFFFFF0000
000FFFFFFE0000
0007FFFFF80000
0000FFFFE00000
00001FFE000000
ENDCHAR
STARTCHAR 0044
ENCODING 68
SWIDTH 720 0
DWIDTH 56 0
BBX 45 57 7 0
BITMAP
FFFFFFE00000
FFFFFFFC0000
FFFFFFFF8000
FFFFFFFFC000
FFFFFFFFF000
FFFFFFFFF800
FE0003FFFC00
FE00001FFE00
FE000007FE00
FE000001FF00
FE000000FF80
FE0000007F80
FE0000003FC0
FE0000003FC0
FE0000001FE0
FE0000001FE0
FE0000000FE0
FE0000000FF0
FE0000000FF0
FE00000007F0
FE00000007F0
FE00000007F0
FE00000007F8
FE00000007F8
FE00000003F8
FE00000003F8
FE00000003F8
FE00000003F8
FE00000003F8
FE00000003F8
FE00000003F8
FE00000003F8
FE00000003F8
FE00000007F8
FE00000007F8
FE00000007F0
FE00000007F0
FE00000007F0
FE0000000FF0
FE0000000FF0
FE0000000FE0
FE0000001FE0
FE0000001FE0
FE0000003FC0
FE0000003FC0
FE0000007F80
FE000000FF80
FE000001FF00
FE000007FE00
FE00001FFE00
FE0003FFFC00
FFFFFFFFF800
FFFFFFFFF000
FFFFFFFFC000
FFFFFFFF0000
FFFFFFFC0000
FFFFFFE00000
ENDCHAR
STARTCHAR 0045
ENCODING 69
SWIDTH 668 0
DWIDTH 52 0
BBX 41 57 7 0
BITMAP
FFFFFFFFFE00
FFFFFFFFFE00
FFFFFFFFFE00
FFFFFFFFFE00
FFFFFFFFFE00
FFFFFFFFFE00
FE0000000000
FE0000000000
FE0000000000
FE0000000000
FE0000000000
FE0000000000
FE0000000000
FE0000000000
FE0000000000
FE0000000000
FE0000000000
FE0000000000
FE0000000000
FE0000000000
FE0000000000
FE0000000000
FE0000000000
FE0000000000
FE0000000000
FFFFFFFFFC00
FFFFFFFFFC00
FFFFFFFFFC00
FFFFFFFFFC00
FFFFFFFFFC00
FFFFFFFFFC00
FE0000000000
FE0000000000
FE0000000000
FE0000000000
FE0000000000
FE0000000000
FE0000000000
FE0000000000
FE0000000000
FE0000000000
FE0000000000
FE0000000000
FE0000000000
FE0000000000
FE0000000000
FE0000000000
FE0000000000
FE0000000000
FE0000000000
FE0000000000
FFFFFFFFFF80
FFFFFFFFFF80
FFFFFFFFFF80
FFFFFFFFFF80
FFFFFFFFFF80
FFFFFFFFFF80
ENDCHAR
STARTCHAR 0046
ENCODING 70
SWIDTH 617 0
DWIDTH 48 0
BBX 38 57 7 0
BITMAP
FFFFFFFFFC
FFFFFFFFFC
FFFFFFFFFC
FFFFFFFFFC
FFFFFFFFFC
FFFFFFFFFC
FE00000000
FE00000000
FE00000000
FE00000000
FE00000000
FE00000000
FE00000000
FE00000000
FE00000000
FE00000000
FE00000000
FE00000000
FE00000000
FE00000000
FE00000000
FE00000000
FE00000000
FE00000000
FE00000000
FFFFFFFFC0
FFFFFFFFC0
FFFFFFFFC0
FFFFFFFFC0
FFFFFFFFC0
FFFFFFFFC0
FE00000000
FE00000000
FE00000000
FE00000000
FE00000000
FE00000000
FE00000000
FE00000000
FE00000000
FE00000000
FE00000000
FE00000000
FE00000000
FE00000000
FE00000000
FE00000000
FE00000000
FE00000000
FE00000000
FE00000000
FE00000000
FE00000000
FE00000000
FE00000000
FE00000000
FE00000000
ENDCHAR
STARTCHAR 0047
ENCODING 71
SWIDTH 784 0
DWIDTH 61 0
BBX 52 60 3 -2
BITMAP
000003FFC00000
00003FFFFC0000
0001FFFFFF0000
0003FFFFFFC000
000FFFFFFFE000
001FFFFFFFF800
003FFFC7FFFC00
007FF8003FFE00
00FFC00007FE00
01FF800003FF00
03FE000000FF80
07FC0000007F80
07F80000007FC0
0FF80000003FC0
0FF00000001FC0
1FE00000001FE0
1FE00000001FE0
1FC00000000FE0
3FC00000000000
3F800000000000
3F800000000000
7F800000000000
7F000000000000
7F000000000000
7F000000000000
7F000000000000
7F000000000000
7F000000000000
FF00000FFFFFF0
FF00000FFFFFF0
FF00000FFFFFF0
FF00000FFFFFF0
7F00000FFFFFF0
7F00000FFFFFF0
7F0000000003F0
7F0000000003F0
7F0000000003F0
7F8000000003F0
7F8000000003F0
3F8000000007F0
3FC000000007F0
3FC000000007F0
3FC000000007F0
1FE00000000FF0
1FE00000000FF0
0FF00000001FF0
0FF80000001FF0
07F80000003FF0
07FC0000007FF0
03FF000000FFF0
01FF800001FFF0
01FFE00007FBF0
00FFF8001FF3F0
007FFFE7FFE3F0
001FFFFFFFC1F0
000FFFFFFF81F0
0007FFFFFE01F0
0001FFFFF801F0
00007FFFE000F0
000007FE000000
ENDCHAR
STARTCHAR 0048
ENCODING 72
SWIDTH 720 0
DWIDTH 56 0
BBX 44 57 6 0
BITMAP
FF00000007F0
FF00000007F0
FF00000007F0
FF00000007F0
FF00000007F0
FF00000007F0
FF00000007F0
FF00000007F0
FF00000007F0
FF00000007F0
FF00000007F0
FF00000007F0
FF00000007F0
FF00000007F0
FF00000007F0
FF00000007F0
FF00000007F0
FF00000007F0
FF00000007F0
FF00000007F0
FF00000007F0
FF00000007F0
FF00000007F0
FF00000007F0
FF00000007F0
FFFFFFFFFFF0
FFFFFFFFFFF0
FFFFFFFFFFF0
FFFFFFFFFFF0
FFFFFFFFFFF0
FFFFFFFFFFF0
FF00000007F0
FF00000007F0
FF00000007F0
FF00000007F0
FF00000007F0
FF00000007F0
FF00000007F0
FF00000007F0
FF00000007F0
FF00000007F0
FF00000007F0
FF00000007F0
FF00000007F0
FF00000007F0
FF00000007F0
FF00000007F0
FF00000007F0
FF00000007F0
FF00000007F0
FF00000007F0
FF00000007F0
FF00000007F0
FF00000007F0
FF00000007F0
FF00000007F0
FF00000007F0
ENDCHAR
STARTCHAR 0049
ENCODING 73
SWIDTH 282 0
DWIDTH 22 0
BBX 7 57 8 0
BITMAP
FE
FE
FE
FE
FE
FE
FE
FE
FE
FE
FE
FE
FE
FE
FE
FE
FE
FE
FE
FE
FE
FE
FE
FE
FE
FE
FE
FE
FE
FE
FE
FE
FE
FE
FE
FE
FE
FE
FE
FE
FE
FE
FE
FE
FE
FE
FE
FE
FE
FE
FE
FE
FE
FE
FE
FE
FE
ENDCHAR
STARTCHAR 004A
ENCODING 74
SWIDTH 501 0
DWIDTH 39 0
BBX 32 59 1 -2
BITMAP
0000007F
0000007F
0000007F
0000007F
0000007F
0000007F
0000007F
0000007F
0000007F
0000007F
0000007F
0000007F
0000007F
0000007F
0000007F
0000007F
0000007F
0000007F
0000007F
0000007F
0000007F
0000007F
0000007F
0000007F
0000007F
0000007F
0000007F
0000007F
0000007F
0000007F
0000007F
0000007F
0000007F
0000007F
0000007F
0000007F
0000007F
0000007F
0000007F
FF00007F
FF00007F
FF00007F
FF00007F
FF00007F
FF00007F
FF00007F
FF0000FF
7F0000FF
7F8000FE
7F8001FE
3FC003FE
3FE007FC
1FF81FFC
1FFFFFF8
0FFFFFF0
07FFFFE0
01FFFFC0
00FFFF00
001FF800
ENDCHAR
STARTCHAR 004B
ENCODING 75
SWIDTH 668 0
DWIDTH 52 0
BBX 45 57 6 0
BITMAP
FE0000001FF0
FE0000003FE0
FE0000007FC0
FE000000FF80
FE000001FF00
FE000003FE00
FE000007FC00
FE00000FF800
FE00001FF000
FE00003FE000
FE00007FC000
FE0000FFC000
FE0001FF8000
FE0003FF0000
FE0007FE0000
FE000FFC0000
FE001FF80000
FE003FF00000
FE003FE00000
FE007FC00000
FE00FF800000
FE01FF000000
FE03FE000000
FE07FC000000
FE0FFE000000
FE1FFE000000
FE3FFF000000
FE7FFF800000
FEFF7F800000
FFFE3FC00000
FFFC3FE00000
FFF81FF00000
FFF00FF00000
FFE007F80000
FFC007FC0000
FF8003FC0000
FF0001FE0000
FE0001FF0000
FE0000FF0000
FE00007F8000
FE00007FC000
FE00003FC000
FE00001FE000
FE00001FF000
FE00000FF800
FE000007F800
FE000007FC00
FE000003FE00
FE000001FE00
FE000001FF00
FE000000FF80
FE0000007F80
FE0000003FC0
FE0000003FE0
FE0000001FE0
FE0000000FF0
FE0000000FF8
ENDCHAR
STARTCHAR 004C
ENCODING 76
SWIDTH 552 0
DWIDTH 43 0
BBX 35 57 6 0
BITMAP
FE00000000
FE00000000
FE00000000
FE00000000
FE00000000
FE00000000
FE00000000
FE00000000
FE00000000
FE00000000
FE00000000
FE00000000
FE00000000
FE00000000
FE00000000
FE00000000
FE00000000
FE00000000
FE00000000
FE00000000
FE00000000
FE00000000
FE00000000
FE00000000
FE00000000
FE00000000
FE00000000
FE00000000
FE00000000
FE00000000
FE00000000
FE00000000
FE00000000
FE00000000
FE00000000
FE00000000
FE00000000
FE00000000
FE00000000
FE00000000
FE00000000
FE00000000
FE00000000
FE00000000
FE00000000
FE00000000
FE00000000
FE00000000
FE00000000
FE00000000
FE00000000
FFFFFFFFE0
FFFFFFFFE0
FFFFFFFFE0
FFFFFFFFE0
FFFFFFFFE0
FFFFFFFFE0
ENDCHAR
STARTCHAR 004D
ENCODING 77
SWIDTH 835 0
DWIDTH 65 0
BBX 53 57 6 0
BITMAP
FFC00000001FF8
FFC00000001FF8
FFE00000003FF8
FFE00000003FF8
FFE00000003FF8
FFF00000007FF8
FFF00000007FF8
FFF00000007FF8
FFF8000000FFF8
FFF8000000FFF8
FFF8000000FFF8
FFFC000001FFF8
FEFC000001FBF8
FEFC000001FBF8
FEFE000003FBF8
FE7E000003F3F8
FE7E000003F3F8
FE7F000007F3F8
FE3F000007E3F8
FE3F000007E3F8
FE3F80000FE3F8
FE1F80000FC3F8
FE1F80000FC3F8
FE1FC0001FC3F8
FE0FC0001F83F8
FE0FC0001F83F8
FE0FE0003F83F8
FE07E0003F03F8
FE07F0003F03F8
FE07F0007F03F8
FE03F0007E03F8
FE03F8007E03F8
FE03F800FE03F8
FE01F800FC03F8
FE01FC00FC03F8
FE00FC01FC03F8
FE00FC01F803F8
FE00FE01F803F8
FE007E03F803F8
FE007E03F003F8
FE007F03F003F8
FE003F07F003F8
FE003F07E003F8
FE003F87E003F8
FE001F8FE003F8
FE001F8FC003F8
FE001FCFC003F8
FE000FDFC003F8
FE000FDF8003F8
FE000FFF8003F8
FE0007FF8003F8
FE0007FF0003F8
FE0007FF0003F8
FE0003FF0003F8
FE0003FE0003F8
FE0003FE0003F8
FE0001FE0003F8
ENDCHAR
STARTCHAR 004E
ENCODING 78
SWIDTH 720 0
DWIDTH 56 0
BBX 44 57 6 0
BITMAP
FF00000007F0
FF80000007F0
FF80000007F0
FFC0000007F0
FFE0000007F0
FFE0000007F0
FFF0000007F0
FFF8000007F0
FFF8000007F0
FFFC000007F0
FFFC000007F0
FFFE000007F0
FEFF000007F0
FEFF000007F0
FE7F800007F0
FE3FC00007F0
FE3FC00007F0
FE1FE00007F0
FE0FF00007F0
FE0FF00007F0
FE07F80007F0
FE03F80007F0
FE03FC0007F0
FE01FE0007F0
FE01FE0007F0
FE00FF0007F0
FE007F8007F0
FE007F8007F0
FE003FC007F0
FE001FE007F0
FE001FE007F0
FE000FF007F0
FE0007F007F0
FE0007F807F0
FE0003FC07F0
FE0003FC07F0
FE0001FE07F0
FE0000FF07F0
FE0000FF07F0
FE00007F87F0
FE00003FC7F0
FE00003FC7F0
FE00001FE7F0
FE00001FE7F0
FE00000FF7F0
FE000007FFF0
FE000007FFF0
FE000003FFF0
FE000001FFF0
FE000001FFF0
FE000000FFF0
FE0000007FF0
FE0000007FF0
FE0000003FF0
FE0000003FF0
FE0000001FF0
FE0000000FF0
ENDCHAR
STARTCHAR 004F
ENCODING 79
SWIDTH 784 0
DWIDTH 61 0
BBX 55 60 3 -2
BITMAP
000003FF800000
00003FFFF80000
0000FFFFFE0000
0003FFFFFF8000
000FFFFFFFE000
001FFFFFFFF000
007FFFCFFFF800
00FFF0003FFE00
01FFC0000FFE00
01FF000003FF00
03FE000001FF80
07FC0000007FC0
0FF80000003FC0
0FF00000003FE0
1FE00000001FE0
1FE00000000FF0
3FC00000000FF0
3FC000000007F8
3F8000000007F8
7F8000000003F8
7F8000000003FC
7F0000000003FC
7F0000000001FC
7F0000000001FC
FF0000000001FC
FF0000000001FC
FE0000000001FE
FE0000000001FE
FE0000000001FE
FE0000000001FE
FE0000000001FE
FE0000000001FE
FE0000000001FE
FE0000000001FE
FF0000000001FE
FF0000000001FC
FF0000000001FC
7F0000000001FC
7F0000000003FC
7F8000000003FC
7F8000000003F8
3F8000000007F8
3FC000000007F8
3FC00000000FF0
1FE00000000FF0
1FF00000001FE0
0FF00000001FE0
0FF80000003FC0
07FC0000007FC0
03FE000000FF80
03FF800003FF00
01FFC00007FE00
00FFF8003FFE00
007FFFC7FFF800
003FFFFFFFF000
000FFFFFFFE000
0007FFFFFF8000
0001FFFFFE0000
00003FFFF80000
000003FF800000
ENDCHAR
STARTCHAR 0050
ENCODING 80
SWIDTH 668 0
DWIDTH 52 0
BBX 41 57 7 0
BITMAP
FFFFFFF80000
FFFFFFFF0000
FFFFFFFFC000
FFFFFFFFF000
FFFFFFFFF800
FFFFFFFFFC00
FE0000FFFC00
FE00000FFE00
FE000003FE00
FE000001FF00
FE000000FF00
FE000000FF00
FE0000007F80
FE0000007F80
FE0000007F80
FE0000007F80
FE0000007F80
FE0000007F80
FE0000007F80
FE0000007F80
FE0000007F80
FE000000FF80
FE000000FF00
FE000001FF00
FE000003FE00
FE00000FFE00
FE0000FFFC00
FFFFFFFFFC00
FFFFFFFFF800
FFFFFFFFE000
FFFFFFFFC000
FFFFFFFF0000
FFFFFFF80000
FE0000000000
FE0000000000
FE0000000000
FE0000000000
FE0000000000
FE0000000000
FE0000000000
FE0000000000
FE0000000000
FE0000000000
FE0000000000
FE0000000000
FE0000000000
FE0000000000
FE0000000000
FE0000000000
FE0000000000
FE0000000000
FE0000000000
FE0000000000
FE0000000000
FE0000000000
FE0000000000
FE0000000000
ENDCHAR
STARTCHAR 0051
ENCODING 81
SWIDTH 784 0
DWIDTH 61 0
BBX 55 63 3 -5
BITMAP
000003FF800000
00003FFFF80000
0001FFFFFE0000
0007FFFFFF8000
000FFFFFFFE000
001FFFFFFFF000
007FFFCFFFF800
00FFF8003FFE00
01FFC0000FFE00
03FF800003FF00
03FE000001FF80
07FC0000007FC0
0FF80000003FC0
0FF00000003FE0
1FE00000001FE0
1FE00000000FF0
3FC00000000FF0
3FC000000007F8
3F8000000007F8
7F8000000003F8
7F8000000003FC
7F0000000003FC
7F0000000001FC
FF0000000001FC
FF0000000001FC
FF0000000001FE
FE0000000001FE
FE0000000001FE
FE0000000001FE
FE0000000001FE
FE0000000001FE
FE0000000001FE
FE0000000001FE
FE0000000001FE
FF0000000001FC
FF0000000001FC
FF0000000001FC
7F0000000001FC
7F0000000003FC
7F8000000003FC
7F8000000003F8
3F8000000007F8
3FC000002007F8
3FC00000700FF0
1FE00000F80FF0
1FE00000FC1FE0
0FF00001FF3FE0
0FF80000FFBFC0
07FC00007FFFC0
03FE00003FFF80
03FF80001FFF00
01FFC0000FFE00
00FFF8003FFE00
007FFFC7FFFF00
003FFFFFFFFF80
000FFFFFFFFFE0
0007FFFFFF9FF0
0001FFFFFE0FF8
00003FFFF807FC
000003FF8003F8
000000000000F0
00000000000060
00000000000020
ENDCHAR
STARTCHAR 0052
ENCODING 82
SWIDTH 720 0
DWIDTH 56 0
BBX 46 57 7 0
BITMAP
FFFFFFFF0000
FFFFFFFFE000
FFFFFFFFF800
FFFFFFFFFE00
FFFFFFFFFF00
FFFFFFFFFF80
FE00001FFF80
FE000001FFC0
FE0000007FC0
FE0000003FE0
FE0000001FE0
FE0000001FE0
FE0000000FE0
FE0000000FF0
FE0000000FF0
FE0000000FF0
FE0000000FF0
FE0000000FF0
FE0000000FE0
FE0000000FE0
FE0000001FE0
FE0000001FC0
FE0000003FC0
FE0000003F80
FE000000FF80
FE000003FF00
FFFFFFFFFC00
FFFFFFFFF800
FFFFFFFFE000
FFFFFFFFF000
FFFFFFFFFC00
FFFFFFFFFE00
FE00000FFF00
FE000001FF80
FE0000007F80
FE0000003FC0
FE0000003FC0
FE0000001FC0
FE0000001FC0
FE0000001FC0
FE0000001FC0
FE0000001FC0
FE0000001FC0
FE0000001FC0
FE0000001FC0
FE0000001FC0
FE0000001FE0
FE0000001FE0
FE0000001FE0
FE0000001FE0
FE0000000FE0
FE0000000FE0
FE0000000FF0
FE0000000FF0
FE0000000FF8
FE0000000FFC
FE00000007FC
ENDCHAR
STARTCHAR 0053
ENCODING 83
SWIDTH 668 0
DWIDTH 52 0
BBX 44 60 4 -2
BITMAP
0000FFE00000
000FFFFE0000
003FFFFFC000
00FFFFFFE000
01FFFFFFF800
03FFFFFFFC00
07FF803FFE00
0FFC0007FE00
0FF00001FF00
1FE00000FF80
1FC000007F80
3FC000003FC0
3F8000003FC0
3F8000001FC0
3F8000001FC0
3F8000001FC0
7F8000001FC0
7F8000001FC0
3F8000000000
3FC000000000
3FC000000000
3FF000000000
3FF800000000
1FFF00000000
0FFFE0000000
0FFFFE000000
07FFFFC00000
01FFFFFC0000
00FFFFFFC000
003FFFFFF000
0003FFFFFC00
00007FFFFE00
000007FFFF00
0000007FFF80
0000000FFFC0
00000001FFE0
000000007FE0
000000003FF0
000000001FF0
000000000FF0
FE00000007F0
FE00000007F0
FE00000007F0
FE00000007F0
FE00000007F0
FF00000007F0
7F00000007F0
7F8000000FF0
7F8000000FE0
3FC000001FE0
3FE000003FC0
1FF800007FC0
0FFE0001FF80
0FFFF87FFF00
07FFFFFFFE00
01FFFFFFFC00
00FFFFFFF800
003FFFFFE000
000FFFFF0000
0000FFF00000
ENDCHAR
STARTCHAR 0054
ENCODING 84
SWIDTH 617 0
DWIDTH 48 0
BBX 44 57 2 0
BITMAP
FFFFFFFFFFF0
FFFFFFFFFFF0
FFFFFFFFFFF0
FFFFFFFFFFF0
FFFFFFFFFFF0
FFFFFFFFFFF0
00003FC00000
00003FC00000
00003FC00000
00003FC00000
00003FC00000
00003FC00000
00003FC00000
00003FC00000
00003FC00000
00003FC00000
00003FC00000
00003FC00000
00003FC00000
00003FC00000
00003FC00000
00003FC00000
00003FC00000
00003FC00000
00003FC00000
00003FC00000
00003FC00000
00003FC00000
00003FC00000
00003FC00000
00003FC00000
00003FC00000
00003FC00000
00003FC00000
00003FC00000
00003FC00000
00003FC00000
00003FC00000
00003FC00000
00003FC00000
00003FC00000
00003FC00000
00003FC00000
00003FC00000
00003FC00000
00003FC00000
00003FC00000
00003FC00000
00003FC00000
00003FC00000
00003FC00000
00003FC00000
00003FC00000
00003FC00000
00003FC00000
00003FC00000
00003FC00000
ENDCHAR
STARTCHAR 0055
ENCODING 85
SWIDTH 720 0
DWIDTH 56 0
BBX 43 59 7 -2
BITMAP
FE0000000FE0
FE0000000FE0
FE0000000FE0
FE0000000FE0
FE0000000FE0
FE0000000FE0
FE0000000FE0
FE0000000FE0
FE0000000FE0
FE0000000FE0
FE0000000FE0
FE0000000FE0
FE0000000FE0
FE0000000FE0
FE0000000FE0
FE0000000FE0
FE0000000FE0
FE0000000FE0
FE0000000FE0
FE0000000FE0
FE0000000FE0
FE0000000FE0
FE0000000FE0
FE0000000FE0
FE0000000FE0
FE0000000FE0
FE0000000FE0
FE0000000FE0
FE0000000FE0
FE0000000FE0
FE0000000FE0
FE0000000FE0
FE0000000FE0
FE0000000FE0
FE0000000FE0
FE0000000FE0
FE0000000FE0
FE0000000FE0
FE0000000FE0
FE0000000FE0
FE0000000FE0
FE0000000FE0
FE0000000FE0
FE0000000FE0
FE0000001FE0
FF0000001FE0
7F0000003FC0
7F8000003FC0
7FC000007F80
3FE00000FF80
3FF00003FF00
1FFE000FFF00
0FFFE1FFFE00
07FFFFFFFC00
03FFFFFFF000
01FFFFFFE000
007FFFFF8000
000FFFFE0000
0001FFE00000
ENDCHAR
STARTCHAR 0056
ENCODING 86
SWIDTH 668 0
DWIDTH 52 0
BBX 48 57 2 0
BITMAP
FF00000000FF
7F80000000FF
7F80000000FE
3F80000001FE
3FC0000001FE
3FC0000001FC
1FC0000003FC
1FE0000003FC
1FE0000003F8
0FE0000007F8
0FF0000007F8
0FF0000007F0
07F000000FF0
07F800000FE0
07F800000FE0
03F800001FE0
03FC00001FC0
01FC00001FC0
01FC00003FC0
01FE00003F80
00FE00003F80
00FF00007F80
00FF00007F00
007F00007F00
007F8000FF00
007F8000FE00
003F8000FE00
003FC000FE00
003FC001FC00
001FC001FC00
001FE001FC00
000FE003F800
000FE003F800
000FF003F800
0007F007F000
0007F007F000
0007F807F000
0003F80FE000
0003F80FE000
0003FC0FE000
0001FC1FC000
0001FC1FC000
0001FE1F8000
0000FE3F8000
0000FE3F8000
00007F3F0000
00007F7F0000
00007F7F0000
00003FFE0000
00003FFE0000
00003FFE0000
00001FFC0000
00001FFC0000
00001FFC0000
00000FF80000
00000FF80000
000007F80000
ENDCHAR
STARTCHAR 0057
ENCODING 87
SWIDTH 938 0
DWIDTH 73 0
BBX 70 57 2 0
BITMAP
FF000001FE000003FC
FF000001FE000003FC
FF000003FF000003FC
7F800003FF000007F8
7F800003FF000007F8
7F800003FF000007F8
7F800007FF800007F8
3FC00007FF80000FF0
3FC00007FF80000FF0
3FC0000FFF80000FF0
3FC0000FFFC0000FF0
1FC0000FFFC0000FE0
1FE0000FDFC0001FE0
1FE0001FCFE0001FE0
1FE0001FCFE0001FE0
0FE0001F8FE0001FC0
0FF0001F87E0003FC0
0FF0003F87F0003FC0
0FF0003F87F0003FC0
07F0003F07F0003F80
07F8007F03F8003F80
07F8007F03F8007F80
07F8007F03F8007F80
03F8007E01F8007F00
03F800FE01FC007F00
03FC00FE01FC00FF00
03FC00FC01FC00FF00
01FC00FC00FE00FE00
01FC01FC00FE00FE00
01FE01FC00FE00FE00
01FE01F8007E01FE00
00FE03F8007F01FC00
00FE03F8007F01FC00
00FF03F8007F01FC00
00FF03F0003F03FC00
007F07F0003F83F800
007F07F0003F83F800
007F07E0003F83F800
003F87E0001FC7F800
003F8FE0001FC7F000
003F8FE0001FC7F000
003F8FC0000FC7F000
001FDFC0000FE7F000
001FDFC0000FEFE000
001FDFC0000FEFE000
001FDF800007FFE000
000FFF800007FFE000
000FFF800007FFC000
000FFF000003FFC000
000FFF000003FFC000
0007FF000003FF8000
0007FF000003FF8000
0007FE000001FF8000
0007FE000001FF8000
0003FE000001FF0000
0003FE000001FF0000
0003FC000000FF0000
ENDCHAR
STARTCHAR 0058
ENCODING 88
SWIDTH 668 0
DWIDTH 52 0
BBX 48 57 2 0
BITMAP
7FC0000001FE
3FE0000003FE
1FE0000007FC
1FF0000007F8
0FF800000FF0
07F800001FF0
07FC00001FE0
03FE00003FC0
01FE00007FC0
01FF00007F80
00FF8000FF00
007F8001FF00
007FC001FE00
003FE003FC00
001FE007FC00
001FF007F800
000FF00FF000
0007F81FE000
0007FC1FE000
0003FC3FC000
0001FE7F8000
0000FF7F8000
0000FFFF0000
00007FFE0000
00003FFE0000
00003FFC0000
00001FF80000
00000FF80000
00001FF80000
00001FFC0000
00003FFC0000
00007FFE0000
00007FFF0000
0000FFFF0000
0001FE7F8000
0003FE3FC000
0003FC3FC000
0007F81FE000
000FF81FF000
000FF00FF000
001FE007F800
003FE007FC00
003FC003FE00
007F8001FE00
00FF8001FF00
00FF0000FF80
01FE00007F80
03FE00007FC0
03FC00003FE0
07F800001FE0
0FF800001FF0
1FF000000FF8
1FE0000007F8
3FE0000007FC
7FC0000003FE
7F80000001FE
FF80000001FF
ENDCHAR
STARTCHAR 0059
ENCODING 89
SWIDTH 668 0
DWIDTH 52 0
BBX 50 57 1 0
BITMAP
FF800000007FC0
7FC00000007F80
3FC0000000FF80
3FE0000000FF00
1FF0000001FF00
1FF0000001FE00
0FF8000003FC00
07F8000007FC00
07FC000007F800
03FE00000FF800
01FE00000FF000
01FF00001FE000
00FF00003FE000
007F80003FC000
007FC0007F8000
003FC0007F8000
003FE000FF0000
001FE000FF0000
000FF001FE0000
000FF803FC0000
0007F803FC0000
0003FC07F80000
0003FC07F80000
0001FE0FF00000
0001FF1FE00000
0000FF1FE00000
00007FBFC00000
00007FBF800000
00003FFF800000
00001FFF000000
00001FFF000000
00000FFE000000
00000FFC000000
000007FC000000
000003F8000000
000003F8000000
000003F8000000
000003F8000000
000003F8000000
000003F8000000
000003F8000000
000003F8000000
000003F8000000
000003F8000000
000003F8000000
000003F8000000
000003F8000000
000003F8000000
000003F8000000
000003F8000000
000003F8000000
000003F8000000
000003F8000000
000003F8000000
000003F8000000
000003F8000000
000003F8000000
ENDCHAR
STARTCHAR 005A
ENCODING 90
SWIDTH 617 0
DWIDTH 48 0
BBX 43 57 2 0
BITMAP
3FFFFFFFFFE0
3FFFFFFFFFE0
3FFFFFFFFFE0
3FFFFFFFFFE0
3FFFFFFFFFE0
3FFFFFFFFFE0
000000003FE0
000000007FC0
000000007FC0
00000000FF80
00000001FF00
00000003FE00
00000003FE00
00000007FC00
0000000FF800
0000001FF000
0000003FF000
0000003FE000
0000007FC000
000000FF8000
000001FF0000
000001FF0000
000003FE0000
000007FC0000
00000FF80000
00000FF80000
00001FF00000
00003FE00000
00007FC00000
0000FFC00000
0000FF800000
0001FF000000
0003FE000000
0007FC000000
0007FC000000
000FF8000000
001FF0000000
003FE0000000
003FE0000000
007FC0000000
00FF80000000
01FF00000000
03FF00000000
03FE00000000
07FC00000000
0FF800000000
1FF000000000
1FF000000000
3FE000000000
7FC000000000
FF8000000000
FFFFFFFFFFE0
FFFFFFFFFFE0
FFFFFFFFFFE0
FFFFFFFFFFE0
FFFFFFFFFFE0
FFFFFFFFFFE0
ENDCHAR
STARTCHAR 005B
ENCODING 91
SWIDTH 282 0
DWIDTH 22 0
BBX 14 74 5 -17
BITMAP
FFFC
FFFC
FFFC
FFFC
FFFC
FFFC
FC00
FC00
FC00
FC00
FC00
FC00
FC00
FC00
FC00
FC00
FC00
FC00
FC00
FC00
FC00
FC00
FC00
FC00
FC00
FC00
FC00
FC00
FC00
FC00
FC00
FC00
FC00
FC00
FC00
FC00
FC00
FC00
FC00
FC00
FC00
FC00
FC00
FC00
FC00
FC00
FC00
FC00
FC00
FC00
FC00
FC00
FC00
FC00
FC00
FC00
FC00
FC00
FC00
FC00
FC00
FC00
FC00
FC00
FC00
FC00
FC00
FC00
FFFC
FFFC
FFFC
FFFC
FFFC
FFFC
ENDCHAR
STARTCHAR 005C
ENCODING 92
SWIDTH 282 0
DWIDTH 22 0
BBX 22 59 0 -2
BITMAP
F00000
F00000
F00000
F80000
780000
780000
7C0000
3C0000
3C0000
3E0000
1E0000
1E0000
1F0000
0F0000
0F0000
0F0000
078000
078000
078000
07C000
03C000
03C000
03E000
01E000
01E000
01F000
00F000
00F000
00F800
007800
007800
007800
003C00
003C00
003C00
003E00
001E00
001E00
001F00
000F00
000F00
000F80
000780
000780
0007C0
0003C0
0003C0
0003C0
0001E0
0001E0
0001E0
0001F0
0000F0
0000F0
0000F8
000078
000078
00007C
00003C
ENDCHAR
STARTCHAR 005D
ENCODING 93
SWIDTH 282 0
DWIDTH 22 0
BBX 14 74 2 -17
BITMAP
FFFC
FFFC
FFFC
FFFC
FFFC
FFFC
00FC
00FC
00FC
00FC
00FC
00FC
00FC
00FC
00FC
00FC
00FC
00FC
00FC
00FC
00FC
00FC
00FC
00FC
00FC
00FC
00FC
00FC
00FC
00FC
00FC
00FC
00FC
00FC
00FC
00FC
00FC
00FC
00FC
00FC
00FC
00FC
00FC
00FC
00FC
00FC
00FC
00FC
00FC
00FC
00FC
00FC
00FC
00FC
00FC
00FC
00FC
00FC
00FC
00FC
00FC
00FC
00FC
00FC
00FC
00FC
00FC
00FC
FFFC
FFFC
FFFC
FFFC
FFFC
FFFC
ENDCHAR
STARTCHAR 005E
ENCODING 94
SWIDTH 462 0
DWIDTH 36 0
BBX 29 29 4 26
BITMAP
001F8000
001FC000
003FC000
003FC000
007FE000
007FE000
007FF000
00FDF000
00F9F800
01F8F800
01F0F800
01F0FC00
03F07C00
03E07E00
07E03E00
07C03E00
07C03F00
0FC01F00
0F801F80
1F800F80
1F000F80
1F000FC0
3F0007C0
3E0007E0
7E0003E0
7C0003E0
7C0003F0
FC0001F0
F80001F8
ENDCHAR
STARTCHAR 005F
ENCODING 95
SWIDTH 552 0
DWIDTH 43 0
BBX 47 4 -2 -14
BITMAP
FFFFFFFFFFFE
FFFFFFFFFFFE
FFFFFFFFFFFE
FFFFFFFFFFFE
ENDCHAR
STARTCHAR 0060
ENCODING 96
SWIDTH 334 0
DWIDTH 26 0
BBX 16 12 2 46
BITMAP
FF80
7F80
3FC0
1FE0
0FE0
07F0
03F8
01F8
00FC
007E
003E
001F
ENDCHAR
STARTCHAR 0061
ENCODING 97
SWIDTH 552 0
DWIDTH 43 0
BBX 39 44 3 -2
BITMAP
0007FF0000
003FFFE000
00FFFFF800
03FFFFFE00
07FFFFFF00
0FFFFFFF00
0FFC03FF80
1FF0007F80
1FC0003F80
1FC0001FC0
3F80001FC0
3F80001FC0
3F80001FC0
0000001FC0
0000001FC0
0000001FC0
0000003FC0
0000007FC0
00000FFFC0
0007FFFFC0
007FFFFFC0
03FFFFFFC0
07FFFFDFC0
0FFFFC1FC0
1FFE001FC0
3FE0001FC0
7FC0001FC0
7F00001FC0
7F00001FC0
FE00001FC0
FE00001FC0
FE00001FC0
FE00001FC0
FE00003FC0
FF00007FC0
7F0000FFC0
7F8003FFC0
7FE00FFFC0
3FFFFFEFFA
1FFFFFCFFE
0FFFFF0FFE
07FFFE07FE
03FFF807FE
007FC001FC
ENDCHAR
STARTCHAR 0062
ENCODING 98
SWIDTH 552 0
DWIDTH 43 0
BBX 37 59 4 -2
BITMAP
FE00000000
FE00000000
FE00000000
FE00000000
FE00000000
FE00000000
FE00000000
FE00000000
FE00000000
FE00000000
FE00000000
FE00000000
FE00000000
FE00000000
FE00000000
FE01FF0000
FE0FFFE000
FE1FFFF000
FE7FFFFC00
FEFFFFFE00
FEFFFFFF00
FFFE07FF80
FFF801FF80
FFE0007FC0
FFC0003FC0
FFC0001FE0
FF80001FE0
FF80000FE0
FF00000FF0
FF000007F0
FE000007F0
FE000007F0
FE000003F8
FE000003F8
FE000003F8
FE000003F8
FE000003F8
FE000003F8
FE000003F8
FE000003F8
FE000003F0
FE000003F0
FE000007F0
FE000007F0
FF000007F0
FF00000FF0
FF80000FE0
FF80001FE0
FFC0001FC0
FFE0003FC0
FFF0007F80
FFF801FF80
FFFE07FF00
FDFFFFFE00
FCFFFFFC00
FC7FFFF800
FC3FFFF000
000FFFC000
0001FE0000
ENDCHAR
STARTCHAR 0063
ENCODING 99
SWIDTH 501 0
DWIDTH 39 0
BBX 35 44 2 -2
BITMAP
0003FE0000
001FFFC000
007FFFF000
00FFFFF800
01FFFFFE00
03FFFFFF00
07FE03FF00
0FF800FF80
0FF0007F80
1FE0003FC0
1FC0001FC0
3F80001FC0
3F80000FC0
3F80000FE0
7F00000FE0
7F00000000
7F00000000
7F00000000
7E00000000
7E00000000
FE00000000
FE00000000
FE00000000
FE00000000
FE00000000
7E00000000
7F00000000
7F00000000
7F000007E0
7F00000FE0
7F80000FE0
3F80000FE0
3F80001FC0
3FC0001FC0
1FE0003FC0
1FF0007F80
0FF800FF80
07FE03FF00
03FFFFFE00
01FFFFFC00
00FFFFF800
007FFFF000
001FFFC000
0003FE0000
ENDCHAR
STARTCHAR 0064
ENCODING 100
SWIDTH 552 0
DWIDTH 43 0
BBX 36 59 2 -2
BITMAP
00000003F0
00000003F0
00000003F0
00000003F0
00000003F0
00000003F0
00000003F0
00000003F0
00000003F0
00000003F0
00000003F0
00000003F0
00000003F0
00000003F0
00000003F0
0007FC03F0
003FFF83F0
007FFFC3F0
01FFFFF3F0
03FFFFFBF0
07FFFFFFF0
0FFF03FFF0
0FF800FFF0
1FF0007FF0
1FE0003FF0
3FC0001FF0
3F80000FF0
7F80000FF0
7F000007F0
7F000007F0
7F000007F0
FE000003F0
FE000003F0
FE000003F0
FE000003F0
FE000003F0
FE000003F0
FE000003F0
FE000003F0
FE000003F0
FE000003F0
FE000003F0
FE000003F0
7F000007F0
7F000007F0
7F000007F0
7F80000FF0
3F80000FF0
3FC0001FF0
1FE0003FF0
1FF0007FF0
0FF800FFF0
0FFF03FDF0
07FFFFF9F0
03FFFFF9F0
01FFFFF1F0
007FFFC1F0
003FFF8000
0007FC0000
ENDCHAR
STARTCHAR 0065
ENCODING 101
SWIDTH 552 0
DWIDTH 43 0
BBX 37 44 3 -2
BITMAP
0003FE0000
001FFFC000
007FFFF000
00FFFFFC00
01FFFFFE00
03FFFFFF00
07FE03FF80
0FF800FFC0
0FF0003FC0
1FE0001FE0
3FC0000FE0
3F80000FF0
3F800007F0
7F000007F0
7F000007F0
7F000003F0
7E000003F8
FE000003F8
FE000003F8
FFFFFFFFF8
FFFFFFFFF8
FFFFFFFFF8
FFFFFFFFF8
FFFFFFFFF8
FE00000000
FE00000000
FE00000000
FE00000000
7E00000000
7F00000000
7F000007F0
7F000007F0
3F80000FE0
3FC0000FE0
1FE0001FE0
1FF0003FC0
0FF8007FC0
0FFE03FF80
07FFFFFF00
03FFFFFE00
01FFFFFC00
007FFFF000
001FFFC000
0003FE0000
ENDCHAR
STARTCHAR 0066
ENCODING 102
SWIDTH 282 0
DWIDTH 22 0
BBX 19 57 1 0
BITMAP
000FE0
003FE0
00FFE0
00FFE0
01FFE0
03FFE0
03FC00
03F800
03F000
03F000
03F000
03F000
03F000
03F000
03F000
03F000
FFFFE0
FFFFE0
FFFFE0
FFFFE0
FFFFE0
03F000
03F000
03F000
03F000
03F000
03F000
03F000
03F000
03F000
03F000
03F000
03F000
03F000
03F000
03F000
03F000
03F000
03F000
03F000
03F000
03F000
03F000
03F000
03F000
03F000
03F000
03F000
03F000
03F000
03F000
03F000
03F000
03F000
03F000
03F000
03F000
ENDCHAR
STARTCHAR 0067
ENCODING 103
SWIDTH 552 0
DWIDTH 43 0
BBX 34 59 3 -17
BITMAP
0007F00000
003FFE0FC0
00FFFF0FC0
01FFFFCFC0
03FFFFEFC0
07FFFFEFC0
0FFC0FFFC0
0FF003FFC0
1FE000FFC0
3FC000FFC0
3F80007FC0
3F80003FC0
7F00003FC0
7F00001FC0
7E00001FC0
FE00001FC0
FE00001FC0
FE00000FC0
FE00000FC0
FE00000FC0
FE00000FC0
FE00000FC0
FE00000FC0
FE00000FC0
FE00000FC0
FE00000FC0
FE00000FC0
FE00001FC0
FE00001FC0
FE00001FC0
7F00001FC0
7F00003FC0
7F80003FC0
3F80007FC0
3FC0007FC0
1FE000FFC0
1FF003FFC0
0FFC0FEFC0
07FFFFEFC0
03FFFFCFC0
01FFFF8FC0
00FFFF0FC0
003FFC0FC0
000FF00FC0
0000001FC0
0000001FC0
0000001FC0
7F00001F80
7F00003F80
3F00003F80
3F80007F00
3FC000FF00
1FE001FE00
1FFF3FFC00
0FFFFFFC00
07FFFFF000
01FFFFE000
007FFF8000
000FF80000
ENDCHAR
STARTCHAR 0068
ENCODING 104
SWIDTH 552 0
DWIDTH 43 0
BBX 33 57 5 0
BITMAP
FE00000000
FE00000000
FE00000000
FE00000000
FE00000000
FE00000000
FE00000000
FE00000000
FE00000000
FE00000000
FE00000000
FE00000000
FE00000000
FE00000000
FE00000000
FE00FF0000
FE07FFE000
FE1FFFF800
FE3FFFFC00
FE7FFFFE00
FEFFFFFE00
FFFC03FF00
FFF000FF00
FFE0007F80
FFC0007F80
FF80003F80
FF80003F80
FF00003F80
FF00003F80
FF00003F80
FE00003F80
FE00003F80
FE00003F80
FE00003F80
FE00003F80
FE00003F80
FE00003F80
FE00003F80
FE00003F80
FE00003F80
FE00003F80
FE00003F80
FE00003F80
FE00003F80
FE00003F80
FE00003F80
FE00003F80
FE00003F80
FE00003F80
FE00003F80
FE00003F80
FE00003F80
FE00003F80
FE00003F80
FE00003F80
FE00003F80
FE00003F80
ENDCHAR
STARTCHAR 0069
ENCODING 105
SWIDTH 218 0
DWIDTH 17 0
BBX 7 57 5 0
BITMAP
FE
FE
FE
FE
FE
FE
FE
FE
00
00
00
00
00
00
00
00
FE
FE
FE
FE
FE
FE
FE
FE
FE
FE
FE
FE
FE
FE
FE
FE
FE
FE
FE
FE
FE
FE
FE
FE
FE
FE
FE
FE
FE
FE
FE
FE
FE
FE
FE
FE
FE
FE
FE
FE
FE
ENDCHAR
STARTCHAR 006A
ENCODING 106
SWIDTH 218 0
DWIDTH 17 0
BBX 13 74 -1 -17
BITMAP
03F8
03F8
03F8
03F8
03F8
03F8
03F8
03F8
0000
0000
0000
0000
0000
0000
0000
0000
03F8
03F8
03F8
03F8
03F8
03F8
03F8
03F8
03F8
03F8
03F8
03F8
03F8
03F8
03F8
03F8
03F8
03F8
03F8
03F8
03F8
03F8
03F8
03F8
03F8
03F8
03F8
03F8
03F8
03F8
03F8
03F8
03F8
03F8
03F8
03F8
03F8
03F8
03F8
03F8
03F8
03F8
03F8
03F8
03F8
03F8
03F8
03F8
03F8
03F8
03F8
07F8
FFF0
FFF0
FFE0
FFE0
FF80
FC00
ENDCHAR
STARTCHAR 006B
ENCODING 107
SWIDTH 501 0
DWIDTH 39 0
BBX 34 57 5 0
BITMAP
FC00000000
FC00000000
FC00000000
FC00000000
FC00000000
FC00000000
FC00000000
FC00000000
FC00000000
FC00000000
FC00000000
FC00000000
FC00000000
FC00000000
FC00000000
FC00000000
FC0001FE00
FC0003FC00
FC0007F800
FC000FF000
FC001FE000
FC003FC000
FC007F8000
FC00FF0000
FC01FE0000
FC03FC0000
FC07F80000
FC0FF00000
FC1FE00000
FC3FC00000
FC7FC00000
FCFFC00000
FDFFE00000
FFFFE00000
FFFFF00000
FFF7F80000
FFE7F80000
FFC3FC0000
FF81FE0000
FF01FE0000
FE00FF0000
FC00FF0000
FC007F8000
FC003FC000
FC003FC000
FC001FE000
FC000FF000
FC000FF000
FC0007F800
FC0007F800
FC0003FC00
FC0001FE00
FC0001FE00
FC0000FF00
FC0000FF00
FC00007F80
FC00003FC0
ENDCHAR
STARTCHAR 006C
ENCODING 108
SWIDTH 218 0
DWIDTH 17 0
BBX 7 57 5 0
BITMAP
FE
FE
FE
FE
FE
FE
FE
FE
FE
FE
FE
FE
FE
FE
FE
FE
FE
FE
FE
FE
FE
FE
FE
FE
FE
FE
FE
FE
FE
FE
FE
FE
FE
FE
FE
FE
FE
FE
FE
FE
FE
FE
FE
FE
FE
FE
FE
FE
FE
FE
FE
FE
FE
FE
FE
FE
FE
ENDCHAR
STARTCHAR 006D
ENCODING 109
SWIDTH 835 0
DWIDTH 65 0
BBX 54 42 5 0
BITMAP
0003FE0003FE00
FC0FFFC01FFF80
FC3FFFE03FFFE0
FC7FFFF07FFFF0
FCFFFFF8FFFFF8
FDFFFFFDFFFFF8
FDF80FFFF80FFC
FFE003FFE007FC
FFC001FFC003FC
FF8001FF8001FC
FF8000FF0001FC
FF0000FF0001FC
FF0000FE0000FC
FE0000FE0000FC
FE0000FE0000FC
FE0000FE0000FC
FE0000FE0000FC
FE0000FE0000FC
FE0000FE0000FC
FE0000FE0000FC
FE0000FE0000FC
FE0000FE0000FC
FE0000FE0000FC
FE0000FE0000FC
FE0000FE0000FC
FE0000FE0000FC
FE0000FE0000FC
FE0000FE0000FC
FE0000FE0000FC
FE0000FE0000FC
FE0000FE0000FC
FE0000FE0000FC
FE0000FE0000FC
FE0000FE0000FC
FE0000FE0000FC
FE0000FE0000FC
FE0000FE0000FC
FE0000FE0000FC
FE0000FE0000FC
FE0000FE0000FC
FE0000FE0000FC
FE0000FE0000FC
ENDCHAR
STARTCHAR 006E
ENCODING 110
SWIDTH 552 0
DWIDTH 43 0
BBX 33 42 5 0
BITMAP
0001FF0000
FC07FFE000
FC1FFFF800
FC3FFFFC00
FC7FFFFE00
FCFFFFFE00
FDFC03FF00
FDF000FF00
FFE0007F80
FFC0007F80
FF80003F80
FF80003F80
FF00003F80
FF00003F80
FF00003F80
FE00003F80
FE00003F80
FE00003F80
FE00003F80
FE00003F80
FE00003F80
FE00003F80
FE00003F80
FE00003F80
FE00003F80
FE00003F80
FE00003F80
FE00003F80
FE00003F80
FE00003F80
FE00003F80
FE00003F80
FE00003F80
FE00003F80
FE00003F80
FE00003F80
FE00003F80
FE00003F80
FE00003F80
FE00003F80
FE00003F80
FE00003F80
ENDCHAR
STARTCHAR 006F
ENCODING 111
SWIDTH 552 0
DWIDTH 43 0
BBX 37 44 3 -2
BITMAP
0003FE0000
003FFFC000
007FFFF000
01FFFFFC00
03FFFFFE00
07FFFFFF00
0FFE03FF00
1FF800FF80
1FE0007FC0
3FC0003FC0
3FC0001FE0
3F80000FE0
7F00000FE0
7F00000FF0
7F000007F0
FE000007F0
FE000007F0
FE000003F0
FE000003F8
FE000003F8
FE000003F8
FE000003F8
FE000003F8
FE000003F8
FE000003F8
FE000003F8
FE000003F0
FE000007F0
FE000007F0
7F000007F0
7F000007F0
7F00000FE0
7F80000FE0
3FC0001FE0
3FC0003FC0
1FE0007FC0
1FF800FF80
0FFE03FF00
07FFFFFF00
03FFFFFE00
01FFFFF800
00FFFFF000
003FFFC000
0003FE0000
ENDCHAR
STARTCHAR 0070
ENCODING 112
SWIDTH 552 0
DWIDTH 43 0
BBX 37 59 4 -17
BITMAP
0001FF0000
FC0FFFC000
FC1FFFF000
FC7FFFFC00
FCFFFFFE00
FDFFFFFF00
FDFE07FF00
FFF801FF80
FFF0007FC0
FFE0003FC0
FFC0001FE0
FF80001FE0
FF80000FE0
FF00000FF0
FF000007F0
FF000007F0
FE000007F0
FE000003F0
FE000003F8
FE000003F8
FE000003F8
FE000003F8
FE000003F8
FE000003F8
FE000003F8
FE000003F8
FE000003F0
FE000007F0
FF000007F0
FF000007F0
FF00000FF0
FF80000FE0
FF80001FE0
FFC0001FE0
FFE0003FC0
FFF0007FC0
FFF800FF80
FFFE07FF00
FFFFFFFF00
FEFFFFFE00
FE7FFFFC00
FE3FFFF000
FE0FFFC000
FE01FE0000
FE00000000
FE00000000
FE00000000
FE00000000
FE00000000
FE00000000
FE00000000
FE00000000
FE00000000
FE00000000
FE00000000
FE00000000
FE00000000
FE00000000
FE00000000
ENDCHAR
STARTCHAR 0071
ENCODING 113
SWIDTH 552 0
DWIDTH 43 0
BBX 36 59 2 -17
BITMAP
0003FC0000
001FFF81F0
007FFFE1F0
00FFFFF1F0
03FFFFF9F0
07FFFFFDF0
07FF03FFF0
0FF800FFF0
1FF0007FF0
1FE0003FF0
3FC0001FF0
3F80000FF0
3F80000FF0
7F000007F0
7F000007F0
7F000007F0
7E000007F0
FE000003F0
FE000003F0
FE000003F0
FE000003F0
FE000003F0
FE000003F0
FE000003F0
FE000003F0
FE000003F0
FE000003F0
FE000003F0
7F000007F0
7F000007F0
7F000007F0
7F80000FF0
3F80000FF0
3FC0001FF0
3FE0003FF0
1FF0007FF0
1FF800FFF0
0FFF03FFF0
07FFFFFBF0
03FFFFF3F0
01FFFFE3F0
00FFFFC3F0
003FFF83F0
0007FC03F0
00000003F0
00000003F0
00000003F0
00000003F0
00000003F0
00000003F0
00000003F0
00000003F0
00000003F0
00000003F0
00000003F0
00000003F0
00000003F0
00000003F0
00000003F0
ENDCHAR
STARTCHAR 0072
ENCODING 114
SWIDTH 334 0
DWIDTH 26 0
BBX 20 42 5 0
BITMAP
0003F0
FC07F0
FC1FF0
FC3FF0
FC7FF0
FCFFF0
FCFFF0
FDFC00
FFF000
FFE000
FFC000
FF8000
FF0000
FF0000
FF0000
FE0000
FE0000
FE0000
FE0000
FE0000
FE0000
FE0000
FE0000
FE0000
FE0000
FE0000
FE0000
FE0000
FE0000
FE0000
FE0000
FE0000
FE0000
FE0000
FE0000
FE0000
FE0000
FE0000
FE0000
FE0000
FE0000
FE0000
ENDCHAR
STARTCHAR 0073
ENCODING 115
SWIDTH 501 0
DWIDTH 39 0
BBX 33 44 3 -2
BITMAP
000FF80000
00FFFF0000
03FFFFC000
07FFFFE000
0FFFFFF000
1FFFFFF800
3FF00FFC00
3FC003FC00
7F8001FE00
7F0001FE00
7F0000FE00
7E0000FE00
7E0000FE00
7F00000000
7F00000000
7F80000000
7FC0000000
3FF8000000
3FFF800000
1FFFF80000
0FFFFF0000
03FFFFE000
00FFFFF800
003FFFFC00
0003FFFE00
00003FFE00
000003FF00
000000FF00
0000007F80
0000003F80
FE00003F80
FE00003F80
FE00003F80
FE00003F00
FF00007F00
7F8000FF00
7FC001FE00
7FF807FE00
3FFFFFFC00
1FFFFFF800
0FFFFFF000
07FFFFE000
01FFFF0000
003FF80000
ENDCHAR
STARTCHAR 0074
ENCODING 116
SWIDTH 282 0
DWIDTH 22 0
BBX 19 54 1 -2
BITMAP
03F000
03F000
03F000
03F000
03F000
03F000
03F000
03F000
03F000
03F000
03F000
FFFFE0
FFFFE0
FFFFE0
FFFFE0
FFFFE0
03F000
03F000
03F000
03F000
03F000
03F000
03F000
03F000
03F000
03F000
03F000
03F000
03F000
03F000
03F000
03F000
03F000
03F000
03F000
03F000
03F000
03F000
03F000
03F000
03F000
03F000
03F000
03F000
03F000
03F000
03F000
03F800
03FFE0
03FFE0
03FFE0
01FFE0
00FFE0
003FE0
ENDCHAR
STARTCHAR 0075
ENCODING 117
SWIDTH 552 0
DWIDTH 43 0
BBX 32 43 5 -2
BITMAP
FE00003F
FE00003F
FE00003F
FE00003F
FE00003F
FE00003F
FE00003F
FE00003F
FE00003F
FE00003F
FE00003F
FE00003F
FE00003F
FE00003F
FE00003F
FE00003F
FE00003F
FE00003F
FE00003F
FE00003F
FE00003F
FE00003F
FE00003F
FE00003F
FE00003F
FE00003F
FE00003F
FE00003F
FE00007F
FE00007F
FE00007F
FE0000FF
FE0000FF
FF0001FF
FF0003FF
7F8007FF
7FE01FDF
7FFFFF9F
3FFFFF1F
1FFFFE1F
0FFFFC1F
03FFF000
007F8000
ENDCHAR
STARTCHAR 0076
ENCODING 118
SWIDTH 501 0
DWIDTH 39 0
BBX 37 41 1 0
BITMAP
FE000007F8
FF000007F0
7F000007F0
7F00000FE0
7F80000FE0
3F80000FE0
3F80001FC0
3FC0001FC0
1FC0001FC0
1FC0003F80
1FE0003F80
0FE0003F00
0FE0007F00
0FF0007F00
07F000FE00
07F000FE00
03F000FC00
03F801FC00
03F801FC00
01F801F800
01FC03F800
01FC03F800
00FC03F000
00FE07F000
00FE07E000
007E07E000
007F0FE000
007F0FC000
003F0FC000
003F9FC000
003F9F8000
001F9F8000
001FFF0000
001FFF0000
000FFF0000
000FFE0000
000FFE0000
0007FC0000
0007FC0000
0003FC0000
0003F80000
ENDCHAR
STARTCHAR 0077
ENCODING 119
SWIDTH 720 0
DWIDTH 56 0
BBX 54 41 1 0
BITMAP
FE0001FE0001FC
FE0003FE0003FC
FE0003FE0003F8
FF0003FF0003F8
7F0003FF0003F8
7F0007FF0007F0
7F0007FF0007F0
3F8007FF8007F0
3F8007FF8007F0
3F800FDF800FE0
3F800FDF800FE0
1FC00FDFC00FE0
1FC00FDFC00FC0
1FC01F8FC01FC0
0FC01F8FC01FC0
0FE01F8FE01FC0
0FE01F8FE01F80
0FE03F07E03F80
07E03F07E03F80
07F03F07F03F00
07F03F07F03F00
03F07E03F07F00
03F07E03F07E00
03F87E03F87E00
01F87E03F87E00
01F87C01F8FE00
01FCFC01F8FC00
01FCFC01FCFC00
00FCFC01FCFC00
00FCF800FDF800
00FFF800FDF800
007FF800FFF800
007FF800FFF800
007FF0007FF000
007FF0007FF000
003FF0007FF000
003FF0003FE000
003FE0003FE000
001FE0003FE000
001FE0003FE000
001FE0001FC000
ENDCHAR
STARTCHAR 0078
ENCODING 120
SWIDTH 501 0
DWIDTH 39 0
BBX 34 41 2 0
BITMAP
FF00001FC0
7F00003F80
3F80007F80
3FC0007F00
1FC000FE00
0FE001FE00
0FF001FC00
07F003F800
03F807F800
01FC07F000
01FC0FE000
00FE0FC000
007F1FC000
007F3F8000
003FBF0000
001FFF0000
001FFE0000
000FFC0000
0007FC0000
0007F80000
0007F80000
0007FC0000
000FFE0000
001FFE0000
001FFF0000
003FFF8000
007F3F8000
007F3FC000
00FE1FE000
01FC0FE000
01FC0FF000
03F807F000
07F003F800
0FF003FC00
0FE001FC00
1FC000FE00
3FC000FF00
3F80007F00
7F00003F80
FF00003FC0
FE00001FC0
ENDCHAR
STARTCHAR 0079
ENCODING 121
SWIDTH 501 0
DWIDTH 39 0
BBX 35 58 2 -17
BITMAP
FE00000FE0
FE00000FE0
FE00001FC0
7F00001FC0
7F00001FC0
7F00003F80
3F80003F80
3F80003F00
3F80007F00
1FC0007F00
1FC000FE00
1FC000FE00
0FE000FE00
0FE001FC00
0FE001FC00
07F001FC00
07F003F800
07F003F800
03F803F000
03F807F000
03F807F000
01FC07E000
01FC0FE000
01FC0FE000
00FC0FC000
00FE1FC000
00FE1F8000
007E3F8000
007F3F8000
007F3F0000
003F7F0000
003FFF0000
003FFE0000
001FFE0000
001FFE0000
001FFC0000
000FFC0000
000FF80000
000FF80000
0007F80000
0007F00000
0007F00000
0007F00000
000FE00000
000FE00000
000FE00000
001FC00000
001FC00000
003F800000
003F800000
007F800000
39FF000000
3FFF000000
3FFE000000
3FFC000000
3FF8000000
3FF0000000
1FC0000000
ENDCHAR
STARTCHAR 007A
ENCODING 122
SWIDTH 501 0
DWIDTH 39 0
BBX 34 41 2 0
BITMAP
3FFFFFFF00
3FFFFFFF00
3FFFFFFF00
3FFFFFFF00
3FFFFFFF00
3FFFFFFF00
000000FF00
000001FE00
000003FC00
000003F800
000007F800
00000FF000
00001FE000
00003FC000
00007F8000
00007F0000
0000FF0000
0001FE0000
0003FC0000
0007F80000
0007F00000
000FF00000
001FE00000
003FC00000
007F800000
00FF000000
00FE000000
01FE000000
03FC000000
07F8000000
0FF0000000
1FE0000000
1FE0000000
3FC0000000
7F80000000
FFFFFFFFC0
FFFFFFFFC0
FFFFFFFFC0
FFFFFFFFC0
FFFFFFFFC0
FFFFFFFFC0
ENDCHAR
STARTCHAR 007B
ENCODING 123
SWIDTH 334 0
DWIDTH 26 0
BBX 18 73 3 -16
BITMAP
000FC0
003FC0
007FC0
00FFC0
00FFC0
01FC00
01F800
01F800
01F800
03F000
03F000
03F000
03F000
03F000
03F000
03F000
03F000
03F000
03F000
03F000
03F000
03F000
03F000
03F000
03F000
03F000
03F000
03F000
03F000
03F000
07F000
07E000
0FE000
3FC000
FF8000
FF0000
FC0000
FF0000
FF8000
7FC000
1FE000
0FE000
07E000
03F000
03F000
03F000
03F000
03F000
03F000
03F000
03F000
03F000
03F000
03F000
03F000
03F000
03F000
03F000
03F000
03F000
03F000
03F000
03F000
03F000
03F800
01F800
01F800
01FC00
01FFC0
00FFC0
007FC0
003FC0
001FC0
ENDCHAR
STARTCHAR 007C
ENCODING 124
SWIDTH 257 0
DWIDTH 20 0
BBX 4 73 8 -16
BITMAP
F0
F0
F0
F0
F0
F0
F0
F0
F0
F0
F0
F0
F0
F0
F0
F0
F0
F0
F0
F0
F0
F0
F0
F0
F0
F0
F0
F0
F0
F0
F0
F0
F0
F0
F0
F0
F0
F0
F0
F0
F0
F0
F0
F0
F0
F0
F0
F0
F0
F0
F0
F0
F0
F0
F0
F0
F0
F0
F0
F0
F0
F0
F0
F0
F0
F0
F0
F0
F0
F0
F0
F0
F0
ENDCHAR
STARTCHAR 007D
ENCODING 125
SWIDTH 334 0
DWIDTH 26 0
BBX 18 73 2 -16
BITMAP
FE0000
FF8000
FFC000
FFE000
FFE000
0FF000
03F000
03F000
03F000
03F000
03F000
03F000
03F000
03F000
03F000
03F000
03F000
03F000
03F000
03F000
03F000
03F000
03F000
03F000
03F800
01F800
01F800
01F800
01F800
01F800
01FC00
00FC00
00FE00
007F80
003FC0
001FC0
000FC0
001FC0
003FC0
007FC0
00FE00
00FC00
01FC00
01F800
01F800
01F800
01F800
01F800
01F800
03F000
03F000
03F000
03F000
03F000
03F000
03F000
03F000
03F000
03F000
03F000
03F000
03F000
03F000
03F000
03F000
03F000
03F000
07F000
FFE000
FFE000
FFC000
FF8000
FE0000
ENDCHAR
STARTCHAR 007E
ENCODING 126
SWIDTH 578 0
DWIDTH 45 0
BBX 34 13 6 21
BITMAP
07E0000000
0FF8000000
1FFE0007C0
3FFF0007C0
7FFFC00780
7E7FF00780
7C0FF80780
F807FE0F80
F001FFFF80
F000FFFF00
F0003FFE00
00001FFC00
000007F800
ENDCHAR
STARTCHAR 00A0
ENCODING 160
SWIDTH 282 0
DWIDTH 22 0
BBX 0 0 0 0
BITMAP
ENDCHAR
STARTCHAR 00A1
ENCODING 161
SWIDTH 334 0
DWIDTH 26 0
BBX 7 57 9 -16
BITMAP
FE
FE
FE
FE
FE
FE
FE
FE
00
00
00
00
00
38
38
38
3C
3C
3C
3C
7C
7C
7C
7C
7C
7C
7E
7E
7E
7E
FE
FE
FE
FE
FE
FE
FE
FE
FE
FE
FE
FE
FE
FE
FE
FE
FE
FE
FE
FE
FE
FE
FE
FE
FE
FE
FE
ENDCHAR
STARTCHAR 00A2
ENCODING 162
SWIDTH 552 0
DWIDTH 43 0
BBX 36 58 4 -9
BITMAP
0000700000
0000700000
0000700000
0000700000
0000700000
0000700000
0000700000
0001FE0000
000FFFE000
003FFFF800
00FFFFFC00
01FFFFFE00
03FFFFFF00
07FF73FF80
0FF8707F80
0FF0703FC0
1FE0701FC0
3FC0701FE0
3F80700FE0
3F80700FE0
7F00700FE0
7F007007E0
7F00700000
7E00700000
FE00700000
FE00700000
FE00700000
FE00700000
FE00700000
FE00700000
FE00700000
FE00700000
FE00700000
FE00700000
FE00700000
7F007007F0
7F007007F0
7F007007E0
7F80700FE0
3F80700FE0
3FC0701FE0
1FE0701FC0
1FF0703FC0
0FF8707F80
07FF73FF80
03FFFFFF00
01FFFFFE00
00FFFFFC00
007FFFF000
000FFFC000
0001FC0000
0000700000
0000700000
0000700000
0000700000
0000700000
0000700000
0000700000
ENDCHAR
STARTCHAR 00A3
ENCODING 163
SWIDTH 552 0
DWIDTH 43 0
BBX 40 59 2 -2
BITMAP
0000FF8000
0007FFF800
001FFFFC00
007FFFFF00
00FFFFFF80
01FFFFFFC0
03FF80FFE0
07FC003FF0
07F8000FF0
0FF0000FF8
0FE00007F8
1FC00003F8
1FC00003F8
1FC00003FC
3FC00001FC
3F800001FC
3F800001FC
3FC00001FC
3FC0000000
3FC0000000
1FC0000000
1FE0000000
1FE0000000
0FF0000000
0FF0000000
07F8000000
03F8000000
03FC000000
FFFFFFC000
FFFFFFC000
FFFFFFC000
FFFFFFC000
007F000000
007F000000
003F800000
003F800000
003F800000
003F800000
003F800000
003F800000
003F800000
003F000000
003F000000
007E000000
007C000000
00FC000000
01F8000000
03F0000000
07E0000000
0FC3F80000
1F9FFF0018
3F7FFFE0FC
7FFFFFFFFC
7FFFFFFFFE
3FFFFFFFFF
1F807FFFFE
1E000FFFF8
080003FFF0
0000007F80
ENDCHAR
STARTCHAR 00A4
ENCODING 164
SWIDTH 552 0
DWIDTH 43 0
BBX 32 33 6 10
BITMAP
10000010
38000038
7C0FE07C
FE7FFCFE
FFFFFFFF
7FFFFFFE
3FFFFFFC
1FFFFFF8
1FF83FF0
1FE00FF0
3FC007F8
3F8003F8
3F0001F8
7F0001FC
7E0001FC
7E0000FC
7E0000FC
7E0000FC
7E0001FC
7F0001F8
7F0001F8
3F8003F8
3FC007F8
1FE00FF0
1FF83FF0
1FFFFFF8
3FFFFFFC
7FFFFFFE
FFFFFFFF
7F7FFCFE
3E1FE07C
1C000038
08000010
ENDCHAR
STARTCHAR 00A5
ENCODING 165
SWIDTH 552 0
DWIDTH 43 0
BBX 41 56 1 0
BITMAP
FC0000001F80
FE0000003F80
7F0000003F00
3F0000007F00
3F8000007E00
1F800000FE00
1FC00001FC00
0FE00001F800
0FE00003F800
07F00003F000
03F00007F000
03F80007E000
01F8000FE000
01FC000FC000
00FE001F8000
007E003F8000
007F003F0000
003F007F0000
003F807E0000
001F80FE0000
001FC0FC0000
000FE1F80000
0007E3F80000
0007F3F00000
0003F7F00000
0003FFE00000
0001FFE00000
0001FFC00000
0FFFFFFFF800
0FFFFFFFF800
0FFFFFFFF800
0FFFFFFFF800
00007F000000
00007F000000
00007F000000
00007F000000
00007F000000
00007F000000
0FFFFFFFF800
0FFFFFFFF800
0FFFFFFFF800
0FFFFFFFF800
00007F000000
00007F000000
00007F000000
00007F000000
00007F000000
00007F000000
00007F000000
00007F000000
00007F000000
00007F000000
00007F000000
00007F000000
00007F000000
00007F000000
ENDCHAR
STARTCHAR 00A6
ENCODING 166
SWIDTH 257 0
DWIDTH 20 0
BBX 4 73 8 -16
BITMAP
F0
F0
F0
F0
F0
F0
F0
F0
F0
F0
F0
F0
F0
F0
F0
F0
F0
F0
F0
F0
F0
F0
F0
F0
F0
F0
F0
F0
F0
F0
F0
00
00
00
00
00
00
00
00
00
00
00
F0
F0
F0
F0
F0
F0
F0
F0
F0
F0
F0
F0
F0
F0
F0
F0
F0
F0
F0
F0
F0
F0
F0
F0
F0
F0
F0
F0
F0
F0
F0
ENDCHAR
STARTCHAR 00A7
ENCODING 167
SWIDTH 552 0
DWIDTH 43 0
BBX 36 74 3 -17
BITMAP
0000FF0000
0007FFC000
001FFFF000
003FFFF800
007FFFFC00
00FFFFFE00
01FF03FE00
03FE00FF00
03FC007F00
03F8003F80
07F0003F80
07F0003F80
07F0001F80
07F0001F80
07F8001F80
07F8001F80
03FC000000
03FE000000
01FF000000
01FFC00000
00FFE00000
00FFF80000
03FFFC0000
07FFFF0000
0FE3FFC000
1F81FFE000
3F00FFF800
7F003FFC00
7E001FFE00
7E0007FF00
7E0003FF80
FE0000FFC0
FE00007FE0
FE00003FE0
7E00001FF0
7F00000FF0
7F800007F0
7FC00003F0
3FE00003F0
3FF00003F0
1FF80003F0
0FFE0003F0
0FFF0003F0
03FF8003F0
01FFE007E0
00FFF007E0
003FF80FE0
001FFE1FC0
000FFF7F80
0003FFFF00
0001FFFC00
00007FF000
00003FF800
00000FFC00
000007FC00
000003FE00
000001FE00
000000FF00
1FC000FF00
1FC0007F00
1FC0007F00
1FC0007F00
1FC0007F00
1FC0007F00
0FE000FE00
0FF000FE00
0FF801FE00
07FE07FC00
03FFFFF800
03FFFFF800
01FFFFF000
007FFFC000
003FFF0000
0007FC0000
ENDCHAR
STARTCHAR 00A8
ENCODING 168
SWIDTH 334 0
DWIDTH 26 0
BBX 21 8 2 48
BITMAP
FF07F8
FF07F8
FF07F8
FF07F8
FF07F8
FF07F8
FF07F8
FF07F8
ENDCHAR
STARTCHAR 00A9
ENCODING 169
SWIDTH 732 0
DWIDTH 57 0
BBX 59 60 -1 -2
BITMAP
0000007FE0000000
000007FFFE000000
00003FFFFFC00000
0000FFFFFFF00000
0003FFFFFFF80000
0007FF001FFE0000
001FF80003FF0000
003FE000007F8000
007F8000003FC000
00FF0000000FE000
01FC00000007F000
03F800000003F800
03F0001FC001FC00
07E000FFF800FE00
0FE003FFFC007E00
0FC007FFFE003F00
1F800FFFFF003F00
1F801FE03F801F80
3F003F801F801F80
3F003F000FC00FC0
3E007E000FC00FC0
7E007C0007E007C0
7C00FC0007E007E0
7C00F80003E007E0
7C00F800000003E0
FC00F800000003E0
FC01F800000003E0
F801F800000003E0
F801F000000003E0
F801F000000003E0
F801F000000003E0
F801F800000003E0
F801F800000003E0
FC01F800000003E0
FC01F80003F003E0
7C00F80003F003E0
7C00FC0003E007E0
7E00FC0007E007C0
7E007E0007E007C0
3E007E000FC00FC0
3F003F000FC00F80
3F003F801F801F80
1F801FE07F801F80
1F800FFFFF003F00
0FC007FFFE003F00
0FE003FFFC007E00
07F000FFF000FC00
03F0003FC001FC00
01F800000003F800
01FE00000007F000
00FF0000000FE000
007F8000003FC000
003FE000007F8000
001FF80003FF0000
0007FF001FFE0000
0003FFFFFFF80000
0000FFFFFFE00000
00003FFFFF800000
00000FFFFE000000
000000FFE0000000
ENDCHAR
STARTCHAR 00AA
ENCODING 170
SWIDTH 372 0
DWIDTH 29 0
BBX 23 34 3 24
BITMAP
01FE00
0FFFC0
1FFFE0
3FFFF0
3F03F0
7C01F0
7C00F0
7C00F0
0000F0
0000F0
0001F0
00FFF0
0FFFF0
1FFFF0
3FFCF0
7F00F0
FC00F0
F800F0
F000F0
F000F0
F801F0
F803F0
FC0FF8
7FFFFE
3FFEFE
1FFC7E
07E018
000000
000000
000000
FFFFFC
FFFFFC
FFFFFC
FFFFFC
ENDCHAR
STARTCHAR 00AB
ENCODING 171
SWIDTH 552 0
DWIDTH 43 0
BBX 27 25 8 8
BITMAP
00200020
00600060
00E000E0
01E001E0
03E003E0
07E00FE0
1FE01FE0
3FC03FC0
7F807F80
FE00FE00
FC00FC00
F800F800
F000F000
F000F000
F800F800
FE00FE00
FF00FF00
7F807F80
3FC03FC0
0FE01FE0
07E007E0
03E003E0
01E001E0
00600060
00200020
ENDCHAR
STARTCHAR 00AC
ENCODING 172
SWIDTH 578 0
DWIDTH 45 0
BBX 39 22 3 7
BITMAP
FFFFFFFFFE
FFFFFFFFFE
FFFFFFFFFE
FFFFFFFFFE
FFFFFFFFFE
000000003E
000000003E
000000003E
000000003E
000000003E
000000003E
000000003E
000000003E
000000003E
000000003E
000000003E
000000003E
000000003E
000000003E
000000003E
000000003E
000000003E
ENDCHAR
STARTCHAR 00AD
ENCODING 173
SWIDTH 334 0
DWIDTH 26 0
BBX 18 6 4 18
BITMAP
FFFFC0
FFFFC0
FFFFC0
FFFFC0
FFFFC0
FFFFC0
ENDCHAR
STARTCHAR 00AE
ENCODING 174
SWIDTH 732 0
DWIDTH 57 0
BBX 59 60 -1 -2
BITMAP
0000007FE0000000
00000FFFFE000000
00003FFFFFC00000
0000FFFFFFF00000
0003FFFFFFFC0000
0007FF001FFE0000
001FF80003FF0000
003FE000007F8000
007F8000003FE000
00FE0000000FF000
01FC00000007F000
03F800000003F800
03F07FFFF801FC00
07E07FFFFF00FE00
0FC07FFFFF807E00
0FC07FFFFFC03F00
1F807FFFFFE03F00
1F007C001FE01F80
3F007C0007E01F80
3F007C0007F00FC0
3E007C0003F00FC0
7E007C0003F007C0
7C007C0003F007E0
7C007C0003F007E0
7C007C0003F003E0
FC007C0003E003E0
FC007C0007E003E0
F8007C001FC003E0
F8007FFFFFC003E0
F8007FFFFF0003E0
F8007FFFFF0003E0
F8007FFFFF8003E0
F8007FFFFFC003E0
FC007C001FC003E0
FC007C0007E003E0
FC007C0007E003E0
7C007C0007E007E0
7C007C0003E007E0
7E007C0003E007C0
3E007C0003E00FC0
3F007C0007E00FC0
3F007C0007E00F80
1F807C0003E01F80
1F807C0003E03F00
0FC07C0003F03F00
0FE07C0003F87E00
07E07C0003F8FE00
03F000000001FC00
03F800000003F800
01FC00000007F000
00FF0000000FE000
007F8000001FC000
003FE000007F8000
001FF80003FF0000
0007FF001FFE0000
0003FFFFFFF80000
0000FFFFFFF00000
00003FFFFFC00000
00000FFFFE000000
000000FFE0000000
ENDCHAR
STARTCHAR 00AF
ENCODING 175
SWIDTH 334 0
DWIDTH 26 0
BBX 21 5 2 49
BITMAP
FFFFF8
FFFFF8
FFFFF8
FFFFF8
FFFFF8
ENDCHAR
STARTCHAR 00B0
ENCODING 176
SWIDTH 398 0
DWIDTH 31 0
BBX 23 23 4 30
BITMAP
01FF00
07FFC0
0FFFE0
1FFFF0
3F83F8
7E00FC
7C007C
F8003E
F8003E
F0001E
F0001E
F0001E
F0001E
F8001E
F8003E
7C003E
7C007C
3F01FC
3FEFF8
1FFFF0
0FFFE0
03FF80
00FE00
ENDCHAR
STARTCHAR 00B1
ENCODING 177
SWIDTH 578 0
DWIDTH 45 0
BBX 38 49 4 -1
BITMAP
0000F80000
0000F80000
0000F80000
0000F80000
0000F80000
0000F80000
0000F80000
0000F80000
0000F80000
0000F80000
0000F80000
0000F80000
0000F80000
0000F80000
0000F80000
0000F80000
FFFFFFFFFC
FFFFFFFFFC
FFFFFFFFFC
FFFFFFFFFC
FFFFFFFFFC
0000F80000
0000F80000
0000F80000
0000F80000
0000F80000
0000F80000
0000F80000
0000F80000
0000F80000
0000F80000
0000F80000
0000F80000
0000F80000
0000F80000
0000F80000
0000F80000
0000000000
0000000000
0000000000
0000000000
0000000000
0000000000
0000000000
FFFFFFFFFC
FFFFFFFFFC
FFFFFFFFFC
FFFFFFFFFC
FFFFFFFFFC
ENDCHAR
STARTCHAR 00B2
ENCODING 178
SWIDTH 334 0
DWIDTH 26 0
BBX 24 33 1 22
BITMAP
00FF00
03FFE0
0FFFF0
1FFFF8
3FC3FC
3F00FE
7E003E
7C003E
7C001F
7C001F
7C001F
78001F
00003E
00007E
00007C
0001FC
0007F8
001FF0
003FC0
00FF80
03FE00
07F800
0FE000
1F8000
3F0000
7E0000
7C0000
7C0000
FC0000
FFFFFE
FFFFFE
FFFFFE
FFFFFE
ENDCHAR
STARTCHAR 00B3
ENCODING 179
SWIDTH 334 0
DWIDTH 26 0
BBX 23 34 1 21
BITMAP
01FE00
07FFC0
0FFFE0
1FFFF0
3F83F8
7E00FC
7C007C
7C007C
F8007C
F8007C
F8007C
00007C
0000FC
0001F8
007FF0
007FE0
007FE0
007FF8
0003FC
00007C
00003E
00003E
00003E
F0003E
F8003E
F8003E
F8003E
FC007E
7C00FC
7F01FC
3FFFF8
1FFFF0
0FFFC0
01FF00
ENDCHAR
STARTCHAR 00B4
ENCODING 180
SWIDTH 334 0
DWIDTH 26 0
BBX 16 12 7 46
BITMAP
01FF
01FE
03FC
07F8
07F0
0FE0
1FC0
1F80
3F00
7E00
7C00
F800
ENDCHAR
STARTCHAR 00B5
ENCODING 181
SWIDTH 552 0
DWIDTH 43 0
BBX 37 58 5 -17
BITMAP
FE00003F00
FE00003F00
FE00003F00
FE00003F00
FE00003F00
FE00003F00
FE00003F00
FE00003F00
FE00003F00
FE00003F00
FE00003F00
FE00003F00
FE00003F00
FE00003F00
FE00003F00
FE00003F00
FE00003F00
FE00003F00
FE00003F00
FE00003F00
FE00003F00
FE00003F00
FE00003F00
FE00003F00
FE00003F00
FE00003F00
FE00003F00
FE00003F00
FE00007F00
FE00007F00
FE00007F00
FE0000FF00
FE0000FF00
FF0001FF00
FF0003FF00
FF8007FF80
FFE01FFF80
FFFFFFBFE8
FFFFFFBFF8
FFFFFE1FF8
FFFFFC1FF8
FFFFF00FF8
FE3FC003F8
FE00000000
FE00000000
FE00000000
FE00000000
FE00000000
FE00000000
FE00000000
FE00000000
FE00000000
FE00000000
FE00000000
FE00000000
FE00000000
FE00000000
FE00000000
ENDCHAR
STARTCHAR 00B6
ENCODING 182
SWIDTH 540 0
DWIDTH 42 0
BBX 37 70 4 -13
BITMAP
0007FFFFF8
003FFFFFF8
00FFFFFFF8
01FFFFFFF8
03FFFFFFF8
07FFF81F00
0FFFF81F00
1FFFF81F00
1FFFF81F00
3FFFF81F00
7FFFF81F00
7FFFF81F00
7FFFF81F00
FFFFF81F00
FFFFF81F00
FFFFF81F00
FFFFF81F00
FFFFF81F00
FFFFF81F00
FFFFF81F00
FFFFF81F00
FFFFF81F00
FFFFF81F00
FFFFF81F00
7FFFF81F00
7FFFF81F00
7FFFF81F00
3FFFF81F00
3FFFF81F00
1FFFF81F00
0FFFF81F00
0FFFF81F00
07FFF81F00
01FFF81F00
00FFF81F00
003FF81F00
0001F81F00
0000F81F00
0000F81F00
0000F81F00
0000F81F00
0000F81F00
0000F81F00
0000F81F00
0000F81F00
0000F81F00
0000F81F00
0000F81F00
0000F81F00
0000F81F00
0000F81F00
0000F81F00
0000F81F00
0000F81F00
0000F81F00
0000F81F00
0000F81F00
0000F81F00
0000F81F00
0000F81F00
0000F81F00
0000F81F00
0000F81F00
0000F81F00
0000F81F00
0000F81F00
0000F81F00
0000F81F00
0000F81F00
0000F81F00
ENDCHAR
STARTCHAR 00B7
ENCODING 183
SWIDTH 282 0
DWIDTH 22 0
BBX 8 8 9 18
BITMAP
FF
FF
FF
FF
FF
FF
FF
FF
ENDCHAR
STARTCHAR 00B8
ENCODING 184
SWIDTH 334 0
DWIDTH 26 0
BBX 19 17 3 -17
BITMAP
003800
007000
007000
00E000
00FF00
01FFC0
01FFE0
010FE0
0007E0
0007E0
0007E0
6007E0
7007E0
FE1FC0
FFFF80
1FFF00
07FC00
ENDCHAR
STARTCHAR 00B9
ENCODING 185
SWIDTH 334 0
DWIDTH 26 0
BBX 13 33 4 22
BITMAP
0078
0078
00F8
00F8
01F8
07F8
FFF8
FFF8
FFF8
FFF8
00F8
00F8
00F8
00F8
00F8
00F8
00F8
00F8
00F8
00F8
00F8
00F8
00F8
00F8
00F8
00F8
00F8
00F8
00F8
00F8
00F8
00F8
00F8
ENDCHAR
STARTCHAR 00BA
ENCODING 186
SWIDTH 360 0
DWIDTH 28 0
BBX 22 34 3 24
BITMAP
00FE00
07FF80
0FFFC0
1FFFE0
3F87F0
3E01F8
7C00F8
7C00F8
78007C
F8007C
F8007C
F8003C
F8003C
F8003C
F8003C
F8003C
F8007C
F8007C
78007C
7C0078
7C00F8
3E01F8
3F87F0
1FFFE0
0FFFC0
07FF80
01FE00
000000
000000
000000
7FFFF8
7FFFF8
7FFFF8
7FFFF8
ENDCHAR
STARTCHAR 00BB
ENCODING 187
SWIDTH 552 0
DWIDTH 43 0
BBX 27 25 8 8
BITMAP
80010000
C0018000
E001C000
F001F000
F801F800
FE01FC00
FF01FE00
7F807F80
3FE03FC0
0FF01FE0
07F00FE0
03F003E0
00F001E0
01F001E0
03F007E0
07F00FE0
1FE01FE0
3FC07FC0
7F80FF00
FF01FE00
FC01FC00
F801F000
F001E000
C001C000
80018000
ENDCHAR
STARTCHAR 00BC
ENCODING 188
SWIDTH 835 0
DWIDTH 65 0
BBX 61 56 2 -2
BITMAP
0078000000078000
00780000000F8000
00F80000000F0000
00F80000001E0000
01F80000003E0000
07F80000003C0000
FFF80000007C0000
FFF8000000F80000
FFF8000000F00000
FFF8000001F00000
00F8000001E00000
00F8000003C00000
00F8000007C00000
00F8000007800000
00F800000F800000
00F800001F000000
00F800001E000000
00F800003E000000
00F800003C000000
00F8000078000000
00F80000F8000000
00F80000F0000000
00F80001F0000F00
00F80003E0001F00
00F80003C0003F00
00F80007C0003F00
00F8000780007F00
00F8000F0000FF00
00F8001F0001FF00
00F8001E0001FF00
00F8003E0003FF00
00F8007C0007DF00
00F80078000F9F00
000000F8001F1F00
000000F0001F1F00
000001E0003E1F00
000003E0007C1F00
000003C000F81F00
000007C000F81F00
00000F8001F01F00
00000F0003E01F00
00001F0007C01F00
00001E0007C01F00
00003C0007FFFFF8
00007C0007FFFFF8
0000780007FFFFF8
0000F80007FFFFF8
0001F00000001F00
0001E00000001F00
0003E00000001F00
0003C00000001F00
0007800000001F00
000F800000001F00
000F000000001F00
001F000000000000
003E000000000000
ENDCHAR
STARTCHAR 00BD
ENCODING 189
SWIDTH 835 0
DWIDTH 65 0
BBX 61 57 2 -2
BITMAP
00700000001F0000
00700000003E0000
00F00000003C0000
00F00000007C0000
01F0000000780000
07F0000000F00000
FFF0000001F00000
FFF0000001E00000
FFF0000003E00000
FFF0000007C00000
00F0000007800000
00F000000F800000
00F000000F000000
00F000001E000000
00F000003E000000
00F000003C000000
00F000007C000000
00F0000078000000
00F00000F0000000
00F00001F0000000
00F00001E0000000
00F00003E0000000
00F00007C007F800
00F00007801FFF00
00F0000F807FFF80
00F0000F00FFFFE0
00F0001E00FE1FE0
00F0003E01F803F0
00F0003C01F001F0
00F0007C03E001F8
00F000F803E000F8
00F000F003E000F8
00F001F003E000F8
000001E003E000F8
000003E0000001F0
000007C0000001F0
00000780000003F0
00000F80000007E0
00000F0000001FC0
00001E0000007F80
00003E000001FF00
00003C000007FC00
00007C00000FF800
0000F800003FE000
0000F000007F8000
0001F00000FE0000
0001E00001FC0000
0003E00001F80000
0007C00003F00000
0007800003E00000
000F800003E00000
000F000007FFFFF8
001E000007FFFFF8
003E000007FFFFF8
003C000007FFFFF8
007C000000000000
00F8000000000000
ENDCHAR
STARTCHAR 00BE
ENCODING 190
SWIDTH 835 0
DWIDTH 65 0
BBX 61 57 2 -2
BITMAP
00FF00000001F000
07FFC0000001E000
0FFFF0000003C000
1FFFF8000007C000
3F83FC0000078000
3E00FC00000F8000
7C007C00001F0000
7C007E00001E0000
7C003E00003E0000
7C003E00003C0000
7C003E0000780000
00007C0000F80000
00007C0000F00000
0001F80001F00000
007FF00001E00000
007FE00003C00000
007FF00007C00000
007FF80007800000
0001FC000F800000
00007E001F000000
00003E001E000000
00003F003E000000
00001F003C000F00
F8001F0078001F00
F8001F00F8001F00
F8001F00F0003F00
F8003E01F0007F00
7C003E03E000FF00
7E007E03C000FF00
3F81FC07C001FF00
3FFFF8078003FF00
1FFFF00F8007DF00
07FFE01F00079F00
01FF001E000F9F00
0000003E001F1F00
0000003C003E1F00
00000078003C1F00
000000F8007C1F00
000000F000F81F00
000001F001F01F00
000003E001F01F00
000003C003E01F00
000007C007C01F00
000007800F801F00
00000F800FFFFFF8
00001F000FFFFFF8
00001E000FFFFFF8
00003E000FFFFFF8
00003C0000001F00
0000780000001F00
0000F80000001F00
0000F00000001F00
0001F00000001F00
0003E00000001F00
0003C00000001F00
0007C00000000000
0007800000000000
ENDCHAR
STARTCHAR 00BF
ENCODING 191
SWIDTH 617 0
DWIDTH 48 0
BBX 34 58 7 -17
BITMAP
0003F80000
0003F80000
0003F80000
0003F80000
0003F80000
0003F80000
0003F80000
0003F80000
0000000000
0000000000
0000000000
0000000000
0000000000
0000000000
0000000000
0000000000
0003F80000
0003F80000
0003F80000
0003F80000
0003F80000
0003F80000
0003F80000
0007F80000
0007F80000
000FF00000
001FE00000
003FE00000
007FC00000
00FF800000
01FF000000
03FE000000
07F8000000
0FF0000000
1FE0000000
3FC0000000
3FC0000000
7F80000000
7F00000000
7F00000000
7F00001FC0
FF00001FC0
FE00001FC0
FE00001FC0
FF00001FC0
7F00001FC0
7F00001F80
7F80003F80
7F80007F80
3FC0007F00
3FF001FF00
1FFC07FE00
0FFFFFFE00
0FFFFFFC00
03FFFFF800
01FFFFE000
007FFF8000
000FFC0000
ENDCHAR
STARTCHAR 00C0
ENCODING 192
SWIDTH 668 0
DWIDTH 52 0
BBX 50 73 1 0
BITMAP
0003FE00000000
0000FF00000000
00007F00000000
00003F80000000
00001FC0000000
00000FC0000000
000007E0000000
000003F0000000
000001F0000000
000000F8000000
0000007C000000
00000000000000
00000000000000
00000000000000
00000000000000
00000000000000
00000FFC000000
00000FFC000000
00000FFE000000
00001FFE000000
00001FFE000000
00001FFF000000
00003FFF000000
00003FFF800000
00003FFF800000
00007FBF800000
00007F3FC00000
0000FF3FC00000
0000FE1FC00000
0000FE1FE00000
0001FE1FE00000
0001FC0FE00000
0001FC0FF00000
0003FC0FF00000
0003F807F00000
0003F807F80000
0007F807F80000
0007F003F80000
0007F003FC0000
000FF003FC0000
000FE001FC0000
001FE001FE0000
001FC001FE0000
001FC000FE0000
003FC000FF0000
003F8000FF0000
003F80007F8000
007F80007F8000
007F00007F8000
007F00003FC000
00FFFFFFFFC000
00FFFFFFFFC000
00FFFFFFFFE000
01FFFFFFFFE000
01FFFFFFFFE000
01FFFFFFFFF000
03FC00000FF000
03F800000FF000
07F8000007F800
07F8000007F800
07F0000007F800
0FF0000003FC00
0FF0000003FC00
0FE0000003FC00
1FE0000001FE00
1FE0000001FE00
1FC0000001FF00
3FC0000000FF00
3FC0000000FF00
3F80000000FF80
7F800000007F80
7F800000007F80
FF000000003FC0
ENDCHAR
STARTCHAR 00C1
ENCODING 193
SWIDTH 668 0
DWIDTH 52 0
BBX 50 73 1 0
BITMAP
0000001FF00000
0000001FE00000
0000003FC00000
0000007F800000
0000007F000000
000000FE000000
000001FC000000
000001F8000000
000003F0000000
000007E0000000
000007C0000000
00000000000000
00000000000000
00000000000000
00000000000000
00000000000000
00000FFC000000
00000FFC000000
00000FFE000000
00001FFE000000
00001FFE000000
00001FFF000000
00003FFF000000
00003FFF800000
00003FFF800000
00007FBF800000
00007F3FC00000
0000FF3FC00000
0000FE1FC00000
0000FE1FE00000
0001FE1FE00000
0001FC0FE00000
0001FC0FF00000
0003FC0FF00000
0003F807F00000
0003F807F80000
0007F807F80000
0007F003F80000
0007F003FC0000
000FF003FC0000
000FE001FC0000
001FE001FE0000
001FC001FE0000
001FC000FE0000
003FC000FF0000
003F8000FF0000
003F80007F8000
007F80007F8000
007F00007F8000
007F00003FC000
00FFFFFFFFC000
00FFFFFFFFC000
00FFFFFFFFE000
01FFFFFFFFE000
01FFFFFFFFE000
01FFFFFFFFF000
03FC00000FF000
03F800000FF000
07F8000007F800
07F8000007F800
07F0000007F800
0FF0000003FC00
0FF0000003FC00
0FE0000003FC00
1FE0000001FE00
1FE0000001FE00
1FC0000001FF00
3FC0000000FF00
3FC0000000FF00
3F80000000FF80
7F800000007F80
7F800000007F80
FF000000003FC0
ENDCHAR
STARTCHAR 00C2
ENCODING 194
SWIDTH 668 0
DWIDTH 52 0
BBX 50 73 1 0
BITMAP
000007F8000000
00000FFC000000
00000FFE000000
00001FFE000000
00003F3F000000
00003F3F800000
00007E1F800000
0000FC0FC00000
0000F807C00000
0001F003E00000
0003F001F00000
00000000000000
00000000000000
00000000000000
00000000000000
00000000000000
00000FFC000000
00000FFC000000
00000FFE000000
00001FFE000000
00001FFE000000
00001FFF000000
00003FFF000000
00003FFF800000
00003FFF800000
00007FBF800000
00007F3FC00000
0000FF3FC00000
0000FE1FC00000
0000FE1FE00000
0001FE1FE00000
0001FC0FE00000
0001FC0FF00000
0003FC0FF00000
0003F807F00000
0003F807F80000
0007F807F80000
0007F003F80000
0007F003FC0000
000FF003FC0000
000FE001FC0000
001FE001FE0000
001FC001FE0000
001FC000FE0000
003FC000FF0000
003F8000FF0000
003F80007F8000
007F80007F8000
007F00007F8000
007F00003FC000
00FFFFFFFFC000
00FFFFFFFFC000
00FFFFFFFFE000
01FFFFFFFFE000
01FFFFFFFFE000
01FFFFFFFFF000
03FC00000FF000
03F800000FF000
07F8000007F800
07F8000007F800
07F0000007F800
0FF0000003FC00
0FF0000003FC00
0FE0000003FC00
1FE0000001FE00
1FE0000001FE00
1FC0000001FF00
3FC0000000FF00
3FC0000000FF00
3F80000000FF80
7F800000007F80
7F800000007F80
FF000000003FC0
ENDCHAR
STARTCHAR 00C3
ENCODING 195
SWIDTH 668 0
DWIDTH 52 0
BBX 50 71 1 0
BITMAP
00007F00F80000
0000FFE1F80000
0001FFFFF80000
0003FFFFF00000
0003FFFFF00000
0007E3FFE00000
0007C03FC00000
00078000000000
00000000000000
00000000000000
00000000000000
00000000000000
00000000000000
00000000000000
00000FFC000000
00000FFC000000
00000FFE000000
00001FFE000000
00001FFE000000
00001FFF000000
00003FFF000000
00003FFF800000
00003FFF800000
00007FBF800000
00007F3FC00000
0000FF3FC00000
0000FE1FC00000
0000FE1FE00000
0001FE1FE00000
0001FC0FE00000
0001FC0FF00000
0003FC0FF00000
0003F807F00000
0003F807F80000
0007F807F80000
0007F003F80000
0007F003FC0000
000FF003FC0000
000FE001FC0000
001FE001FE0000
001FC001FE0000
001FC000FE0000
003FC000FF0000
003F8000FF0000
003F80007F8000
007F80007F8000
007F00007F8000
007F00003FC000
00FFFFFFFFC000
00FFFFFFFFC000
00FFFFFFFFE000
01FFFFFFFFE000
01FFFFFFFFE000
01FFFFFFFFF000
03FC00000FF000
03F800000FF000
07F8000007F800
07F8000007F800
07F0000007F800
0FF0000003FC00
0FF0000003FC00
0FE0000003FC00
1FE0000001FE00
1FE0000001FE00
1FC0000001FF00
3FC0000000FF00
3FC0000000FF00
3F80000000FF80
7F800000007F80
7F800000007F80
FF000000003FC0
ENDCHAR
STARTCHAR 00C4
ENCODING 196
SWIDTH 668 0
DWIDTH 52 0
BBX 50 71 1 0
BITMAP
0001FE1FE00000
0001FE1FE00000
0001FE1FE00000
0001FE1FE00000
0001FE1FE00000
0001FE1FE00000
0001FE1FE00000
0001FE1FE00000
00000000000000
00000000000000
00000000000000
00000000000000
00000000000000
00000000000000
00000FFC000000
00000FFC000000
00000FFE000000
00001FFE000000
00001FFE000000
00001FFF000000
00003FFF000000
00003FFF800000
00003FFF800000
00007FBF800000
00007F3FC00000
0000FF3FC00000
0000FE1FC00000
0000FE1FE00000
0001FE1FE00000
0001FC0FE00000
0001FC0FF00000
0003FC0FF00000
0003F807F00000
0003F807F80000
0007F807F80000
0007F003F80000
0007F003FC0000
000FF003FC0000
000FE001FC0000
001FE001FE0000
001FC001FE0000
001FC000FE0000
003FC000FF0000
003F8000FF0000
003F80007F8000
007F80007F8000
007F00007F8000
007F00003FC000
00FFFFFFFFC000
00FFFFFFFFC000
00FFFFFFFFE000
01FFFFFFFFE000
01FFFFFFFFE000
01FFFFFFFFF000
03FC00000FF000
03F800000FF000
07F8000007F800
07F8000007F800
07F0000007F800
0FF0000003FC00
0FF0000003FC00
0FE0000003FC00
1FE0000001FE00
1FE0000001FE00
1FC0000001FF00
3FC0000000FF00
3FC0000000FF00
3F80000000FF80
7F800000007F80
7F800000007F80
FF000000003FC0
ENDCHAR
STARTCHAR 00C5
ENCODING 197
SWIDTH 668 0
DWIDTH 52 0
BBX 50 74 1 0
BITMAP
000003F8000000
00000FFC000000
00001FFE000000
00001E1E000000
00001C0F000000
00003C0F000000
00003C0F000000
00003C0F000000
00001E0F000000
00001FFE000000
00000FFC000000
000007F8000000
000003F0000000
00000000000000
00000000000000
00000000000000
00000000000000
00000FFC000000
00000FFC000000
00000FFE000000
00001FFE000000
00001FFE000000
00001FFF000000
00003FFF000000
00003FFF800000
00003FFF800000
00007FBF800000
00007F3FC00000
0000FF3FC00000
0000FE1FC00000
0000FE1FE00000
0001FE1FE00000
0001FC0FE00000
0001FC0FF00000
0003FC0FF00000
0003F807F00000
0003F807F80000
0007F807F80000
0007F003F80000
0007F003FC0000
000FF003FC0000
000FE001FC0000
001FE001FE0000
001FC001FE0000
001FC000FE0000
003FC000FF0000
003F8000FF0000
003F80007F8000
007F80007F8000
007F00007F8000
007F00003FC000
00FFFFFFFFC000
00FFFFFFFFC000
00FFFFFFFFE000
01FFFFFFFFE000
01FFFFFFFFE000
01FFFFFFFFF000
03FC00000FF000
03F800000FF000
07F8000007F800
07F8000007F800
07F0000007F800
0FF0000003FC00
0FF0000003FC00
0FE0000003FC00
1FE0000001FE00
1FE0000001FE00
1FC0000001FF00
3FC0000000FF00
3FC0000000FF00
3F80000000FF80
7F800000007F80
7F800000007F80
FF000000003FC0
ENDCHAR
STARTCHAR 00C6
ENCODING 198
SWIDTH 1002 0
DWIDTH 78 0
BBX 73 57 1 0
BITMAP
000001FFFFFFFFFFFE00
000003FFFFFFFFFFFE00
000003FFFFFFFFFFFE00
000003FFFFFFFFFFFE00
000007FFFFFFFFFFFE00
000007FFFFFFFFFFFE00
00000FF01FE000000000
00000FE01FE000000000
00000FE01FE000000000
00001FC01FE000000000
00001FC01FE000000000
00003FC01FE000000000
00003F801FE000000000
00003F801FE000000000
00007F001FE000000000
00007F001FE000000000
0000FF001FE000000000
0000FE001FE000000000
0000FE001FE000000000
0001FE001FE000000000
0001FC001FE000000000
0003FC001FE000000000
0003F8001FE000000000
0003F8001FE000000000
0007F8001FE000000000
0007F0001FFFFFFFFC00
000FF0001FFFFFFFFC00
000FE0001FFFFFFFFC00
001FE0001FFFFFFFFC00
001FE0001FFFFFFFFC00
001FC0001FFFFFFFFC00
003FC0001FE000000000
003F80001FE000000000
007F80001FE000000000
007FFFFFFFE000000000
007FFFFFFFE000000000
00FFFFFFFFE000000000
00FFFFFFFFE000000000
01FFFFFFFFE000000000
01FFFFFFFFE000000000
01FC00001FE000000000
03FC00001FE000000000
03FC00001FE000000000
07F800001FE000000000
07F800001FE000000000
07F000001FE000000000
0FF000001FE000000000
0FF000001FE000000000
1FE000001FE000000000
1FE000001FE000000000
3FC000001FE000000000
3FC000001FFFFFFFFF80
3FC000001FFFFFFFFF80
7F8000001FFFFFFFFF80
7F8000001FFFFFFFFF80
FF0000001FFFFFFFFF80
FF0000001FFFFFFFFF80
ENDCHAR
STARTCHAR 00C7
ENCODING 199
SWIDTH 720 0
DWIDTH 56 0
BBX 49 75 4 -17
BITMAP
00000FFE000000
0000FFFFE00000
0003FFFFF80000
000FFFFFFE0000
001FFFFFFF0000
007FFFFFFF8000
00FFFF3FFFC000
01FFE000FFE000
01FF00003FF000
03FE00001FF000
07FC00000FF800
0FF8000007F800
0FF0000003FC00
1FE0000001FC00
1FE0000001FE00
3FC0000001FE00
3FC0000000FE00
3F80000000FE00
7F80000000FE00
7F000000000000
7F000000000000
7F000000000000
FF000000000000
FE000000000000
FE000000000000
FE000000000000
FE000000000000
FE000000000000
FE000000000000
FE000000000000
FE000000000000
FE000000000000
FE000000000000
FE000000000000
FE000000000000
FE000000000000
FF000000000000
FF000000007F80
7F000000007F00
7F000000007F00
7F800000007F00
7F80000000FF00
3F80000000FF00
3FC0000000FE00
3FC0000001FE00
1FE0000001FE00
1FF0000003FC00
0FF0000003FC00
0FF8000007FC00
07FC00000FF800
03FF00001FF000
03FF80007FF000
01FFF001FFE000
00FFFFFFFFC000
007FFFFFFF8000
001FFFFFFF0000
000FFFFFFC0000
0003FFFFF80000
0000FFFFC00000
000007F0000000
00000380000000
00000380000000
000007F8000000
000007FE000000
00000FFF000000
0000003F800000
0000001F800000
0000001F800000
0000001F800000
0001001F800000
0003C03F000000
0003F87F000000
0003FFFE000000
0000FFF8000000
00001FE0000000
ENDCHAR
STARTCHAR 00C8
ENCODING 200
SWIDTH 668 0
DWIDTH 52 0
BBX 41 73 7 0
BITMAP
003FC0000000
001FE0000000
000FF0000000
0007F0000000
0003F8000000
0001FC000000
0000FC000000
00007E000000
00003F000000
00001F000000
00000F800000
000000000000
000000000000
000000000000
000000000000
000000000000
FFFFFFFFFE00
FFFFFFFFFE00
FFFFFFFFFE00
FFFFFFFFFE00
FFFFFFFFFE00
FFFFFFFFFE00
FE0000000000
FE0000000000
FE0000000000
FE0000000000
FE0000000000
FE0000000000
FE0000000000
FE0000000000
FE0000000000
FE0000000000
FE0000000000
FE0000000000
FE0000000000
FE0000000000
FE0000000000
FE0000000000
FE0000000000
FE0000000000
FE0000000000
FFFFFFFFFC00
FFFFFFFFFC00
FFFFFFFFFC00
FFFFFFFFFC00
FFFFFFFFFC00
FFFFFFFFFC00
FE0000000000
FE0000000000
FE0000000000
FE0000000000
FE0000000000
FE0000000000
FE0000000000
FE0000000000
FE0000000000
FE0000000000
FE0000000000
FE0000000000
FE0000000000
FE0000000000
FE0000000000
FE0000000000
FE0000000000
FE0000000000
FE0000000000
FE0000000000
FFFFFFFFFF80
FFFFFFFFFF80
FFFFFFFFFF80
FFFFFFFFFF80
FFFFFFFFFF80
FFFFFFFFFF80
ENDCHAR
STARTCHAR 00C9
ENCODING 201
SWIDTH 668 0
DWIDTH 52 0
BBX 41 73 7 0
BITMAP
000007FC0000
00000FF00000
00000FE00000
00001FC00000
00003F800000
00003F000000
00007E000000
0000FC000000
0000F8000000
0001F0000000
0003E0000000
000000000000
000000000000
000000000000
000000000000
000000000000
FFFFFFFFFE00
FFFFFFFFFE00
FFFFFFFFFE00
FFFFFFFFFE00
FFFFFFFFFE00
FFFFFFFFFE00
FE0000000000
FE0000000000
FE0000000000
FE0000000000
FE0000000000
FE0000000000
FE0000000000
FE0000000000
FE0000000000
FE0000000000
FE0000000000
FE0000000000
FE0000000000
FE0000000000
FE0000000000
FE0000000000
FE0000000000
FE0000000000
FE0000000000
FFFFFFFFFC00
FFFFFFFFFC00
FFFFFFFFFC00
FFFFFFFFFC00
FFFFFFFFFC00
FFFFFFFFFC00
FE0000000000
FE0000000000
FE0000000000
FE0000000000
FE0000000000
FE0000000000
FE0000000000
FE0000000000
FE0000000000
FE0000000000
FE0000000000
FE0000000000
FE0000000000
FE0000000000
FE0000000000
FE0000000000
FE0000000000
FE0000000000
FE0000000000
FE0000000000
FFFFFFFFFF80
FFFFFFFFFF80
FFFFFFFFFF80
FFFFFFFFFF80
FFFFFFFFFF80
FFFFFFFFFF80
ENDCHAR
STARTCHAR 00CA
ENCODING 202
SWIDTH 668 0
DWIDTH 52 0
BBX 41 73 7 0
BITMAP
0000FF000000
0001FF800000
0003FF800000
0003FFC00000
0007EFE00000
000FC7E00000
000FC3F00000
001F81F80000
003F00F80000
003E007C0000
007C007C0000
000000000000
000000000000
000000000000
000000000000
000000000000
FFFFFFFFFE00
FFFFFFFFFE00
FFFFFFFFFE00
FFFFFFFFFE00
FFFFFFFFFE00
FFFFFFFFFE00
FE0000000000
FE0000000000
FE0000000000
FE0000000000
FE0000000000
FE0000000000
FE0000000000
FE0000000000
FE0000000000
FE0000000000
FE0000000000
FE0000000000
FE0000000000
FE0000000000
FE0000000000
FE0000000000
FE0000000000
FE0000000000
FE0000000000
FFFFFFFFFC00
FFFFFFFFFC00
FFFFFFFFFC00
FFFFFFFFFC00
FFFFFFFFFC00
FFFFFFFFFC00
FE0000000000
FE0000000000
FE0000000000
FE0000000000
FE0000000000
FE0000000000
FE0000000000
FE0000000000
FE0000000000
FE0000000000
FE0000000000
FE0000000000
FE0000000000
FE0000000000
FE0000000000
FE0000000000
FE0000000000
FE0000000000
FE0000000000
FE0000000000
FFFFFFFFFF80
FFFFFFFFFF80
FFFFFFFFFF80
FFFFFFFFFF80
FFFFFFFFFF80
FFFFFFFFFF80
ENDCHAR
STARTCHAR 00CB
ENCODING 203
SWIDTH 668 0
DWIDTH 52 0
BBX 41 71 7 0
BITMAP
007F83FC0000
007F83FC0000
007F83FC0000
007F83FC0000
007F83FC0000
007F83FC0000
007F83FC0000
007F83FC0000
000000000000
000000000000
000000000000
000000000000
000000000000
000000000000
FFFFFFFFFE00
FFFFFFFFFE00
FFFFFFFFFE00
FFFFFFFFFE00
FFFFFFFFFE00
FFFFFFFFFE00
FE0000000000
FE0000000000
FE0000000000
FE0000000000
FE0000000000
FE0000000000
FE0000000000
FE0000000000
FE0000000000
FE0000000000
FE0000000000
FE0000000000
FE0000000000
FE0000000000
FE0000000000
FE0000000000
FE0000000000
FE0000000000
FE0000000000
FFFFFFFFFC00
FFFFFFFFFC00
FFFFFFFFFC00
FFFFFFFFFC00
FFFFFFFFFC00
FFFFFFFFFC00
FE0000000000
FE0000000000
FE0000000000
FE0000000000
FE0000000000
FE0000000000
FE0000000000
FE0000000000
FE0000000000
FE0000000000
FE0000000000
FE0000000000
FE0000000000
FE0000000000
FE0000000000
FE0000000000
FE0000000000
FE0000000000
FE0000000000
FE0000000000
FFFFFFFFFF80
FFFFFFFFFF80
FFFFFFFFFF80
FFFFFFFFFF80
FFFFFFFFFF80
FFFFFFFFFF80
ENDCHAR
STARTCHAR 00CC
ENCODING 204
SWIDTH 282 0
DWIDTH 22 0
BBX 15 73 1 0
BITMAP
FF00
7F80
3FC0
1FC0
0FE0
07F0
03F0
01F8
00FC
007C
003E
0000
0000
0000
0000
0000
01FC
01FC
01FC
01FC
01FC
01FC
01FC
01FC
01FC
01FC
01FC
01FC
01FC
01FC
01FC
01FC
01FC
01FC
01FC
01FC
01FC
01FC
01FC
01FC
01FC
01FC
01FC
01FC
01FC
01FC
01FC
01FC
01FC
01FC
01FC
01FC
01FC
01FC
01FC
01FC
01FC
01FC
01FC
01FC
01FC
01FC
01FC
01FC
01FC
01FC
01FC
01FC
01FC
01FC
01FC
01FC
01FC
ENDCHAR
STARTCHAR 00CD
ENCODING 205
SWIDTH 282 0
DWIDTH 22 0
BBX 15 73 6 0
BITMAP
03FE
03FC
07F8
07F0
0FE0
1FC0
1F80
3F00
7E00
7C00
F800
0000
0000
0000
0000
0000
3F80
3F80
3F80
3F80
3F80
3F80
3F80
3F80
3F80
3F80
3F80
3F80
3F80
3F80
3F80
3F80
3F80
3F80
3F80
3F80
3F80
3F80
3F80
3F80
3F80
3F80
3F80
3F80
3F80
3F80
3F80
3F80
3F80
3F80
3F80
3F80
3F80
3F80
3F80
3F80
3F80
3F80
3F80
3F80
3F80
3F80
3F80
3F80
3F80
3F80
3F80
3F80
3F80
3F80
3F80
3F80
3F80
ENDCHAR
STARTCHAR 00CE
ENCODING 206
SWIDTH 282 0
DWIDTH 22 0
BBX 22 73 0 0
BITMAP
01FE00
03FF00
03FF80
07FF80
0FCFC0
0FCFE0
1F87E0
3F03F0
3E01F0
7C00F8
FC007C
000000
000000
000000
000000
000000
00FE00
00FE00
00FE00
00FE00
00FE00
00FE00
00FE00
00FE00
00FE00
00FE00
00FE00
00FE00
00FE00
00FE00
00FE00
00FE00
00FE00
00FE00
00FE00
00FE00
00FE00
00FE00
00FE00
00FE00
00FE00
00FE00
00FE00
00FE00
00FE00
00FE00
00FE00
00FE00
00FE00
00FE00
00FE00
00FE00
00FE00
00FE00
00FE00
00FE00
00FE00
00FE00
00FE00
00FE00
00FE00
00FE00
00FE00
00FE00
00FE00
00FE00
00FE00
00FE00
00FE00
00FE00
00FE00
00FE00
00FE00
ENDCHAR
STARTCHAR 00CF
ENCODING 207
SWIDTH 282 0
DWIDTH 22 0
BBX 20 71 1 0
BITMAP
FF0FF0
FF0FF0
FF0FF0
FF0FF0
FF0FF0
FF0FF0
FF0FF0
FF0FF0
000000
000000
000000
000000
000000
000000
01FC00
01FC00
01FC00
01FC00
01FC00
01FC00
01FC00
01FC00
01FC00
01FC00
01FC00
01FC00
01FC00
01FC00
01FC00
01FC00
01FC00
01FC00
01FC00
01FC00
01FC00
01FC00
01FC00
01FC00
01FC00
01FC00
01FC00
01FC00
01FC00
01FC00
01FC00
01FC00
01FC00
01FC00
01FC00
01FC00
01FC00
01FC00
01FC00
01FC00
01FC00
01FC00
01FC00
01FC00
01FC00
01FC00
01FC00
01FC00
01FC00
01FC00
01FC00
01FC00
01FC00
01FC00
01FC00
01FC00
01FC00
ENDCHAR
STARTCHAR 00D0
ENCODING 208
SWIDTH 720 0
DWIDTH 56 0
BBX 50 57 2 0
BITMAP
07FFFFFF000000
07FFFFFFF00000
07FFFFFFFC0000
07FFFFFFFE0000
07FFFFFFFF8000
07FFFFFFFFC000
07F0001FFFE000
07F00000FFF000
07F000003FF800
07F000000FF800
07F0000007FC00
07F0000003FC00
07F0000001FE00
07F0000001FE00
07F0000000FF00
07F0000000FF00
07F00000007F00
07F00000007F80
07F00000003F80
07F00000003F80
07F00000003F80
07F00000003F80
07F00000003FC0
07F00000003FC0
07F00000001FC0
FFFFFF80001FC0
FFFFFF80001FC0
FFFFFF80001FC0
FFFFFF80001FC0
FFFFFF80001FC0
07F00000001FC0
07F00000001FC0
07F00000001FC0
07F00000003FC0
07F00000003F80
07F00000003F80
07F00000003F80
07F00000003F80
07F00000007F80
07F00000007F80
07F00000007F00
07F0000000FF00
07F0000000FF00
07F0000001FE00
07F0000001FE00
07F0000003FC00
07F0000007FC00
07F000000FF800
07F000003FF000
07F00000FFF000
07F0001FFFE000
07FFFFFFFFC000
07FFFFFFFF8000
07FFFFFFFE0000
07FFFFFFFC0000
07FFFFFFE00000
07FFFFFF000000
ENDCHAR
STARTCHAR 00D1
ENCODING 209
SWIDTH 720 0
DWIDTH 56 0
BBX 44 71 6 0
BITMAP
0003FC03E000
0007FF87E000
000FFFFFC000
000FFFFFC000
001FFFFF8000
001F0FFF8000
001E01FF0000
003E00000000
000000000000
000000000000
000000000000
000000000000
000000000000
000000000000
FF00000007F0
FF80000007F0
FF80000007F0
FFC0000007F0
FFE0000007F0
FFE0000007F0
FFF0000007F0
FFF8000007F0
FFF8000007F0
FFFC000007F0
FFFC000007F0
FFFE000007F0
FEFF000007F0
FEFF000007F0
FE7F800007F0
FE3FC00007F0
FE3FC00007F0
FE1FE00007F0
FE0FF00007F0
FE0FF00007F0
FE07F80007F0
FE07F80007F0
FE03FC0007F0
FE01FE0007F0
FE01FE0007F0
FE00FF0007F0
FE007F8007F0
FE007F8007F0
FE003FC007F0
FE001FE007F0
FE001FE007F0
FE000FF007F0
FE000FF007F0
FE0007F807F0
FE0003FC07F0
FE0003FC07F0
FE0001FE07F0
FE0000FF07F0
FE0000FF07F0
FE00007F87F0
FE00003FC7F0
FE00003FC7F0
FE00001FE7F0
FE00001FE7F0
FE00000FF7F0
FE000007FFF0
FE000007FFF0
FE000003FFF0
FE000001FFF0
FE000001FFF0
FE000000FFF0
FE000000FFF0
FE0000007FF0
FE0000003FF0
FE0000003FF0
FE0000001FF0
FE0000000FF0
ENDCHAR
STARTCHAR 00D2
ENCODING 210
SWIDTH 784 0
DWIDTH 61 0
BBX 55 75 3 -2
BITMAP
00007F80000000
00003FC0000000
00001FE0000000
00000FE0000000
000007F0000000
000003F8000000
000001F8000000
000000FC000000
0000007E000000
0000003E000000
0000001F000000
00000000000000
00000000000000
00000000000000
00000000000000
000003FF800000
00003FFFF80000
0000FFFFFE0000
0003FFFFFF8000
000FFFFFFFE000
001FFFFFFFF000
007FFFCFFFF800
00FFF0003FFE00
01FFC0000FFE00
01FF000003FF00
03FE000001FF80
07FC0000007FC0
0FF80000003FC0
0FF00000003FE0
1FE00000001FE0
1FE00000000FF0
3FC00000000FF0
3FC000000007F8
3F8000000007F8
7F8000000003F8
7F8000000003FC
7F0000000003FC
7F0000000001FC
7F0000000001FC
FF0000000001FC
FF0000000001FC
FE0000000001FE
FE0000000001FE
FE0000000001FE
FE0000000001FE
FE0000000001FE
FE0000000001FE
FE0000000001FE
FE0000000001FE
FF0000000001FE
FF0000000001FC
FF0000000001FC
7F0000000001FC
7F0000000003FC
7F8000000003FC
7F8000000003F8
3F8000000007F8
3FC000000007F8
3FC00000000FF0
1FE00000000FF0
1FF00000001FE0
0FF00000001FE0
0FF80000003FC0
07FC0000007FC0
03FE000000FF80
03FF800003FF00
01FFC00007FE00
00FFF8003FFE00
007FFFC7FFF800
003FFFFFFFF000
000FFFFFFFE000
0007FFFFFF8000
0001FFFFFE0000
00003FFFF80000
000003FF800000
ENDCHAR
STARTCHAR 00D3
ENCODING 211
SWIDTH 784 0
DWIDTH 61 0
BBX 55 75 3 -2
BITMAP
00000007FC0000
0000000FF00000
0000000FE00000
0000001FC00000
0000003F800000
0000003F000000
0000007E000000
000000FC000000
000000F8000000
000001F0000000
000003E0000000
00000000000000
00000000000000
00000000000000
00000000000000
000003FF800000
00003FFFF80000
0000FFFFFE0000
0003FFFFFF8000
000FFFFFFFE000
001FFFFFFFF000
007FFFCFFFF800
00FFF0003FFE00
01FFC0000FFE00
01FF000003FF00
03FE000001FF80
07FC0000007FC0
0FF80000003FC0
0FF00000003FE0
1FE00000001FE0
1FE00000000FF0
3FC00000000FF0
3FC000000007F8
3F8000000007F8
7F8000000003F8
7F8000000003FC
7F0000000003FC
7F0000000001FC
7F0000000001FC
FF0000000001FC
FF0000000001FC
FE0000000001FE
FE0000000001FE
FE0000000001FE
FE0000000001FE
FE0000000001FE
FE0000000001FE
FE0000000001FE
FE0000000001FE
FF0000000001FE
FF0000000001FC
FF0000000001FC
7F0000000001FC
7F0000000003FC
7F8000000003FC
7F8000000003F8
3F8000000007F8
3FC000000007F8
3FC00000000FF0
1FE00000000FF0
1FF00000001FE0
0FF00000001FE0
0FF80000003FC0
07FC0000007FC0
03FE000000FF80
03FF800003FF00
01FFC00007FE00
00FFF8003FFE00
007FFFC7FFF800
003FFFFFFFF000
000FFFFFFFE000
0007FFFFFF8000
0001FFFFFE0000
00003FFFF80000
000003FF800000
ENDCHAR
STARTCHAR 00D4
ENCODING 212
SWIDTH 784 0
DWIDTH 61 0
BBX 55 75 3 -2
BITMAP
000001FF000000
000003FF000000
000003FF800000
000007FFC00000
00000FEFC00000
00000FC7E00000
00001F83F00000
00001F03F00000
00003E01F80000
00007E00F80000
00007C007C0000
00000000000000
00000000000000
00000000000000
00000000000000
000003FF800000
00003FFFF80000
0000FFFFFE0000
0003FFFFFF8000
000FFFFFFFE000
001FFFFFFFF000
007FFFCFFFF800
00FFF0003FFE00
01FFC0000FFE00
01FF000003FF00
03FE000001FF80
07FC0000007FC0
0FF80000003FC0
0FF00000003FE0
1FE00000001FE0
1FE00000000FF0
3FC00000000FF0
3FC000000007F8
3F8000000007F8
7F8000000003F8
7F8000000003FC
7F0000000003FC
7F0000000001FC
7F0000000001FC
FF0000000001FC
FF0000000001FC
FE0000000001FE
FE0000000001FE
FE0000000001FE
FE0000000001FE
FE0000000001FE
FE0000000001FE
FE0000000001FE
FE0000000001FE
FF0000000001FE
FF0000000001FC
FF0000000001FC
7F0000000001FC
7F0000000003FC
7F8000000003FC
7F8000000003F8
3F8000000007F8
3FC000000007F8
3FC00000000FF0
1FE00000000FF0
1FF00000001FE0
0FF00000001FE0
0FF80000003FC0
07FC0000007FC0
03FE000000FF80
03FF800003FF00
01FFC00007FE00
00FFF8003FFE00
007FFFC7FFF800
003FFFFFFFF000
000FFFFFFFE000
0007FFFFFF8000
0001FFFFFE0000
00003FFFF80000
000003FF800000
ENDCHAR
STARTCHAR 00D5
ENCODING 213
SWIDTH 784 0
DWIDTH 61 0
BBX 55 74 3 -2
BITMAP
00000F801F0000
00003FE01F0000
00007FFC3E0000
00007FFFFE0000
0000FFFFFE0000
0000F8FFFC0000
0000F01FF80000
0001F007F00000
00000000000000
00000000000000
00000000000000
00000000000000
00000000000000
00000000000000
000003FF800000
00003FFFF80000
0000FFFFFE0000
0003FFFFFF8000
000FFFFFFFE000
001FFFFFFFF000
007FFFCFFFF800
00FFF0003FFE00
01FFC0000FFE00
01FF000003FF00
03FE000001FF80
07FC0000007FC0
0FF80000003FC0
0FF00000003FE0
1FE00000001FE0
1FE00000000FF0
3FC00000000FF0
3FC000000007F8
3F8000000007F8
7F8000000003F8
7F8000000003FC
7F0000000003FC
7F0000000001FC
7F0000000001FC
FF0000000001FC
FF0000000001FC
FE0000000001FE
FE0000000001FE
FE0000000001FE
FE0000000001FE
FE0000000001FE
FE0000000001FE
FE0000000001FE
FE0000000001FE
FF0000000001FE
FF0000000001FC
FF0000000001FC
7F0000000001FC
7F0000000003FC
7F8000000003FC
7F8000000003F8
3F8000000007F8
3FC000000007F8
3FC00000000FF0
1FE00000000FF0
1FF00000001FE0
0FF00000001FE0
0FF80000003FC0
07FC0000007FC0
03FE000000FF80
03FF800003FF00
01FFC00007FE00
00FFF8003FFE00
007FFFC7FFF800
003FFFFFFFF000
000FFFFFFFE000
0007FFFFFF8000
0001FFFFFE0000
00003FFFF80000
000003FF800000
ENDCHAR
STARTCHAR 00D6
ENCODING 214
SWIDTH 784 0
DWIDTH 61 0
BBX 55 73 3 -2
BITMAP
00007F83FC0000
00007F83FC0000
00007F83FC0000
00007F83FC0000
00007F83FC0000
00007F83FC0000
00007F83FC0000
00007F83FC0000
00000000000000
00000000000000
00000000000000
00000000000000
00000000000000
000003FF800000
00003FFFF80000
0000FFFFFE0000
0003FFFFFF8000
000FFFFFFFE000
001FFFFFFFF000
007FFFCFFFF800
00FFF0003FFE00
01FFC0000FFE00
01FF000003FF00
03FE000001FF80
07FC0000007FC0
0FF80000003FC0
0FF00000003FE0
1FE00000001FE0
1FE00000000FF0
3FC00000000FF0
3FC000000007F8
3F8000000007F8
7F8000000003F8
7F8000000003FC
7F0000000003FC
7F0000000001FC
7F0000000001FC
FF0000000001FC
FF0000000001FC
FE0000000001FE
FE0000000001FE
FE0000000001FE
FE0000000001FE
FE0000000001FE
FE0000000001FE
FE0000000001FE
FE0000000001FE
FF0000000001FE
FF0000000001FC
FF0000000001FC
7F0000000001FC
7F0000000003FC
7F8000000003FC
7F8000000003F8
3F8000000007F8
3FC000000007F8
3FC00000000FF0
1FE00000000FF0
1FF00000001FE0
0FF00000001FE0
0FF80000003FC0
07FC0000007FC0
03FE000000FF80
03FF800003FF00
01FFC00007FE00
00FFF8003FFE00
007FFFC7FFF800
003FFFFFFFF000
000FFFFFFFE000
0007FFFFFF8000
0001FFFFFE0000
00003FFFF80000
000003FF800000
ENDCHAR
STARTCHAR 00D7
ENCODING 215
SWIDTH 578 0
DWIDTH 45 0
BBX 31 30 7 3
BITMAP
08000030
1C000078
3E0000FC
7F0001FE
7F8003FC
3FC007F8
1FE00FF0
0FF01FE0
07F83FC0
03FC7F80
01FEFF00
00FFFE00
007FFC00
003FF800
001FF000
001FF000
003FF800
007FFC00
00FFFE00
01FEFF00
03FC7F80
07F83FC0
0FF01FE0
1FE00FF0
3FC007F8
7F8003FC
FF0001FE
7E0000FC
3C000078
18000030
ENDCHAR
STARTCHAR 00D8
ENCODING 216
SWIDTH 784 0
DWIDTH 61 0
BBX 55 61 3 -2
BITMAP
00000000000010
000003FF80003C
00003FFFF8007E
0001FFFFFE00FC
0007FFFFFF80F8
000FFFFFFFE1F0
003FFFFFFFF3E0
007FFFCFFFFFC0
00FFF0003FFFC0
01FFC0000FFF80
03FF000003FF00
03FE000001FF80
07FC000000FFC0
0FF8000001FFC0
0FF0000001FFE0
1FE0000003FFE0
1FE0000007CFF0
3FC000000F8FF0
3FC000001F87F0
7F8000003F07F8
7F8000007E07F8
7F000000FC03F8
7F000001F803FC
FF000003F003FC
FF000007E001FC
FE000007C001FC
FE00000F8001FC
FE00001F0001FC
FE00003E0001FC
FE00007E0001FC
FE0000FC0001FC
FE0001F80001FC
FE0003F00001FC
FE0007E00001FC
FE000FC00001FC
FE000F800001FC
FE001F000001FC
FF003E000001FC
FF007C000003FC
7F00F8000003FC
7F01F8000003F8
7F83F0000003F8
7F87E0000007F8
3FCFC0000007F0
3FDF8000000FF0
1FFF0000000FF0
1FFE0000001FE0
0FFC0000003FE0
0FF80000007FC0
07FC000000FF80
07FE000001FF80
07FF000003FF00
0FFFC0000FFE00
1FFFF0003FFC00
3F7FFFCFFFF800
7E3FFFFFFFF000
FC1FFFFFFFE000
F807FFFFFF8000
F001FFFFFE0000
60007FFFF80000
000007FF800000
ENDCHAR
STARTCHAR 00D9
ENCODING 217
SWIDTH 720 0
DWIDTH 56 0
BBX 43 75 7 -2
BITMAP
001FE0000000
000FF0000000
0007F8000000
0003F8000000
0001FC000000
0000FE000000
00007E000000
00003F000000
00001F800000
00000F800000
000007C00000
000000000000
000000000000
000000000000
000000000000
000000000000
FE0000000FE0
FE0000000FE0
FE0000000FE0
FE0000000FE0
FE0000000FE0
FE0000000FE0
FE0000000FE0
FE0000000FE0
FE0000000FE0
FE0000000FE0
FE0000000FE0
FE0000000FE0
FE0000000FE0
FE0000000FE0
FE0000000FE0
FE0000000FE0
FE0000000FE0
FE0000000FE0
FE0000000FE0
FE0000000FE0
FE0000000FE0
FE0000000FE0
FE0000000FE0
FE0000000FE0
FE0000000FE0
FE0000000FE0
FE0000000FE0
FE0000000FE0
FE0000000FE0
FE0000000FE0
FE0000000FE0
FE0000000FE0
FE0000000FE0
FE0000000FE0
FE0000000FE0
FE0000000FE0
FE0000000FE0
FE0000000FE0
FE0000000FE0
FE0000000FE0
FE0000000FE0
FE0000000FE0
FE0000000FE0
FE0000000FE0
FF0000001FE0
FF0000001FE0
7F0000003FC0
7F8000003FC0
7FC000007F80
3FE00000FF80
1FF80003FF00
1FFE000FFF00
0FFFF1FFFE00
07FFFFFFFC00
03FFFFFFF800
00FFFFFFE000
007FFFFF8000
000FFFFE0000
0000FFE00000
ENDCHAR
STARTCHAR 00DA
ENCODING 218
SWIDTH 720 0
DWIDTH 56 0
BBX 43 75 7 -2
BITMAP
000001FE0000
000003FC0000
000007F80000
000007F00000
00000FE00000
00001FC00000
00001F800000
00003F000000
00007E000000
00007C000000
0000F8000000
000000000000
000000000000
000000000000
000000000000
000000000000
FE0000000FE0
FE0000000FE0
FE0000000FE0
FE0000000FE0
FE0000000FE0
FE0000000FE0
FE0000000FE0
FE0000000FE0
FE0000000FE0
FE0000000FE0
FE0000000FE0
FE0000000FE0
FE0000000FE0
FE0000000FE0
FE0000000FE0
FE0000000FE0
FE0000000FE0
FE0000000FE0
FE0000000FE0
FE0000000FE0
FE0000000FE0
FE0000000FE0
FE0000000FE0
FE0000000FE0
FE0000000FE0
FE0000000FE0
FE0000000FE0
FE0000000FE0
FE0000000FE0
FE0000000FE0
FE0000000FE0
FE0000000FE0
FE0000000FE0
FE0000000FE0
FE0000000FE0
FE0000000FE0
FE0000000FE0
FE0000000FE0
FE0000000FE0
FE0000000FE0
FE0000000FE0
FE0000000FE0
FE0000000FE0
FE0000000FE0
FF0000001FE0
FF0000001FE0
7F0000003FC0
7F8000003FC0
7FC000007F80
3FE00000FF80
1FF80003FF00
1FFE000FFE00
0FFFF1FFFE00
07FFFFFFFC00
03FFFFFFF000
00FFFFFFE000
007FFFFF8000
000FFFFE0000
0000FFE00000
ENDCHAR
STARTCHAR 00DB
ENCODING 219
SWIDTH 720 0
DWIDTH 56 0
BBX 43 75 7 -2
BITMAP
00007FC00000
00007FC00000
0000FFE00000
0001FFF00000
0001FBF00000
0003F1F80000
0007E0FC0000
0007C0FC0000
000FC07E0000
001F803E0000
001F001F0000
000000000000
000000000000
000000000000
000000000000
000000000000
FE0000000FE0
FE0000000FE0
FE0000000FE0
FE0000000FE0
FE0000000FE0
FE0000000FE0
FE0000000FE0
FE0000000FE0
FE0000000FE0
FE0000000FE0
FE0000000FE0
FE0000000FE0
FE0000000FE0
FE0000000FE0
FE0000000FE0
FE0000000FE0
FE0000000FE0
FE0000000FE0
FE0000000FE0
FE0000000FE0
FE0000000FE0
FE0000000FE0
FE0000000FE0
FE0000000FE0
FE0000000FE0
FE0000000FE0
FE0000000FE0
FE0000000FE0
FE0000000FE0
FE0000000FE0
FE0000000FE0
FE0000000FE0
FE0000000FE0
FE0000000FE0
FE0000000FE0
FE0000000FE0
FE0000000FE0
FE0000000FE0
FE0000000FE0
FE0000000FE0
FE0000000FE0
FE0000000FE0
FE0000000FE0
FE0000000FE0
FF0000001FE0
FF0000001FE0
7F0000003FC0
7F8000003FC0
7FC000007F80
3FE00000FF80
1FF80003FF00
1FFE000FFF00
0FFFF1FFFE00
07FFFFFFFC00
03FFFFFFF800
00FFFFFFE000
007FFFFF8000
000FFFFE0000
0000FFE00000
ENDCHAR
STARTCHAR 00DC
ENCODING 220
SWIDTH 720 0
DWIDTH 56 0
BBX 43 73 7 -2
BITMAP
001FE0FF0000
001FE0FF0000
001FE0FF0000
001FE0FF0000
001FE0FF0000
001FE0FF0000
001FE0FF0000
001FE0FF0000
000000000000
000000000000
000000000000
000000000000
000000000000
000000000000
FE0000000FE0
FE0000000FE0
FE0000000FE0
FE0000000FE0
FE0000000FE0
FE0000000FE0
FE0000000FE0
FE0000000FE0
FE0000000FE0
FE0000000FE0
FE0000000FE0
FE0000000FE0
FE0000000FE0
FE0000000FE0
FE0000000FE0
FE0000000FE0
FE0000000FE0
FE0000000FE0
FE0000000FE0
FE0000000FE0
FE0000000FE0
FE0000000FE0
FE0000000FE0
FE0000000FE0
FE0000000FE0
FE0000000FE0
FE0000000FE0
FE0000000FE0
FE0000000FE0
FE0000000FE0
FE0000000FE0
FE0000000FE0
FE0000000FE0
FE0000000FE0
FE0000000FE0
FE0000000FE0
FE0000000FE0
FE0000000FE0
FE0000000FE0
FE0000000FE0
FE0000000FE0
FE0000000FE0
FE0000000FE0
FE0000000FE0
FF0000001FE0
FF0000001FE0
7F0000003FC0
7F8000003FC0
7FC000007F80
3FE00000FF80
1FF80003FF00
1FFE000FFF00
0FFFF1FFFE00
07FFFFFFFC00
03FFFFFFF800
00FFFFFFE000
007FFFFF8000
000FFFFE0000
0000FFE00000
ENDCHAR
STARTCHAR 00DD
ENCODING 221
SWIDTH 668 0
DWIDTH 52 0
BBX 50 73 1 0
BITMAP
0000001FF00000
0000003FC00000
0000003F800000
0000007F000000
000000FE000000
000000FC000000
000001F8000000
000003F0000000
000003E0000000
000007C0000000
00000F80000000
00000000000000
00000000000000
00000000000000
00000000000000
00000000000000
FF800000007FC0
7FC00000007F80
3FC0000000FF80
3FE0000000FF00
1FF0000001FF00
1FF0000003FE00
0FF8000003FC00
07F8000007FC00
07FC000007F800
03FE00000FF000
01FE00000FF000
01FF00001FE000
00FF00003FE000
00FF80003FC000
007FC0007F8000
003FC0007F8000
003FE000FF0000
001FE001FF0000
000FF001FE0000
000FF803FC0000
0007F803FC0000
0003FC07F80000
0003FC07F00000
0001FE0FF00000
0001FF1FE00000
0000FF1FE00000
00007FBFC00000
00007FBF800000
00003FFF800000
00001FFF000000
00001FFF000000
00000FFE000000
00000FFC000000
000007FC000000
000003F8000000
000003F8000000
000003F8000000
000003F8000000
000003F8000000
000003F8000000
000003F8000000
000003F8000000
000003F8000000
000003F8000000
000003F8000000
000003F8000000
000003F8000000
000003F8000000
000003F8000000
000003F8000000
000003F8000000
000003F8000000
000003F8000000
000003F8000000
000003F8000000
000003F8000000
000003F8000000
ENDCHAR
STARTCHAR 00DE
ENCODING 222
SWIDTH 668 0
DWIDTH 52 0
BBX 41 57 7 0
BITMAP
FE0000000000
FE0000000000
FE0000000000
FE0000000000
FE0000000000
FE0000000000
FE0000000000
FE0000000000
FE0000000000
FE0000000000
FFFFFFFC0000
FFFFFFFF8000
FFFFFFFFC000
FFFFFFFFF000
FFFFFFFFF800
FFFFFFFFFC00
FE00003FFC00
FE000007FE00
FE000003FE00
FE000001FF00
FE000000FF00
FE000000FF00
FE0000007F80
FE0000007F80
FE0000007F80
FE0000007F80
FE0000007F80
FE0000007F80
FE0000007F80
FE0000007F80
FE000000FF00
FE000000FF00
FE000001FF00
FE000003FE00
FE000007FE00
FE00003FFC00
FFFFFFFFFC00
FFFFFFFFF800
FFFFFFFFF000
FFFFFFFFE000
FFFFFFFF8000
FFFFFFFE0000
FE0000000000
FE0000000000
FE0000000000
FE0000000000
FE0000000000
FE0000000000
FE0000000000
FE0000000000
FE0000000000
FE0000000000
FE0000000000
FE0000000000
FE0000000000
FE0000000000
FE0000000000
ENDCHAR
STARTCHAR 00DF
ENCODING 223
SWIDTH 617 0
DWIDTH 48 0
BBX 38 59 5 -2
BITMAP
0003FF0000
003FFFE000
00FFFFF800
03FFFFFC00
07FFFFFE00
0FFFFFFF00
1FFC07FF80
3FE000FFC0
3FC0003FC0
7F80001FE0
7F00001FE0
7F00000FE0
7E00000FE0
7E000007E0
FE000007E0
FE000007E0
FE00000FE0
FE00000FE0
FE00000FE0
FE00001FC0
FE00003FC0
FE0000FF80
FE0003FF00
FE00FFFE00
FE00FFF800
FE00FFE000
FE00FFF000
FE00FFFC00
FE00FFFF00
FE00FFFF80
FE0000FFC0
FE00003FE0
FE00000FF0
FE000007F8
FE000003F8
FE000003FC
FE000001FC
FE000001FC
FE000001FC
FE000001FC
FE000001FC
FE000001FC
FE000001FC
FE000001FC
FE000001FC
FE000003FC
FE000003F8
FE000007F8
FE000007F8
FE00000FF0
FE00003FF0
FE0000FFE0
FE000FFFC0
FE01FFFF80
FE01FFFF00
FE01FFFE00
FE01FFF800
0001FFE000
0001FF0000
ENDCHAR
STARTCHAR 00E0
ENCODING 224
SWIDTH 552 0
DWIDTH 43 0
BBX 39 60 3 -2
BITMAP
00FF800000
007F800000
003FC00000
001FE00000
000FE00000
0007F00000
0003F80000
0001F80000
0000FC0000
00007C0000
00003E0000
00001F0000
0000000000
0000000000
0000000000
0000000000
0007FF0000
003FFFE000
00FFFFF800
03FFFFFE00
07FFFFFF00
0FFFFFFF00
0FFC03FF80
1FF0007F80
1FC0003F80
1FC0001FC0
3F80001FC0
3F80001FC0
3F80001FC0
0000001FC0
0000001FC0
0000001FC0
0000003FC0
0000007FC0
00000FFFC0
0007FFFFC0
007FFFFFC0
03FFFFFFC0
07FFFFDFC0
0FFFFC1FC0
1FFE001FC0
3FE0001FC0
7FC0001FC0
7F00001FC0
7F00001FC0
FE00001FC0
FE00001FC0
FE00001FC0
FE00001FC0
FE00003FC0
FF00007FC0
7F0000FFC0
7F8003FFC0
7FE00FFFC0
3FFFFFEFFA
1FFFFFCFFE
0FFFFF0FFE
07FFFE07FE
03FFF807FE
007FC001FC
ENDCHAR
STARTCHAR 00E1
ENCODING 225
SWIDTH 552 0
DWIDTH 43 0
BBX 39 60 3 -2
BITMAP
00000FF800
00000FF000
00001FE000
00003FC000
00003F8000
00007F0000
0000FE0000
0000FC0000
0001F80000
0001F00000
0003E00000
0007C00000
0000000000
0000000000
0000000000
0000000000
0007FF0000
003FFFE000
00FFFFF800
03FFFFFE00
07FFFFFF00
0FFFFFFF00
0FFC03FF80
1FF0007F80
1FC0003F80
1FC0001FC0
3F80001FC0
3F80001FC0
3F80001FC0
0000001FC0
0000001FC0
0000001FC0
0000003FC0
0000007FC0
00000FFFC0
0007FFFFC0
007FFFFFC0
03FFFFFFC0
07FFFFDFC0
0FFFFC1FC0
1FFE001FC0
3FE0001FC0
7FC0001FC0
7F00001FC0
7F00001FC0
FE00001FC0
FE00001FC0
FE00001FC0
FE00001FC0
FE00003FC0
FF00007FC0
7F0000FFC0
7F8003FFC0
7FE00FFFC0
3FFFFFEFFA
1FFFFFCFFE
0FFFFF0FFE
07FFFE07FE
03FFF807FE
007FC001FC
ENDCHAR
STARTCHAR 00E2
ENCODING 226
SWIDTH 552 0
DWIDTH 43 0
BBX 39 60 3 -2
BITMAP
0003FC0000
0003FE0000
0007FF0000
0007FF0000
000FDF8000
001F9FC000
001F8FC000
003F07E000
007E03E000
007C01F000
00F801F800
01F800F800
0000000000
0000000000
0000000000
0000000000
0007FF0000
003FFFE000
00FFFFF800
03FFFFFE00
07FFFFFF00
0FFFFFFF00
0FFC03FF80
1FF0007F80
1FC0003F80
1FC0001FC0
3F80001FC0
3F80001FC0
3F80001FC0
0000001FC0
0000001FC0
0000001FC0
0000003FC0
0000007FC0
00000FFFC0
0007FFFFC0
007FFFFFC0
03FFFFFFC0
07FFFFDFC0
0FFFFC1FC0
1FFE001FC0
3FE0001FC0
7FC0001FC0
7F00001FC0
7F00001FC0
FE00001FC0
FE00001FC0
FE00001FC0
FE00001FC0
FE00003FC0
FF00007FC0
7F0000FFC0
7F8003FFC0
7FE00FFFC0
3FFFFFEFFA
1FFFFFCFFE
0FFFFF0FFE
07FFFE07FE
03FFF807FE
007FC001FC
ENDCHAR
STARTCHAR 00E3
ENCODING 227
SWIDTH 552 0
DWIDTH 43 0
BBX 39 58 3 -2
BITMAP
001F003E00
007FE07C00
00FFFCFC00
00FFFFFC00
01FFFFF800
01F1FFF800
01E03FF000
03E007C000
0000000000
0000000000
0000000000
0000000000
0000000000
0000000000
0007FF0000
003FFFE000
00FFFFF800
03FFFFFE00
07FFFFFF00
0FFFFFFF00
0FFC03FF80
1FF0007F80
1FC0003F80
1FC0001FC0
3F80001FC0
3F80001FC0
3F80001FC0
0000001FC0
0000001FC0
0000001FC0
0000003FC0
0000007FC0
00000FFFC0
0007FFFFC0
007FFFFFC0
03FFFFFFC0
07FFFFDFC0
0FFFFC1FC0
1FFE001FC0
3FE0001FC0
7FC0001FC0
7F00001FC0
7F00001FC0
FE00001FC0
FE00001FC0
FE00001FC0
FE00001FC0
FE00003FC0
FF00007FC0
7F0000FFC0
7F8003FFC0
7FE00FFFC0
3FFFFFEFFA
1FFFFFCFFE
0FFFFF0FFE
07FFFE07FE
03FFF807FE
007FC001FC
ENDCHAR
STARTCHAR 00E4
ENCODING 228
SWIDTH 552 0
DWIDTH 43 0
BBX 39 58 3 -2
BITMAP
00FF0FF800
00FF0FF800
00FF0FF800
00FF0FF800
00FF0FF800
00FF0FF800
00FF0FF800
00FF0FF800
0000000000
0000000000
0000000000
0000000000
0000000000
0000000000
0007FF0000
003FFFE000
00FFFFF800
03FFFFFE00
07FFFFFF00
0FFFFFFF00
0FFC03FF80
1FF0007F80
1FC0003F80
1FC0001FC0
3F80001FC0
3F80001FC0
3F80001FC0
0000001FC0
0000001FC0
0000001FC0
0000003FC0
0000007FC0
00000FFFC0
0007FFFFC0
007FFFFFC0
03FFFFFFC0
07FFFFDFC0
0FFFFC1FC0
1FFE001FC0
3FE0001FC0
7FC0001FC0
7F00001FC0
7F00001FC0
FE00001FC0
FE00001FC0
FE00001FC0
FE00001FC0
FE00003FC0
FF00007FC0
7F0000FFC0
7F8003FFC0
7FE00FFFC0
3FFFFFEFFA
1FFFFFCFFE
0FFFFF0FFE
07FFFE07FE
03FFF807FE
007FC001FC
ENDCHAR
STARTCHAR 00E5
ENCODING 229
SWIDTH 552 0
DWIDTH 43 0
BBX 39 61 3 -2
BITMAP
0000F80000
0003FE0000
0007FF0000
000FDF0000
000F078000
000E078000
000E038000
000E038000
000E038000
000F078000
000FDF0000
0007FF0000
0003FE0000
0000F80000
0000000000
0000000000
0000000000
0007FF0000
003FFFE000
00FFFFF800
03FFFFFE00
07FFFFFF00
0FFFFFFF00
0FFC03FF80
1FF0007F80
1FC0003F80
1FC0001FC0
3F80001FC0
3F80001FC0
3F80001FC0
0000001FC0
0000001FC0
0000001FC0
0000003FC0
0000007FC0
00000FFFC0
0007FFFFC0
007FFFFFC0
03FFFFFFC0
07FFFFDFC0
0FFFFC1FC0
1FFE001FC0
3FE0001FC0
7FC0001FC0
7F00001FC0
7F00001FC0
FE00001FC0
FE00001FC0
FE00001FC0
FE00001FC0
FE00003FC0
FF00007FC0
7F0000FFC0
7F8003FFC0
7FE00FFFC0
3FFFFFEFFA
1FFFFFCFFE
0FFFFF0FFE
07FFFE07FE
03FFF807FE
007FC001FC
ENDCHAR
STARTCHAR 00E6
ENCODING 230
SWIDTH 887 0
DWIDTH 69 0
BBX 63 44 3 -2
BITMAP
0007FE0000FF8000
007FFFC007FFF000
01FFFFF01FFFFC00
03FFFFF83FFFFF00
0FFFFFFC7FFFFF80
0FFFFFFEFFFFFFC0
1FF803FFFF80FFE0
1FE000FFFE003FE0
3FC0007FF8000FF0
3F80003FF00007F8
3F80003FF00007F8
3F00001FE00003F8
7F00001FC00003FC
0000001FC00001FC
0000001FC00001FC
0000003F800001FC
0000003F800000FC
0000007F800000FE
000007FF800000FE
0007FFFFFFFFFFFE
00FFFFFFFFFFFFFE
03FFFFFFFFFFFFFE
0FFFFFDFFFFFFFFE
1FFFFC1FFFFFFFFE
3FFF001F80000000
7FE0001F80000000
7F80001F80000000
FF00001F80000000
FE00001F80000000
FE00001F80000000
FE00001FC00001FC
FC00003FC00001FC
FC00003FE00003F8
FE00007FE00003F8
FE0000FFF00007F0
FF0001FBF8000FF0
FF0007F3FE001FE0
7FC01FE1FF80FFE0
7FFFFFC1FFFFFFC0
3FFFFF80FFFFFF80
1FFFFF007FFFFF00
0FFFFC001FFFFC00
03FFF00007FFF000
00FF800000FF8000
ENDCHAR
STARTCHAR 00E7
ENCODING 231
SWIDTH 501 0
DWIDTH 39 0
BBX 35 59 2 -17
BITMAP
0003FE0000
001FFFC000
007FFFF000
00FFFFF800
01FFFFFE00
03FFFFFF00
07FE03FF00
0FF800FF80
0FF0007F80
1FE0003FC0
1FC0001FC0
3F80001FC0
3F80000FC0
3F80000FE0
7F00000FE0
7F00000000
7F00000000
7F00000000
7E00000000
7E00000000
FE00000000
FE00000000
FE00000000
FE00000000
FE00000000
7E00000000
7F00000000
7F00000000
7F00000FE0
7F00000FE0
3F80000FE0
3F80000FE0
3FC0001FC0
1FC0001FC0
1FE0003FC0
0FF0007F80
0FF800FF80
07FF07FF00
03FFFFFE00
01FFFFFC00
00FFFFF800
007FFFE000
001FFF8000
0001F80000
0001C00000
0001C00000
0003FC0000
0003FF0000
0007FF8000
00001FC000
00000FC000
00000FC000
00000FC000
00800FC000
01E01F8000
01FC3F8000
01FFFF0000
007FFE0000
000FF00000
ENDCHAR
STARTCHAR 00E8
ENCODING 232
SWIDTH 552 0
DWIDTH 43 0
BBX 37 60 3 -2
BITMAP
00FF800000
007F800000
003FC00000
001FE00000
000FE00000
0007F00000
0003F80000
0001F80000
0000FC0000
00007E0000
00003E0000
00001F0000
0000000000
0000000000
0000000000
0000000000
0003FE0000
001FFFC000
007FFFF000
00FFFFFC00
01FFFFFE00
03FFFFFF00
07FE03FF80
0FF800FFC0
0FF0003FC0
1FE0001FE0
3FC0000FE0
3F80000FF0
3F800007F0
7F000007F0
7F000007F0
7F000003F0
7E000003F8
FE000003F8
FE000003F8
FFFFFFFFF8
FFFFFFFFF8
FFFFFFFFF8
FFFFFFFFF8
FFFFFFFFF8
FE00000000
FE00000000
FE00000000
FE00000000
7E00000000
7F00000000
7F000007F0
7F000007F0
3F80000FE0
3FC0000FE0
1FE0001FE0
1FF0003FC0
0FF8007FC0
0FFE03FF80
07FFFFFF00
03FFFFFE00
01FFFFFC00
007FFFF000
001FFFC000
0003FE0000
ENDCHAR
STARTCHAR 00E9
ENCODING 233
SWIDTH 552 0
DWIDTH 43 0
BBX 37 60 3 -2
BITMAP
000007F800
00000FF000
00001FE000
00001FC000
00003F8000
00007F0000
00007E0000
0000FC0000
0000F80000
0001F00000
0003E00000
0003C00000
0000000000
0000000000
0000000000
0000000000
0003FE0000
001FFFC000
007FFFF000
00FFFFFC00
01FFFFFE00
03FFFFFF00
07FE03FF80
0FF800FFC0
0FF0003FC0
1FE0001FE0
3FC0000FE0
3F80000FF0
3F800007F0
7F000007F0
7F000007F0
7F000003F0
7E000003F8
FE000003F8
FE000003F8
FFFFFFFFF8
FFFFFFFFF8
FFFFFFFFF8
FFFFFFFFF8
FFFFFFFFF8
FE00000000
FE00000000
FE00000000
FE00000000
7E00000000
7F00000000
7F000007F0
7F000007F0
3F80000FE0
3FC0000FE0
1FE0001FE0
1FF0003FC0
0FF8007FC0
0FFE03FF80
07FFFFFF00
03FFFFFE00
01FFFFFC00
007FFFF000
001FFFC000
0003FE0000
ENDCHAR
STARTCHAR 00EA
ENCODING 234
SWIDTH 552 0
DWIDTH 43 0
BBX 37 60 3 -2
BITMAP
0001FE0000
0001FF0000
0003FF8000
0007FF8000
0007FFC000
000FCFC000
001F87E000
001F83F000
003F01F000
003E00F800
007C00FC00
00F8007C00
0000000000
0000000000
0000000000
0000000000
0003FE0000
001FFFC000
007FFFF000
00FFFFFC00
01FFFFFE00
03FFFFFF00
07FE03FF80
0FF800FFC0
0FF0003FC0
1FE0001FE0
3FC0000FE0
3F80000FF0
3F800007F0
7F000007F0
7F000007F0
7F000003F0
7E000003F8
FE000003F8
FE000003F8
FFFFFFFFF8
FFFFFFFFF8
FFFFFFFFF8
FFFFFFFFF8
FFFFFFFFF8
FE00000000
FE00000000
FE00000000
FE00000000
7E00000000
7F00000000
7F000007F0
7F000007F0
3F80000FE0
3FC0000FE0
1FE0001FE0
1FF0003FC0
0FF8007FC0
0FFE03FF80
07FFFFFF00
03FFFFFE00
01FFFFFC00
007FFFF000
001FFFC000
0003FE0000
ENDCHAR
STARTCHAR 00EB
ENCODING 235
SWIDTH 552 0
DWIDTH 43 0
BBX 37 58 3 -2
BITMAP
007F87FC00
007F87FC00
007F87FC00
007F87FC00
007F87FC00
007F87FC00
007F87FC00
007F87FC00
0000000000
0000000000
0000000000
0000000000
0000000000
0000000000
0003FE0000
001FFFC000
007FFFF000
00FFFFFC00
01FFFFFE00
03FFFFFF00
07FE03FF80
0FF800FFC0
0FF0003FC0
1FE0001FE0
3FC0000FE0
3F80000FF0
3F800007F0
7F000007F0
7F000007F0
7F000003F0
7E000003F8
FE000003F8
FE000003F8
FFFFFFFFF8
FFFFFFFFF8
FFFFFFFFF8
FFFFFFFFF8
FFFFFFFFF8
FE00000000
FE00000000
FE00000000
FE00000000
7E00000000
7F00000000
7F000007F0
7F000007F0
3F80000FE0
3FC0000FE0
1FE0001FE0
1FF0003FC0
0FF8007FC0
0FFE03FF80
07FFFFFF00
03FFFFFE00
01FFFFFC00
007FFFF000
001FFFC000
0003FE0000
ENDCHAR
STARTCHAR 00EC
ENCODING 236
SWIDTH 282 0
DWIDTH 22 0
BBX 16 58 0 0
BITMAP
FF80
7F80
3FC0
1FE0
0FE0
07F0
03F8
01F8
00FC
007C
003E
001F
0000
0000
0000
0000
0000
01FC
01FC
01FC
01FC
01FC
01FC
01FC
01FC
01FC
01FC
01FC
01FC
01FC
01FC
01FC
01FC
01FC
01FC
01FC
01FC
01FC
01FC
01FC
01FC
01FC
01FC
01FC
01FC
01FC
01FC
01FC
01FC
01FC
01FC
01FC
01FC
01FC
01FC
01FC
01FC
01FC
ENDCHAR
STARTCHAR 00ED
ENCODING 237
SWIDTH 282 0
DWIDTH 22 0
BBX 16 58 5 0
BITMAP
01FF
01FE
03FC
07F8
07F0
0FE0
1FC0
1F80
3F00
7E00
7C00
F800
0000
0000
0000
0000
0000
3F80
3F80
3F80
3F80
3F80
3F80
3F80
3F80
3F80
3F80
3F80
3F80
3F80
3F80
3F80
3F80
3F80
3F80
3F80
3F80
3F80
3F80
3F80
3F80
3F80
3F80
3F80
3F80
3F80
3F80
3F80
3F80
3F80
3F80
3F80
3F80
3F80
3F80
3F80
3F80
3F80
ENDCHAR
STARTCHAR 00EE
ENCODING 238
SWIDTH 282 0
DWIDTH 22 0
BBX 22 58 0 0
BITMAP
01FE00
03FE00
07FF00
07FF80
0FDF80
1FCFC0
1F8FC0
3F07E0
3E03F0
7C01F0
F800F8
F8007C
000000
000000
000000
000000
000000
01FC00
01FC00
01FC00
01FC00
01FC00
01FC00
01FC00
01FC00
01FC00
01FC00
01FC00
01FC00
01FC00
01FC00
01FC00
01FC00
01FC00
01FC00
01FC00
01FC00
01FC00
01FC00
01FC00
01FC00
01FC00
01FC00
01FC00
01FC00
01FC00
01FC00
01FC00
01FC00
01FC00
01FC00
01FC00
01FC00
01FC00
01FC00
01FC00
01FC00
01FC00
ENDCHAR
STARTCHAR 00EF
ENCODING 239
SWIDTH 282 0
DWIDTH 22 0
BBX 21 55 0 0
BITMAP
FF07F8
FF07F8
FF07F8
FF07F8
FF07F8
FF07F8
FF07F8
FF07F8
000000
000000
000000
000000
000000
000000
01FC00
01FC00
01FC00
01FC00
01FC00
01FC00
01FC00
01FC00
01FC00
01FC00
01FC00
01FC00
01FC00
01FC00
01FC00
01FC00
01FC00
01FC00
01FC00
01FC00
01FC00
01FC00
01FC00
01FC00
01FC00
01FC00
01FC00
01FC00
01FC00
01FC00
01FC00
01FC00
01FC00
01FC00
01FC00
01FC00
01FC00
01FC00
01FC00
01FC00
01FC00
ENDCHAR
STARTCHAR 00F0
ENCODING 240
SWIDTH 552 0
DWIDTH 43 0
BBX 37 60 3 -2
BITMAP
0180000000
03E0010000
07F0078000
0FFC1FC000
03FE7FC000
01FFFF0000
007FFC0000
003FF00000
00FFF80000
03FFFC0000
0FFBFE0000
07E0FF8000
07807FC000
02003FE000
00001FF000
00000FF000
0007F7F800
003FFFFC00
00FFFFFE00
01FFFFFE00
03FFFFFF00
07FFFFFF80
0FFC03FF80
1FF000FFC0
1FE0007FC0
3FC0003FE0
3F80001FE0
7F80000FE0
7F00000FF0
7F000007F0
7F000007F0
FE000007F0
FE000007F0
FE000003F0
FE000003F8
FE000003F8
FE000003F8
FE000003F8
FE000003F8
FE000003F8
FE000003F8
FE000003F8
FE000003F0
FE000007F0
FE000007F0
7F000007F0
7F000007F0
7F00000FE0
7F80000FE0
3FC0001FE0
3FC0003FC0
1FE0007FC0
1FF800FF80
0FFE03FF00
07FFFFFF00
03FFFFFE00
01FFFFFC00
00FFFFF000
003FFFC000
0007FE0000
ENDCHAR
STARTCHAR 00F1
ENCODING 241
SWIDTH 552 0
DWIDTH 43 0
BBX 33 56 5 0
BITMAP
007C00F800
01FF80F800
01FFF1F000
03FFFFF000
07FFFFF000
07E7FFE000
07C0FFC000
07801F8000
0000000000
0000000000
0000000000
0000000000
0000000000
0000000000
0001FF0000
FC07FFE000
FC1FFFF800
FC3FFFFC00
FC7FFFFE00
FCFFFFFE00
FDFC03FF00
FDF000FF00
FFE0007F80
FFC0007F80
FF80003F80
FF80003F80
FF00003F80
FF00003F80
FF00003F80
FE00003F80
FE00003F80
FE00003F80
FE00003F80
FE00003F80
FE00003F80
FE00003F80
FE00003F80
FE00003F80
FE00003F80
FE00003F80
FE00003F80
FE00003F80
FE00003F80
FE00003F80
FE00003F80
FE00003F80
FE00003F80
FE00003F80
FE00003F80
FE00003F80
FE00003F80
FE00003F80
FE00003F80
FE00003F80
FE00003F80
FE00003F80
ENDCHAR
STARTCHAR 00F2
ENCODING 242
SWIDTH 552 0
DWIDTH 43 0
BBX 37 60 3 -2
BITMAP
00FF000000
007F800000
003FC00000
001FC00000
000FE00000
0007F00000
0003F00000
0001F80000
0000F80000
00007C0000
00003E0000
00001E0000
0000000000
0000000000
0000000000
0000000000
0003FE0000
003FFFC000
007FFFF000
01FFFFFC00
03FFFFFE00
07FFFFFF00
0FFE03FF00
1FF800FF80
1FE0007FC0
3FC0003FC0
3FC0001FE0
3F80000FE0
7F00000FE0
7F00000FF0
7F000007F0
FE000007F0
FE000007F0
FE000003F0
FE000003F8
FE000003F8
FE000003F8
FE000003F8
FE000003F8
FE000003F8
FE000003F8
FE000003F8
FE000003F0
FE000007F0
FE000007F0
7F000007F0
7F000007F0
7F00000FE0
7F80000FE0
3FC0001FE0
3FC0003FC0
1FE0007FC0
1FF800FF80
0FFE03FF00
07FFFFFF00
03FFFFFE00
01FFFFF800
00FFFFF000
003FFFC000
0003FE0000
ENDCHAR
STARTCHAR 00F3
ENCODING 243
SWIDTH 552 0
DWIDTH 43 0
BBX 37 60 3 -2
BITMAP
00000FF000
00001FE000
00001FE000
00003FC000
00007F8000
00007F0000
0000FE0000
0001FC0000
0001F80000
0003F00000
0003E00000
0007C00000
0000000000
0000000000
0000000000
0000000000
0003FE0000
003FFFC000
007FFFF000
01FFFFFC00
03FFFFFE00
07FFFFFF00
0FFE03FF00
1FF800FF80
1FE0007FC0
3FC0003FC0
3FC0001FE0
3F80000FE0
7F00000FE0
7F00000FF0
7F000007F0
FE000007F0
FE000007F0
FE000003F0
FE000003F8
FE000003F8
FE000003F8
FE000003F8
FE000003F8
FE000003F8
FE000003F8
FE000003F8
FE000003F0
FE000007F0
FE000007F0
7F000007F0
7F000007F0
7F00000FE0
7F80000FE0
3FC0001FE0
3FC0003FC0
1FE0007FC0
1FF800FF80
0FFE03FF00
07FFFFFF00
03FFFFFE00
01FFFFF800
00FFFFF000
003FFFC000
0003FE0000
ENDCHAR
STARTCHAR 00F4
ENCODING 244
SWIDTH 552 0
DWIDTH 43 0
BBX 37 60 3 -2
BITMAP
0003FC0000
0003FE0000
0007FE0000
000FFF0000
000FFF8000
001F9F8000
003F0FC000
003F07E000
007E03E000
007C03F000
00F801F800
01F000F800
0000000000
0000000000
0000000000
0000000000
0003FE0000
003FFFC000
007FFFF000
01FFFFFC00
03FFFFFE00
07FFFFFF00
0FFE03FF00
1FF800FF80
1FE0007FC0
3FC0003FC0
3FC0001FE0
3F80000FE0
7F00000FE0
7F00000FF0
7F000007F0
FE000007F0
FE000007F0
FE000003F0
FE000003F8
FE000003F8
FE000003F8
FE000003F8
FE000003F8
FE000003F8
FE000003F8
FE000003F8
FE000003F0
FE000007F0
FE000007F0
7F000007F0
7F000007F0
7F00000FE0
7F80000FE0
3FC0001FE0
3FC0003FC0
1FE0007FC0
1FF800FF80
0FFE03FF00
07FFFFFF00
03FFFFFE00
01FFFFF800
00FFFFF000
003FFFC000
0003FE0000
ENDCHAR
STARTCHAR 00F5
ENCODING 245
SWIDTH 552 0
DWIDTH 43 0
BBX 37 58 3 -2
BITMAP
001F003E00
007FE03C00
00FFFCFC00
00FFFFFC00
01FFFFF800
01F1FFF800
01E03FF000
03E007C000
0000000000
0000000000
0000000000
0000000000
0000000000
0000000000
0003FE0000
003FFFC000
007FFFF000
01FFFFFC00
03FFFFFE00
07FFFFFF00
0FFE03FF00
1FF800FF80
1FE0007FC0
3FC0003FC0
3FC0001FE0
3F80000FE0
7F00000FE0
7F00000FF0
7F000007F0
FE000007F0
FE000007F0
FE000003F0
FE000003F8
FE000003F8
FE000003F8
FE000003F8
FE000003F8
FE000003F8
FE000003F8
FE000003F8
FE000003F0
FE000007F0
FE000007F0
7F000007F0
7F000007F0
7F00000FE0
7F80000FE0
3FC0001FE0
3FC0003FC0
1FE0007FC0
1FF800FF80
0FFE03FF00
07FFFFFF00
03FFFFFE00
01FFFFF800
00FFFFF000
003FFFC000
0003FE0000
ENDCHAR
STARTCHAR 00F6
ENCODING 246
SWIDTH 552 0
DWIDTH 43 0
BBX 37 58 3 -2
BITMAP
00FF0FF800
00FF0FF800
00FF0FF800
00FF0FF800
00FF0FF800
00FF0FF800
00FF0FF800
00FF0FF800
0000000000
0000000000
0000000000
0000000000
0000000000
0000000000
0003FE0000
003FFFC000
007FFFF000
01FFFFFC00
03FFFFFE00
07FFFFFF00
0FFE03FF00
1FF800FF80
1FE0007FC0
3FC0003FC0
3FC0001FE0
3F80000FE0
7F00000FE0
7F00000FF0
7F000007F0
FE000007F0
FE000007F0
FE000003F0
FE000003F8
FE000003F8
FE000003F8
FE000003F8
FE000003F8
FE000003F8
FE000003F8
FE000003F8
FE000003F0
FE000007F0
FE000007F0
7F000007F0
7F000007F0
7F00000FE0
7F80000FE0
3FC0001FE0
3FC0003FC0
1FE0007FC0
1FF800FF80
0FFE03FF00
07FFFFFF00
03FFFFFE00
01FFFFF800
00FFFFF000
003FFFC000
0003FE0000
ENDCHAR
STARTCHAR 00F7
ENCODING 247
SWIDTH 578 0
DWIDTH 45 0
BBX 38 37 4 0
BITMAP
0001FE0000
0001FE0000
0001FE0000
0001FE0000
0001FE0000
0001FE0000
0001FE0000
0001FE0000
0000000000
0000000000
0000000000
0000000000
0000000000
0000000000
0000000000
0000000000
FFFFFFFFFC
FFFFFFFFFC
FFFFFFFFFC
FFFFFFFFFC
FFFFFFFFFC
0000000000
0000000000
0000000000
0000000000
0000000000
0000000000
0000000000
0000000000
0001FE0000
0001FE0000
0001FE0000
0001FE0000
0001FE0000
0001FE0000
0001FE0000
0001FE0000
ENDCHAR
STARTCHAR 00F8
ENCODING 248
SWIDTH 617 0
DWIDTH 48 0
BBX 39 44 2 -3
BITMAP
0001FF0008
001FFFE01C
003FFFF83E
00FFFFFC3C
01FFFFFF78
03FFFFFFF0
07FF03FFE0
0FFC007FC0
0FF0003FE0
1FE0001FE0
1FE0001FF0
3FC0001FF0
3F80003FF0
3F80007BF8
3F8000F3F8
7F0001E3F8
7F0003E3F8
7F0007C1F8
7F000F81FC
7F001F01FC
7F001E01FC
7F003C01FC
7F007801FC
7F00F001FC
7F01F001FC
7F03E001FC
7F07C001F8
7F0F8003F8
7F0F0003F8
3F9E0003F8
3FBC0003F8
3FF80007F0
3FF80007F0
1FF0000FF0
1FE0001FE0
0FF0003FE0
0FFC007FC0
0FFF01FF80
1FFFFFFF80
3DFFFFFF00
78FFFFFC00
F83FFFF800
F01FFFE000
6001FF0000
ENDCHAR
STARTCHAR 00F9
ENCODING 249
SWIDTH 552 0
DWIDTH 43 0
BBX 32 60 5 -2
BITMAP
03FC0000
01FE0000
00FF0000
007F0000
003F8000
001F8000
000FC000
0007E000
0003E000
0001F000
0000F800
00007800
00000000
00000000
00000000
00000000
00000000
FE00003F
FE00003F
FE00003F
FE00003F
FE00003F
FE00003F
FE00003F
FE00003F
FE00003F
FE00003F
FE00003F
FE00003F
FE00003F
FE00003F
FE00003F
FE00003F
FE00003F
FE00003F
FE00003F
FE00003F
FE00003F
FE00003F
FE00003F
FE00003F
FE00003F
FE00003F
FE00003F
FE00003F
FE00007F
FE00007F
FE00007F
FE0000FF
FE0000FF
FF0001FF
FF0003FF
7F8007DF
7FE01FDF
7FFFFF9F
3FFFFF1F
1FFFFE1F
0FFFFC1F
03FFF000
007F8000
ENDCHAR
STARTCHAR 00FA
ENCODING 250
SWIDTH 552 0
DWIDTH 43 0
BBX 32 60 5 -2
BITMAP
00003FC0
00007F80
0000FF00
0000FE00
0001FC00
0003F800
0003F000
0007E000
0007C000
000F8000
001F0000
001E0000
00000000
00000000
00000000
00000000
00000000
FE00003F
FE00003F
FE00003F
FE00003F
FE00003F
FE00003F
FE00003F
FE00003F
FE00003F
FE00003F
FE00003F
FE00003F
FE00003F
FE00003F
FE00003F
FE00003F
FE00003F
FE00003F
FE00003F
FE00003F
FE00003F
FE00003F
FE00003F
FE00003F
FE00003F
FE00003F
FE00003F
FE00003F
FE00007F
FE00007F
FE00007F
FE0000FF
FE0000FF
FF0001FF
FF0003FF
7F8007DF
7FE01FDF
7FFFFF9F
3FFFFF1F
1FFFFE1F
0FFFFC1F
03FFF000
007F8000
ENDCHAR
STARTCHAR 00FB
ENCODING 251
SWIDTH 552 0
DWIDTH 43 0
BBX 32 60 5 -2
BITMAP
000FF000
000FF800
001FFC00
003FFC00
003F7E00
007E7F00
007C3F00
00FC1F80
01F80F80
01F007C0
03E003E0
07C003E0
00000000
00000000
00000000
00000000
00000000
FE00003F
FE00003F
FE00003F
FE00003F
FE00003F
FE00003F
FE00003F
FE00003F
FE00003F
FE00003F
FE00003F
FE00003F
FE00003F
FE00003F
FE00003F
FE00003F
FE00003F
FE00003F
FE00003F
FE00003F
FE00003F
FE00003F
FE00003F
FE00003F
FE00003F
FE00003F
FE00003F
FE00003F
FE00007F
FE00007F
FE00007F
FE0000FF
FE0000FF
FF0001FF
FF0003FF
7F8007DF
7FE01FDF
7FFFFF9F
3FFFFF1F
1FFFFE1F
0FFFFC1F
03FFF000
007F8000
ENDCHAR
STARTCHAR 00FC
ENCODING 252
SWIDTH 552 0
DWIDTH 43 0
BBX 32 58 5 -2
BITMAP
03FC1FE0
03FC1FE0
03FC1FE0
03FC1FE0
03FC1FE0
03FC1FE0
03FC1FE0
03FC1FE0
00000000
00000000
00000000
00000000
00000000
00000000
00000000
FE00003F
FE00003F
FE00003F
FE00003F
FE00003F
FE00003F
FE00003F
FE00003F
FE00003F
FE00003F
FE00003F
FE00003F
FE00003F
FE00003F
FE00003F
FE00003F
FE00003F
FE00003F
FE00003F
FE00003F
FE00003F
FE00003F
FE00003F
FE00003F
FE00003F
FE00003F
FE00003F
FE00003F
FE00007F
FE00007F
FE00007F
FE0000FF
FE0000FF
FF0001FF
FF0003FF
7F8007DF
7FE01FDF
7FFFFF9F
3FFFFF1F
1FFFFE1F
0FFFFC1F
03FFF000
007F8000
ENDCHAR
STARTCHAR 00FD
ENCODING 253
SWIDTH 501 0
DWIDTH 39 0
BBX 35 75 2 -17
BITMAP
00001FE000
00003FC000
00007F8000
00007F0000
0000FE0000
0000FC0000
0001F80000
0003F00000
0003E00000
0007C00000
000F800000
000F000000
0000000000
0000000000
0000000000
0000000000
0000000000
FE00000FE0
FE00000FE0
FE00001FC0
7F00001FC0
7F00001FC0
7F00003F80
3F80003F80
3F80003F00
3F80007F00
1FC0007F00
1FC000FE00
1FC000FE00
0FE000FE00
0FE001FC00
0FE001FC00
07F001FC00
07F003F800
07F003F800
03F803F000
03F807F000
03F807F000
01FC07E000
01FC0FE000
01FC0FE000
00FC0FC000
00FE1FC000
00FE1F8000
007E3F8000
007F3F8000
007F3F0000
003F7F0000
003FFF0000
003FFE0000
001FFE0000
001FFE0000
001FFC0000
000FFC0000
000FF80000
000FF80000
0007F80000
0007F00000
0007F00000
0007F00000
000FE00000
000FE00000
000FE00000
001FC00000
001FC00000
003F800000
003F800000
007F800000
39FF000000
3FFF000000
3FFE000000
3FFC000000
3FF8000000
3FF0000000
1FC0000000
ENDCHAR
STARTCHAR 00FE
ENCODING 254
SWIDTH 552 0
DWIDTH 43 0
BBX 37 73 4 -17
BITMAP
FE00000000
FE00000000
FE00000000
FE00000000
FE00000000
FE00000000
FE00000000
FE00000000
FE00000000
FE00000000
FE00000000
FE00000000
FE00000000
FE00000000
FE01FE0000
FE0FFFC000
FE1FFFF000
FE7FFFF800
FEFFFFFE00
FFFFFFFE00
FFFE07FF00
FFF801FF80
FFE0007F80
FFC0003FC0
FFC0001FC0
FF80001FE0
FF80000FE0
FF00000FF0
FF000007F0
FE000007F0
FE000007F0
FE000007F0
FE000003F0
FE000003F8
FE000003F8
FE000003F8
FE000003F8
FE000003F8
FE000003F8
FE000003F8
FE000003F0
FE000007F0
FE000007F0
FF000007F0
FF00000FF0
FF80000FE0
FF80001FE0
FFC0001FE0
FFE0003FC0
FFF0007FC0
FFF801FF80
FFFE07FF00
FFFFFFFF00
FEFFFFFE00
FE7FFFF800
FE3FFFF000
FE0FFFC000
FE01FE0000
FE00000000
FE00000000
FE00000000
FE00000000
FE00000000
FE00000000
FE00000000
FE00000000
FE00000000
FE00000000
FE00000000
FE00000000
FE00000000
FE00000000
FE00000000
ENDCHAR
STARTCHAR 00FF
ENCODING 255
SWIDTH 501 0
DWIDTH 39 0
BBX 35 73 2 -17
BITMAP
01FE1FE000
01FE1FE000
01FE1FE000
01FE1FE000
01FE1FE000
01FE1FE000
01FE1FE000
01FE1FE000
0000000000
0000000000
0000000000
0000000000
0000000000
0000000000
0000000000
FE00000FE0
FE00000FE0
FE00001FC0
7F00001FC0
7F00001FC0
7F00003F80
3F80003F80
3F80003F00
3F80007F00
1FC0007F00
1FC000FE00
1FC000FE00
0FE000FE00
0FE001FC00
0FE001FC00
07F001FC00
07F003F800
07F003F800
03F803F000
03F807F000
03F807F000
01FC07E000
01FC0FE000
01FC0FE000
00FC0FC000
00FE1FC000
00FE1F8000
007E3F8000
007F3F8000
007F3F0000
003F7F0000
003FFF0000
003FFE0000
001FFE0000
001FFE0000
001FFC0000
000FFC0000
000FF80000
000FF80000
0007F80000
0007F00000
0007F00000
0007F00000
000FE00000
000FE00000
000FE00000
001FC00000
001FC00000
003F800000
003F800000
007F800000
39FF000000
3FFF000000
3FFE000000
3FFC000000
3FF8000000
3FF0000000
1FC0000000
ENDCHAR
STARTCHAR 0100
ENCODING 256
SWIDTH 668 0
DWIDTH 52 0
BBX 50 70 1 0
BITMAP
0003FFFFF00000
0003FFFFF00000
0003FFFFF00000
0003FFFFF00000
0003FFFFF00000
00000000000000
00000000000000
00000000000000
00000000000000
00000000000000
00000000000000
00000000000000
00000000000000
00000FFC000000
00000FFC000000
00000FFE000000
00001FFE000000
00001FFE000000
00001FFF000000
00003FFF000000
00003FFF800000
00003FFF800000
00007FBF800000
00007F3FC00000
0000FF3FC00000
0000FE1FC00000
0000FE1FE00000
0001FE1FE00000
0001FC0FE00000
0001FC0FF00000
0003FC0FF00000
0003F807F00000
0003F807F80000
0007F807F80000
0007F003F80000
0007F003FC0000
000FF003FC0000
000FE001FC0000
001FE001FE0000
001FC001FE0000
001FC000FE0000
003FC000FF0000
003F8000FF0000
003F80007F8000
007F80007F8000
007F00007F8000
007F00003FC000
00FFFFFFFFC000
00FFFFFFFFC000
00FFFFFFFFE000
01FFFFFFFFE000
01FFFFFFFFE000
01FFFFFFFFF000
03FC00000FF000
03F800000FF000
07F8000007F800
07F8000007F800
07F0000007F800
0FF0000003FC00
0FF0000003FC00
0FE0000003FC00
1FE0000001FE00
1FE0000001FE00
1FC0000001FF00
3FC0000000FF00
3FC0000000FF00
3F80000000FF80
7F800000007F80
7F800000007F80
FF000000003FC0
ENDCHAR
STARTCHAR 0101
ENCODING 257
SWIDTH 552 0
DWIDTH 43 0
BBX 39 56 3 -2
BITMAP
00FFFFF800
00FFFFF800
00FFFFF800
00FFFFF800
00FFFFF800
0000000000
0000000000
0000000000
0000000000
0000000000
0000000000
0000000000
0007FF0000
003FFFE000
00FFFFF800
03FFFFFE00
07FFFFFF00
0FFFFFFF00
0FFC03FF80
1FF0007F80
1FC0003F80
1FC0001FC0
3F80001FC0
3F80001FC0
3F80001FC0
0000001FC0
0000001FC0
0000001FC0
0000003FC0
0000007FC0
00000FFFC0
0007FFFFC0
007FFFFFC0
03FFFFFFC0
07FFFFDFC0
0FFFFC1FC0
1FFE001FC0
3FE0001FC0
7FC0001FC0
7F00001FC0
7F00001FC0
FE00001FC0
FE00001FC0
FE00001FC0
FE00001FC0
FE00003FC0
FF00007FC0
7F0000FFC0
7F8003FFC0
7FE00FFFC0
3FFFFFEFFA
1FFFFFCFFE
0FFFFF0FFE
07FFFE07FE
03FFF807FE
007FC001FC
ENDCHAR
STARTCHAR 0102
ENCODING 258
SWIDTH 668 0
DWIDTH 52 0
BBX 50 72 1 0
BITMAP
0007C000F80000
0007E000F80000
0003E001F00000
0003F003F00000
0003FF3FF00000
0001FFFFE00000
0000FFFFC00000
00007FFF800000
00003FFF000000
000007F8000000
00000000000000
00000000000000
00000000000000
00000000000000
00000000000000
00000FFC000000
00000FFC000000
00000FFE000000
00001FFE000000
00001FFE000000
00001FFF000000
00003FFF000000
00003FFF800000
00003FFF800000
00007FBF800000
00007F3FC00000
0000FF3FC00000
0000FE1FC00000
0000FE1FE00000
0001FE1FE00000
0001FC0FE00000
0001FC0FF00000
0003FC0FF00000
0003F807F00000
0003F807F80000
0007F807F80000
0007F003F80000
0007F003FC0000
000FF003FC0000
000FE001FC0000
001FE001FE0000
001FC001FE0000
001FC000FE0000
003FC000FF0000
003F8000FF0000
003F80007F8000
007F80007F8000
007F00007F8000
007F00003FC000
00FFFFFFFFC000
00FFFFFFFFC000
00FFFFFFFFE000
01FFFFFFFFE000
01FFFFFFFFE000
01FFFFFFFFF000
03FC00000FF000
03F800000FF000
07F8000007F800
07F8000007F800
07F0000007F800
0FF0000003FC00
0FF0000003FC00
0FE0000003FC00
1FE0000001FE00
1FE0000001FE00
1FC0000001FF00
3FC0000000FF00
3FC0000000FF00
3F80000000FF80
7F800000007F80
7F800000007F80
FF000000003FC0
ENDCHAR
STARTCHAR 0103
ENCODING 259
SWIDTH 552 0
DWIDTH 43 0
BBX 39 59 3 -2
BITMAP
01E0007C00
01F0007C00
01F0007C00
01F800F800
01FE03F800
00FFFFF800
007FFFF000
003FFFE000
001FFFC000
0007FF0000
0000000000
0000000000
0000000000
0000000000
0000000000
0007FF0000
003FFFE000
00FFFFF800
03FFFFFE00
07FFFFFF00
0FFFFFFF00
0FFC03FF80
1FF0007F80
1FC0003F80
1FC0001FC0
3F80001FC0
3F80001FC0
3F80001FC0
0000001FC0
0000001FC0
0000001FC0
0000003FC0
0000007FC0
00000FFFC0
0007FFFFC0
007FFFFFC0
03FFFFFFC0
07FFFFDFC0
0FFFFC1FC0
1FFE001FC0
3FE0001FC0
7FC0001FC0
7F00001FC0
7F00001FC0
FE00001FC0
FE00001FC0
FE00001FC0
FE00001FC0
FE00003FC0
FF00007FC0
7F0000FFC0
7F8003FFC0
7FE00FFFC0
3FFFFFEFFA
1FFFFFCFFE
0FFFFF0FFE
07FFFE07FE
03FFF807FE
007FC001FC
ENDCHAR
STARTCHAR 0104
ENCODING 260
SWIDTH 668 0
DWIDTH 52 0
BBX 53 73 1 -16
BITMAP
00000FFC000000
00000FFC000000
00000FFE000000
00001FFE000000
00001FFE000000
00001FFF000000
00003FFF000000
00003FFF800000
00003FFF800000
00007FBF800000
00007F3FC00000
0000FF3FC00000
0000FE1FC00000
0000FE1FE00000
0001FE1FE00000
0001FC0FE00000
0001FC0FF00000
0003FC0FF00000
0003F807F00000
0003F807F80000
0007F807F80000
0007F003F80000
0007F003FC0000
000FF003FC0000
000FE001FC0000
001FE001FE0000
001FC001FE0000
001FC000FE0000
003FC000FF0000
003F8000FF0000
003F80007F8000
007F80007F8000
007F00007F8000
007F00003FC000
00FFFFFFFFC000
00FFFFFFFFC000
00FFFFFFFFE000
01FFFFFFFFE000
01FFFFFFFFE000
01FFFFFFFFF000
03FC00000FF000
03F800000FF000
07F8000007F800
07F8000007F800
07F0000007F800
0FF0000003FC00
0FF0000003FC00
0FE0000003FC00
1FE0000001FE00
1FE0000001FE00
1FC0000001FF00
3FC0000000FF00
3FC0000000FF00
3F80000000FF80
7F800000007F80
7F800000007F80
FF000000003FC0
00000000001F80
00000000003E00
0000000000FC00
0000000001F000
0000000003F000
0000000007E000
0000000007E000
0000000007C000
0000000007C000
0000000007E000
0000000007E000
0000000007F000
0000000003FFF8
0000000001FFF8
0000000000FFF8
00000000001FE0
ENDCHAR
STARTCHAR 0105
ENCODING 261
SWIDTH 552 0
DWIDTH 43 0
BBX 43 58 3 -16
BITMAP
0007FF000000
003FFFF00000
00FFFFF80000
03FFFFFE0000
07FFFFFF0000
0FFFFFFF0000
0FFC03FF8000
1FF0007F8000
1FE0003FC000
1FC0001FC000
3F80001FC000
3F80001FC000
3F80001FC000
0000001FC000
0000001FC000
0000001FC000
0000003FC000
0000007FC000
00000FFFC000
0007FFFFC000
007FFFFFC000
03FFFFFFC000
07FFFFDFC000
0FFFFC1FC000
1FFE001FC000
3FE0001FC000
7FC0001FC000
7F00001FC000
7F00001FC000
7E00001FC000
FE00001FC000
FE00001FC000
FE00001FC000
FE00003FC000
7F00007FC000
7F0000FFC000
7F8003FFC000
3FE00FFFE000
3FFFFFEFFA00
1FFFFFCFFE00
0FFFFF8FFE00
07FFFE07FE00
01FFF807FE00
007FC001FC00
00000000F000
00000003E000
00000007C000
0000000F8000
0000000F8000
0000001F8000
0000001F8000
0000001F8000
0000001F8000
0000000FC000
0000000FFDE0
00000007FFE0
00000001FFE0
000000003FC0
ENDCHAR
STARTCHAR 0106
ENCODING 262
SWIDTH 720 0
DWIDTH 56 0
BBX 49 75 4 -2
BITMAP
0000001FF00000
0000003FC00000
0000003F800000
0000007F000000
000000FE000000
000000FC000000
000001F8000000
000003F0000000
000003E0000000
000007C0000000
00000780000000
00000000000000
00000000000000
00000000000000
00000000000000
00000FFE000000
0000FFFFE00000
0003FFFFF80000
000FFFFFFE0000
001FFFFFFF0000
007FFFFFFF8000
00FFFF3FFFC000
01FFE000FFE000
01FF00003FF000
03FE00001FF000
07FC00000FF800
07F8000007F800
0FF0000003FC00
1FE0000001FC00
1FE0000001FE00
1FC0000001FE00
3FC0000000FE00
3F80000000FE00
7F80000000FE00
7F000000000000
7F000000000000
7F000000000000
FF000000000000
FE000000000000
FE000000000000
FE000000000000
FE000000000000
FE000000000000
FE000000000000
FE000000000000
FE000000000000
FE000000000000
FE000000000000
FE000000000000
FE000000000000
FE000000000000
FF000000000000
FF000000007F80
7F000000007F80
7F000000007F00
7F800000007F00
7F80000000FF00
3F80000000FF00
3FC0000000FF00
3FC0000001FE00
1FE0000001FE00
1FE0000003FE00
0FF0000003FC00
0FF8000007FC00
07FC00000FF800
03FE00001FF800
03FF80003FF000
01FFE000FFE000
00FFFF1FFFC000
007FFFFFFF8000
003FFFFFFF0000
000FFFFFFE0000
0007FFFFF80000
0000FFFFE00000
00001FFE000000
ENDCHAR
STARTCHAR 0107
ENCODING 263
SWIDTH 501 0
DWIDTH 39 0
BBX 35 60 2 -2
BITMAP
000007F800
00000FF000
00000FF000
00001FE000
00003FC000
00003F8000
00007F0000
0000FE0000
0000FC0000
0001F80000
0001F00000
0003E00000
0000000000
0000000000
0000000000
0000000000
0003FE0000
001FFFC000
007FFFF000
00FFFFF800
01FFFFFE00
03FFFFFF00
07FE03FF00
0FF800FF80
0FF0007F80
1FE0003FC0
1FC0001FC0
3F80001FC0
3F80000FC0
3F80000FE0
7F00000FE0
7F00000000
7F00000000
7F00000000
7E00000000
7E00000000
FE00000000
FE00000000
FE00000000
FE00000000
FE00000000
7E00000000
7F00000000
7F00000000
7F000007E0
7F00000FE0
7F80000FE0
3F80000FE0
3F80001FC0
3FC0001FC0
1FE0003FC0
1FF0007F80
0FF800FF80
07FE03FF00
03FFFFFE00
01FFFFFC00
00FFFFF800
007FFFF000
001FFFC000
0003FE0000
ENDCHAR
STARTCHAR 0108
ENCODING 264
SWIDTH 720 0
DWIDTH 56 0
BBX 49 75 4 -2
BITMAP
000007F8000000
00000FFC000000
00001FFE000000
00001FFE000000
00003F3F000000
00003F3F800000
00007E1F800000
0000FC0FC00000
0000F807C00000
0001F003E00000
0003E001F00000
00000000000000
00000000000000
00000000000000
00000000000000
00000FFE000000
0000FFFFE00000
0003FFFFF80000
000FFFFFFE0000
001FFFFFFF0000
007FFFFFFF8000
00FFFF3FFFC000
01FFE000FFE000
01FF00003FF000
03FE00001FF000
07FC00000FF800
07F8000007F800
0FF0000003FC00
1FE0000001FC00
1FE0000001FE00
1FC0000001FE00
3FC0000000FE00
3F80000000FE00
7F80000000FE00
7F000000000000
7F000000000000
7F000000000000
FF000000000000
FE000000000000
FE000000000000
FE000000000000
FE000000000000
FE000000000000
FE000000000000
FE000000000000
FE000000000000
FE000000000000
FE000000000000
FE000000000000
FE000000000000
FE000000000000
FF000000000000
FF000000007F80
7F000000007F80
7F000000007F00
7F800000007F00
7F80000000FF00
3F80000000FF00
3FC0000000FF00
3FC0000001FE00
1FE0000001FE00
1FE0000003FE00
0FF0000003FC00
0FF8000007FC00
07FC00000FF800
03FE00001FF800
03FF80003FF000
01FFE000FFE000
00FFFF1FFFC000
007FFFFFFF8000
003FFFFFFF0000
000FFFFFFE0000
0007FFFFF80000
0000FFFFE00000
00001FFE000000
ENDCHAR
STARTCHAR 0109
ENCODING 265
SWIDTH 501 0
DWIDTH 39 0
BBX 35 60 2 -2
BITMAP
0001FE0000
0003FE0000
0003FF0000
0007FF8000
000FFF8000
000FCFC000
001F87E000
003F07E000
003E03F000
007E01F000
007C00F800
00F8007C00
0000000000
0000000000
0000000000
0000000000
0003FE0000
001FFFC000
007FFFF000
00FFFFF800
01FFFFFE00
03FFFFFF00
07FE03FF00
0FF800FF80
0FF0007F80
1FE0003FC0
1FC0001FC0
3F80001FC0
3F80000FC0
3F80000FE0
7F00000FE0
7F00000000
7F00000000
7F00000000
7E00000000
7E00000000
FE00000000
FE00000000
FE00000000
FE00000000
FE00000000
7E00000000
7F00000000
7F00000000
7F000007E0
7F00000FE0
7F80000FE0
3F80000FE0
3F80001FC0
3FC0001FC0
1FE0003FC0
1FF0007F80
0FF800FF80
07FE03FF00
03FFFFFE00
01FFFFFC00
00FFFFF800
007FFFF000
001FFFC000
0003FE0000
ENDCHAR
STARTCHAR 010A
ENCODING 266
SWIDTH 720 0
DWIDTH 56 0
BBX 49 73 4 -2
BITMAP
000003FC000000
000003FC000000
000003FC000000
000003FC000000
000003FC000000
000003FC000000
000003FC000000
000003FC000000
00000000000000
00000000000000
00000000000000
00000000000000
00000000000000
00000FFE000000
0000FFFFE00000
0003FFFFF80000
000FFFFFFE0000
001FFFFFFF0000
007FFFFFFF8000
00FFFF3FFFC000
01FFE000FFE000
01FF00003FF000
03FE00001FF000
07FC00000FF800
07F8000007F800
0FF0000003FC00
1FE0000001FC00
1FE0000001FE00
1FC0000001FE00
3FC0000000FE00
3F80000000FE00
7F80000000FE00
7F000000000000
7F000000000000
7F000000000000
FF000000000000
FE000000000000
FE000000000000
FE000000000000
FE000000000000
FE000000000000
FE000000000000
FE000000000000
FE000000000000
FE000000000000
FE000000000000
FE000000000000
FE000000000000
FE000000000000
FF000000000000
FF000000007F80
7F000000007F80
7F000000007F00
7F800000007F00
7F80000000FF00
3F80000000FF00
3FC0000000FF00
3FC0000001FE00
1FE0000001FE00
1FE0000003FE00
0FF0000003FC00
0FF8000007FC00
07FC00000FF800
03FE00001FF800
03FF80003FF000
01FFE000FFE000
00FFFF1FFFC000
007FFFFFFF8000
003FFFFFFF0000
000FFFFFFE0000
0007FFFFF80000
0000FFFFE00000
00001FFE000000
ENDCHAR
STARTCHAR 010B
ENCODING 267
SWIDTH 501 0
DWIDTH 39 0
BBX 35 58 2 -2
BITMAP
0001FE0000
0001FE0000
0001FE0000
0001FE0000
0001FE0000
0001FE0000
0001FE0000
0001FE0000
0000000000
0000000000
0000000000
0000000000
0000000000
0000000000
0003FE0000
001FFFC000
007FFFF000
00FFFFF800
01FFFFFE00
03FFFFFF00
07FE03FF00
0FF800FF80
0FF0007F80
1FE0003FC0
1FC0001FC0
3F80001FC0
3F80000FC0
3F80000FE0
7F00000FE0
7F00000000
7F00000000
7F00000000
7E00000000
7E00000000
FE00000000
FE00000000
FE00000000
FE00000000
FE00000000
7E00000000
7F00000000
7F00000000
7F000007E0
7F00000FE0
7F80000FE0
3F80000FE0
3F80001FC0
3FC0001FC0
1FE0003FC0
1FF0007F80
0FF800FF80
07FE03FF00
03FFFFFE00
01FFFFFC00
00FFFFF800
007FFFF000
001FFFC000
0003FE0000
ENDCHAR
STARTCHAR 010C
ENCODING 268
SWIDTH 720 0
DWIDTH 56 0
BBX 49 75 4 -2
BITMAP
0001F001F00000
0000F803E00000
0000FC07E00000
00007E07C00000
00003F0FC00000
00003F1F800000
00001FBF000000
00000FFF000000
00000FFE000000
000007FC000000
000007FC000000
00000000000000
00000000000000
00000000000000
00000000000000
00000FFE000000
0000FFFFE00000
0003FFFFF80000
000FFFFFFE0000
001FFFFFFF0000
007FFFFFFF8000
00FFFF3FFFC000
01FFE000FFE000
01FF00003FF000
03FE00001FF000
07FC00000FF800
07F8000007F800
0FF0000003FC00
1FE0000001FC00
1FE0000001FE00
1FC0000001FE00
3FC0000000FE00
3F80000000FE00
7F80000000FE00
7F000000000000
7F000000000000
7F000000000000
FF000000000000
FE000000000000
FE000000000000
FE000000000000
FE000000000000
FE000000000000
FE000000000000
FE000000000000
FE000000000000
FE000000000000
FE000000000000
FE000000000000
FE000000000000
FE000000000000
FF000000000000
FF000000007F80
7F000000007F80
7F000000007F00
7F800000007F00
7F80000000FF00
3F80000000FF00
3FC0000000FF00
3FC0000001FE00
1FE0000001FE00
1FE0000003FE00
0FF0000003FC00
0FF8000007FC00
07FC00000FF800
03FE00001FF800
03FF80003FF000
01FFE000FFE000
00FFFF1FFFC000
007FFFFFFF8000
003FFFFFFF0000
000FFFFFFE0000
0007FFFFF80000
0000FFFFE00000
00001FFE000000
ENDCHAR
STARTCHAR 010D
ENCODING 269
SWIDTH 501 0
DWIDTH 39 0
BBX 35 60 2 -2
BITMAP
00F800F800
00FC00F800
007E01F000
003E03F000
003F07E000
001F8FC000
000FCFC000
000FFF8000
0007FF0000
0003FF0000
0003FE0000
0001FE0000
0000000000
0000000000
0000000000
0000000000
0003FE0000
001FFFC000
007FFFF000
00FFFFF800
01FFFFFE00
03FFFFFF00
07FE03FF00
0FF800FF80
0FF0007F80
1FE0003FC0
1FC0001FC0
3F80001FC0
3F80000FC0
3F80000FE0
7F00000FE0
7F00000000
7F00000000
7F00000000
7E00000000
7E00000000
FE00000000
FE00000000
FE00000000
FE00000000
FE00000000
7E00000000
7F00000000
7F00000000
7F000007E0
7F00000FE0
7F80000FE0
3F80000FE0
3F80001FC0
3FC0001FC0
1FE0003FC0
1FF0007F80
0FF800FF80
07FE03FF00
03FFFFFE00
01FFFFFC00
00FFFFF800
007FFFF000
001FFFC000
0003FE0000
ENDCHAR
STARTCHAR 010E
ENCODING 270
SWIDTH 720 0
DWIDTH 56 0
BBX 45 73 7 0
BITMAP
007C007C0000
007E00F80000
003E01F80000
001F03F00000
001F87E00000
000FC7E00000
0007EFC00000
0007FF800000
0003FF800000
0003FF000000
0001FF000000
000000000000
000000000000
000000000000
000000000000
000000000000
FFFFFFE00000
FFFFFFFC0000
FFFFFFFF8000
FFFFFFFFC000
FFFFFFFFF000
FFFFFFFFF800
FE0003FFFC00
FE00001FFE00
FE000007FE00
FE000001FF00
FE000000FF80
FE0000007F80
FE0000003FC0
FE0000003FC0
FE0000001FE0
FE0000001FE0
FE0000000FE0
FE0000000FF0
FE0000000FF0
FE00000007F0
FE00000007F0
FE00000007F0
FE00000007F8
FE00000007F8
FE00000003F8
FE00000003F8
FE00000003F8
FE00000003F8
FE00000003F8
FE00000003F8
FE00000003F8
FE00000003F8
FE00000003F8
FE00000007F8
FE00000007F8
FE00000007F0
FE00000007F0
FE00000007F0
FE0000000FF0
FE0000000FF0
FE0000000FE0
FE0000001FE0
FE0000001FE0
FE0000003FC0
FE0000003FC0
FE0000007F80
FE000000FF80
FE000001FF00
FE000007FE00
FE00001FFE00
FE0003FFFC00
FFFFFFFFF800
FFFFFFFFF000
FFFFFFFFC000
FFFFFFFF0000
FFFFFFFC0000
FFFFFFE00000
ENDCHAR
STARTCHAR 010F
ENCODING 271
SWIDTH 642 0
DWIDTH 50 0
BBX 48 59 2 -2
BITMAP
00000003F07F
00000003F07F
00000003F07F
00000003F07F
00000003F07F
00000003F07F
00000003F07F
00000003F07F
00000003F007
00000003F007
00000003F007
00000003F007
00000003F00F
00000003F00E
00000003F07E
0007FC03F07C
003FFF83F078
007FFFC3F040
01FFFFF3F000
03FFFFFBF000
07FFFFFFF000
0FFF03FFF000
0FF800FFF000
1FF0007FF000
1FE0003FF000
3FC0001FF000
3F80000FF000
7F80000FF000
7F000007F000
7F000007F000
7F000007F000
FE000003F000
FE000003F000
FE000003F000
FE000003F000
FE000003F000
FE000003F000
FE000003F000
FE000003F000
FE000003F000
FE000003F000
FE000003F000
FE000003F000
7F000007F000
7F000007F000
7F000007F000
7F80000FF000
3F80000FF000
3FC0001FF000
1FE0003FF000
1FF0007FF000
0FF800FFF000
0FFF03FDF000
07FFFFF9F000
03FFFFF9F000
01FFFFF1F000
007FFFC1F000
003FFF800000
0007FC000000
ENDCHAR
STARTCHAR 0110
ENCODING 272
SWIDTH 720 0
DWIDTH 56 0
BBX 50 57 2 0
BITMAP
07FFFFFF000000
07FFFFFFF00000
07FFFFFFFC0000
07FFFFFFFE0000
07FFFFFFFF8000
07FFFFFFFFC000
07F0001FFFE000
07F00000FFF000
07F000003FF800
07F000000FF800
07F0000007FC00
07F0000003FC00
07F0000001FE00
07F0000001FE00
07F0000000FF00
07F0000000FF00
07F00000007F00
07F00000007F80
07F00000003F80
07F00000003F80
07F00000003F80
07F00000003F80
07F00000003FC0
07F00000003FC0
07F00000001FC0
FFFFFF80001FC0
FFFFFF80001FC0
FFFFFF80001FC0
FFFFFF80001FC0
FFFFFF80001FC0
07F00000001FC0
07F00000001FC0
07F00000001FC0
07F00000003FC0
07F00000003F80
07F00000003F80
07F00000003F80
07F00000003F80
07F00000007F80
07F00000007F80
07F00000007F00
07F0000000FF00
07F0000000FF00
07F0000001FE00
07F0000001FE00
07F0000003FC00
07F0000007FC00
07F000000FF800
07F000003FF000
07F00000FFF000
07F0001FFFE000
07FFFFFFFFC000
07FFFFFFFF8000
07FFFFFFFE0000
07FFFFFFFC0000
07FFFFFFE00000
07FFFFFF000000
ENDCHAR
STARTCHAR 0111
ENCODING 273
SWIDTH 552 0
DWIDTH 43 0
BBX 41 59 2 -2
BITMAP
00000003F000
00000003F000
00000003F000
00000003F000
00000003F000
00000003F000
00003FFFFF80
00003FFFFF80
00003FFFFF80
00003FFFFF80
00000003F000
00000003F000
00000003F000
00000003F000
00000003F000
0007FC03F000
003FFF83F000
007FFFC3F000
01FFFFF3F000
03FFFFFBF000
07FFFFFFF000
0FFFCFFFF000
0FFC01FFF000
1FF0007FF000
1FE0003FF000
3FC0001FF000
3F80001FF000
7F80000FF000
7F00000FF000
7F000007F000
7F000007F000
FE000007F000
FE000003F000
FE000003F000
FE000003F000
FE000003F000
FE000003F000
FE000003F000
FE000003F000
FE000003F000
FE000003F000
FE000003F000
7E000007F000
7F000007F000
7F000007F000
7F00000FF000
3F80000FF000
3FC0001FF000
3FC0001FF000
1FE0003FF000
1FF0007FF000
0FFC01FFF000
07FFCFFFF000
07FFFFFDF000
03FFFFF9F000
01FFFFF1F000
007FFFC1F000
001FFF800000
0007FC000000
ENDCHAR
STARTCHAR 0112
ENCODING 274
SWIDTH 668 0
DWIDTH 52 0
BBX 41 70 7 0
BITMAP
007FFFFC0000
007FFFFC0000
007FFFFC0000
007FFFFC0000
007FFFFC0000
000000000000
000000000000
000000000000
000000000000
000000000000
000000000000
000000000000
000000000000
FFFFFFFFFE00
FFFFFFFFFE00
FFFFFFFFFE00
FFFFFFFFFE00
FFFFFFFFFE00
FFFFFFFFFE00
FE0000000000
FE0000000000
FE0000000000
FE0000000000
FE0000000000
FE0000000000
FE0000000000
FE0000000000
FE0000000000
FE0000000000
FE0000000000
FE0000000000
FE0000000000
FE0000000000
FE0000000000
FE0000000000
FE0000000000
FE0000000000
FE0000000000
FFFFFFFFFC00
FFFFFFFFFC00
FFFFFFFFFC00
FFFFFFFFFC00
FFFFFFFFFC00
FFFFFFFFFC00
FE0000000000
FE0000000000
FE0000000000
FE0000000000
FE0000000000
FE0000000000
FE0000000000
FE0000000000
FE0000000000
FE0000000000
FE0000000000
FE0000000000
FE0000000000
FE0000000000
FE0000000000
FE0000000000
FE0000000000
FE0000000000
FE0000000000
FE0000000000
FFFFFFFFFF80
FFFFFFFFFF80
FFFFFFFFFF80
FFFFFFFFFF80
FFFFFFFFFF80
FFFFFFFFFF80
ENDCHAR
STARTCHAR 0113
ENCODING 275
SWIDTH 552 0
DWIDTH 43 0
BBX 37 56 3 -2
BITMAP
00FFFFFC00
00FFFFFC00
00FFFFFC00
00FFFFFC00
00FFFFFC00
0000000000
0000000000
0000000000
0000000000
0000000000
0000000000
0000000000
0003FE0000
001FFFC000
007FFFF000
00FFFFFC00
01FFFFFE00
03FFFFFF00
07FE03FF80
0FF800FFC0
0FF0003FC0
1FE0001FE0
3FC0000FE0
3F80000FF0
3F800007F0
7F000007F0
7F000007F0
7F000003F0
7E000003F8
FE000003F8
FE000003F8
FFFFFFFFF8
FFFFFFFFF8
FFFFFFFFF8
FFFFFFFFF8
FFFFFFFFF8
FE00000000
FE00000000
FE00000000
FE00000000
7E00000000
7F00000000
7F000007F0
7F000007F0
3F80000FE0
3FC0000FE0
1FE0001FE0
1FF0003FC0
0FF8007FC0
0FFE03FF80
07FFFFFF00
03FFFFFE00
01FFFFFC00
007FFFF000
001FFFC000
0003FE0000
ENDCHAR
STARTCHAR 0114
ENCODING 276
SWIDTH 668 0
DWIDTH 52 0
BBX 41 72 7 0
BITMAP
00F8001E0000
00F8003E0000
00FC003E0000
007E007E0000
007FE7FC0000
003FFFFC0000
003FFFF80000
000FFFF00000
0007FFC00000
0000FF000000
000000000000
000000000000
000000000000
000000000000
000000000000
FFFFFFFFFE00
FFFFFFFFFE00
FFFFFFFFFE00
FFFFFFFFFE00
FFFFFFFFFE00
FFFFFFFFFE00
FE0000000000
FE0000000000
FE0000000000
FE0000000000
FE0000000000
FE0000000000
FE0000000000
FE0000000000
FE0000000000
FE0000000000
FE0000000000
FE0000000000
FE0000000000
FE0000000000
FE0000000000
FE0000000000
FE0000000000
FE0000000000
FE0000000000
FFFFFFFFFC00
FFFFFFFFFC00
FFFFFFFFFC00
FFFFFFFFFC00
FFFFFFFFFC00
FFFFFFFFFC00
FE0000000000
FE0000000000
FE0000000000
FE0000000000
FE0000000000
FE0000000000
FE0000000000
FE0000000000
FE0000000000
FE0000000000
FE0000000000
FE0000000000
FE0000000000
FE0000000000
FE0000000000
FE0000000000
FE0000000000
FE0000000000
FE0000000000
FE0000000000
FFFFFFFFFF80
FFFFFFFFFF80
FFFFFFFFFF80
FFFFFFFFFF80
FFFFFFFFFF80
FFFFFFFFFF80
ENDCHAR
STARTCHAR 0115
ENCODING 277
SWIDTH 552 0
DWIDTH 43 0
BBX 37 59 3 -2
BITMAP
00F0003E00
00F8003E00
00F8003E00
00FC007C00
00FF01FC00
007FFFF800
003FFFF800
001FFFF000
000FFFE000
0003FF8000
0000000000
0000000000
0000000000
0000000000
0000000000
0003FE0000
001FFFC000
007FFFF000
00FFFFFC00
01FFFFFE00
03FFFFFF00
07FE03FF80
0FF800FFC0
0FF0003FC0
1FE0001FE0
3FC0000FE0
3F80000FF0
3F800007F0
7F000007F0
7F000007F0
7F000003F0
7E000003F8
FE000003F8
FE000003F8
FFFFFFFFF8
FFFFFFFFF8
FFFFFFFFF8
FFFFFFFFF8
FFFFFFFFF8
FE00000000
FE00000000
FE00000000
FE00000000
7E00000000
7F00000000
7F000007F0
7F000007F0
3F80000FE0
3FC0000FE0
1FE0001FE0
1FF0003FC0
0FF8007FC0
0FFE03FF80
07FFFFFF00
03FFFFFE00
01FFFFFC00
007FFFF000
001FFFC000
0003FE0000
ENDCHAR
STARTCHAR 0116
ENCODING 278
SWIDTH 668 0
DWIDTH 52 0
BBX 41 71 7 0
BITMAP
0000FF000000
0000FF000000
0000FF000000
0000FF000000
0000FF000000
0000FF000000
0000FF000000
0000FF000000
000000000000
000000000000
000000000000
000000000000
000000000000
000000000000
FFFFFFFFFE00
FFFFFFFFFE00
FFFFFFFFFE00
FFFFFFFFFE00
FFFFFFFFFE00
FFFFFFFFFE00
FE0000000000
FE0000000000
FE0000000000
FE0000000000
FE0000000000
FE0000000000
FE0000000000
FE0000000000
FE0000000000
FE0000000000
FE0000000000
FE0000000000
FE0000000000
FE0000000000
FE0000000000
FE0000000000
FE0000000000
FE0000000000
FE0000000000
FFFFFFFFFC00
FFFFFFFFFC00
FFFFFFFFFC00
FFFFFFFFFC00
FFFFFFFFFC00
FFFFFFFFFC00
FE0000000000
FE0000000000
FE0000000000
FE0000000000
FE0000000000
FE0000000000
FE0000000000
FE0000000000
FE0000000000
FE0000000000
FE0000000000
FE0000000000
FE0000000000
FE0000000000
FE0000000000
FE0000000000
FE0000000000
FE0000000000
FE0000000000
FE0000000000
FFFFFFFFFF80
FFFFFFFFFF80
FFFFFFFFFF80
FFFFFFFFFF80
FFFFFFFFFF80
FFFFFFFFFF80
ENDCHAR
STARTCHAR 0117
ENCODING 279
SWIDTH 552 0
DWIDTH 43 0
BBX 37 58 3 -2
BITMAP
0001FE0000
0001FE0000
0001FE0000
0001FE0000
0001FE0000
0001FE0000
0001FE0000
0001FE0000
0000000000
0000000000
0000000000
0000000000
0000000000
0000000000
0003FE0000
001FFFC000
007FFFF000
00FFFFFC00
01FFFFFE00
03FFFFFF00
07FE03FF80
0FF800FFC0
0FF0003FC0
1FE0001FE0
3FC0000FE0
3F80000FF0
3F800007F0
7F000007F0
7F000007F0
7F000003F0
7E000003F8
FE000003F8
FE000003F8
FFFFFFFFF8
FFFFFFFFF8
FFFFFFFFF8
FFFFFFFFF8
FFFFFFFFF8
FE00000000
FE00000000
FE00000000
FE00000000
7E00000000
7F00000000
7F000007F0
7F000007F0
3F80000FE0
3FC0000FE0
1FE0001FE0
1FF0003FC0
0FF8007FC0
0FFE03FF80
07FFFFFF00
03FFFFFE00
01FFFFFC00
007FFFF000
001FFFC000
0003FE0000
ENDCHAR
STARTCHAR 0118
ENCODING 280
SWIDTH 668 0
DWIDTH 52 0
BBX 44 73 7 -16
BITMAP
FFFFFFFFFE00
FFFFFFFFFE00
FFFFFFFFFE00
FFFFFFFFFE00
FFFFFFFFFE00
FFFFFFFFFE00
FE0000000000
FE0000000000
FE0000000000
FE0000000000
FE0000000000
FE0000000000
FE0000000000
FE0000000000
FE0000000000
FE0000000000
FE0000000000
FE0000000000
FE0000000000
FE0000000000
FE0000000000
FE0000000000
FE0000000000
FE0000000000
FE0000000000
FFFFFFFFFC00
FFFFFFFFFC00
FFFFFFFFFC00
FFFFFFFFFC00
FFFFFFFFFC00
FFFFFFFFFC00
FE0000000000
FE0000000000
FE0000000000
FE0000000000
FE0000000000
FE0000000000
FE0000000000
FE0000000000
FE0000000000
FE0000000000
FE0000000000
FE0000000000
FE0000000000
FE0000000000
FE0000000000
FE0000000000
FE0000000000
FE0000000000
FE0000000000
FE0000000000
FFFFFFFFFF80
FFFFFFFFFF80
FFFFFFFFFF80
FFFFFFFFFF80
FFFFFFFFFF80
FFFFFFFFFF80
000000003F00
00000000FC00
00000001F000
00000003E000
00000007E000
0000000FC000
0000000F8000
0000000F8000
0000000F8000
0000000F8000
0000000FC000
0000000FE000
00000007FFF0
00000003FFF0
00000001FFF0
000000003FC0
ENDCHAR
STARTCHAR 0119
ENCODING 281
SWIDTH 552 0
DWIDTH 43 0
BBX 37 58 3 -16
BITMAP
0003FE0000
001FFFC000
007FFFF000
00FFFFFC00
01FFFFFE00
03FFFFFF00
07FE03FF80
0FF800FFC0
0FF0003FC0
1FE0001FE0
3FC0000FE0
3F80000FF0
3F800007F0
7F000007F0
7F000007F0
7F000003F0
7E000003F8
FE000003F8
FE000003F8
FFFFFFFFF8
FFFFFFFFF8
FFFFFFFFF8
FFFFFFFFF8
FFFFFFFFF8
FE00000000
FE00000000
FE00000000
FE00000000
7E00000000
7F00000000
7F000007F0
7F000007F0
3F80000FE0
3FC0000FE0
1FC0001FE0
1FF0003FC0
0FF8007FC0
0FFE01FF80
07FFFFFF00
03FFFFFE00
01FFFFFC00
007FFFF800
001FFFF000
0003FEF000
000001E000
000007C000
00000F8000
00000F8000
00001F8000
00001F0000
00001F0000
00001F0000
00001F8000
00001FC000
00000FF9E0
000007FFE0
000003FFE0
0000007FC0
ENDCHAR
STARTCHAR 011A
ENCODING 282
SWIDTH 668 0
DWIDTH 52 0
BBX 41 73 7 0
BITMAP
007C007C0000
003E00FC0000
003F00F80000
001F81F00000
000FC3F00000
000FE7E00000
0007EFE00000
0003FFC00000
0003FF800000
0001FF800000
0000FF000000
000000000000
000000000000
000000000000
000000000000
000000000000
FFFFFFFFFE00
FFFFFFFFFE00
FFFFFFFFFE00
FFFFFFFFFE00
FFFFFFFFFE00
FFFFFFFFFE00
FE0000000000
FE0000000000
FE0000000000
FE0000000000
FE0000000000
FE0000000000
FE0000000000
FE0000000000
FE0000000000
FE0000000000
FE0000000000
FE0000000000
FE0000000000
FE0000000000
FE0000000000
FE0000000000
FE0000000000
FE0000000000
FE0000000000
FFFFFFFFFC00
FFFFFFFFFC00
FFFFFFFFFC00
FFFFFFFFFC00
FFFFFFFFFC00
FFFFFFFFFC00
FE0000000000
FE0000000000
FE0000000000
FE0000000000
FE0000000000
FE0000000000
FE0000000000
FE0000000000
FE0000000000
FE0000000000
FE0000000000
FE0000000000
FE0000000000
FE0000000000
FE0000000000
FE0000000000
FE0000000000
FE0000000000
FE0000000000
FE0000000000
FFFFFFFFFF80
FFFFFFFFFF80
FFFFFFFFFF80
FFFFFFFFFF80
FFFFFFFFFF80
FFFFFFFFFF80
ENDCHAR
STARTCHAR 011B
ENCODING 283
SWIDTH 552 0
DWIDTH 43 0
BBX 37 60 3 -2
BITMAP
00F8007C00
007C00F800
003E01F800
003F01F000
001F83F000
000FC7E000
000FCFC000
0007FFC000
0007FF8000
0003FF0000
0001FF0000
0001FE0000
0000000000
0000000000
0000000000
0000000000
0003FE0000
001FFFC000
007FFFF000
00FFFFFC00
01FFFFFE00
03FFFFFF00
07FE03FF80
0FF800FFC0
0FF0003FC0
1FE0001FE0
3FC0000FE0
3F80000FF0
3F800007F0
7F000007F0
7F000007F0
7F000003F0
7E000003F8
FE000003F8
FE000003F8
FFFFFFFFF8
FFFFFFFFF8
FFFFFFFFF8
FFFFFFFFF8
FFFFFFFFF8
FE00000000
FE00000000
FE00000000
FE00000000
7E00000000
7F00000000
7F000007F0
7F000007F0
3F80000FE0
3FC0000FE0
1FE0001FE0
1FF0003FC0
0FF8007FC0
0FFE03FF80
07FFFFFF00
03FFFFFE00
01FFFFFC00
007FFFF000
001FFFC000
0003FE0000
ENDCHAR
STARTCHAR 011C
ENCODING 284
SWIDTH 784 0
DWIDTH 61 0
BBX 52 75 3 -2
BITMAP
000001FE000000
000003FF000000
000007FF800000
000007FF800000
00000FCFC00000
00001FCFE00000
00001F87E00000
00003F03F00000
00003E01F00000
00007C00F80000
0000F8007C0000
00000000000000
00000000000000
00000000000000
00000000000000
000003FFC00000
00003FFFFC0000
0001FFFFFF0000
0003FFFFFFC000
000FFFFFFFE000
001FFFFFFFF800
003FFFC7FFFC00
007FF8003FFE00
00FFC00007FE00
01FF800003FF00
03FE000000FF80
07FC0000007F80
07F80000007FC0
0FF80000003FC0
0FF00000001FC0
1FE00000001FE0
1FE00000001FE0
1FC00000000FE0
3FC00000000000
3F800000000000
3F800000000000
7F800000000000
7F000000000000
7F000000000000
7F000000000000
7F000000000000
7F000000000000
7F000000000000
FF00000FFFFFF0
FF00000FFFFFF0
FF00000FFFFFF0
FF00000FFFFFF0
7F00000FFFFFF0
7F00000FFFFFF0
7F0000000003F0
7F0000000003F0
7F0000000003F0
7F8000000003F0
7F8000000003F0
3F8000000007F0
3FC000000007F0
3FC000000007F0
3FC000000007F0
1FE00000000FF0
1FE00000000FF0
0FF00000001FF0
0FF80000001FF0
07F80000003FF0
07FC0000007FF0
03FF000000FFF0
01FF800001FFF0
01FFE00007FBF0
00FFF8001FF3F0
007FFFE7FFE3F0
001FFFFFFFC1F0
000FFFFFFF81F0
0007FFFFFE01F0
0001FFFFF801F0
00007FFFE000F0
000007FE000000
ENDCHAR
STARTCHAR 011D
ENCODING 285
SWIDTH 552 0
DWIDTH 43 0
BBX 34 75 3 -17
BITMAP
0003FC0000
0003FE0000
0007FE0000
000FFF0000
000FFF8000
001F9F8000
003F0FC000
003E07E000
007E03E000
00FC03F000
00F801F800
01F000F800
0000000000
0000000000
0000000000
0000000000
0007F00000
003FFE0FC0
00FFFF0FC0
01FFFFCFC0
03FFFFEFC0
07FFFFEFC0
0FFC0FFFC0
0FF003FFC0
1FE000FFC0
3FC000FFC0
3F80007FC0
3F80003FC0
7F00003FC0
7F00001FC0
7E00001FC0
FE00001FC0
FE00001FC0
FE00000FC0
FE00000FC0
FE00000FC0
FE00000FC0
FE00000FC0
FE00000FC0
FE00000FC0
FE00000FC0
FE00000FC0
FE00000FC0
FE00001FC0
FE00001FC0
FE00001FC0
7F00001FC0
7F00003FC0
7F80003FC0
3F80007FC0
3FC0007FC0
1FE000FFC0
1FF003FFC0
0FFC0FEFC0
07FFFFEFC0
03FFFFCFC0
01FFFF8FC0
00FFFF0FC0
003FFC0FC0
000FF00FC0
0000001FC0
0000001FC0
0000001FC0
7F00001F80
7F00003F80
3F00003F80
3F80007F00
3FC000FF00
1FE001FE00
1FFF3FFC00
0FFFFFFC00
07FFFFF000
01FFFFE000
007FFF8000
000FF80000
ENDCHAR
STARTCHAR 011E
ENCODING 286
SWIDTH 784 0
DWIDTH 61 0
BBX 52 74 3 -2
BITMAP
0000F8001F0000
00007C001F0000
00007C003E0000
00007E007E0000
00007FE7FE0000
00003FFFFC0000
00001FFFF80000
00000FFFF00000
000007FFE00000
000000FF000000
00000000000000
00000000000000
00000000000000
00000000000000
000003FFC00000
00003FFFFC0000
0001FFFFFF0000
0003FFFFFFC000
000FFFFFFFE000
001FFFFFFFF800
003FFFC7FFFC00
007FF8003FFE00
00FFC00007FE00
01FF800003FF00
03FE000000FF80
07FC0000007F80
07F80000007FC0
0FF80000003FC0
0FF00000001FC0
1FE00000001FE0
1FE00000001FE0
1FC00000000FE0
3FC00000000000
3F800000000000
3F800000000000
7F800000000000
7F000000000000
7F000000000000
7F000000000000
7F000000000000
7F000000000000
7F000000000000
FF00000FFFFFF0
FF00000FFFFFF0
FF00000FFFFFF0
FF00000FFFFFF0
7F00000FFFFFF0
7F00000FFFFFF0
7F0000000003F0
7F0000000003F0
7F0000000003F0
7F8000000003F0
7F8000000003F0
3F8000000007F0
3FC000000007F0
3FC000000007F0
3FC000000007F0
1FE00000000FF0
1FE00000000FF0
0FF00000001FF0
0FF80000001FF0
07F80000003FF0
07FC0000007FF0
03FF000000FFF0
01FF800001FFF0
01FFE00007FBF0
00FFF8001FF3F0
007FFFE7FFE3F0
001FFFFFFFC1F0
000FFFFFFF81F0
0007FFFFFE01F0
0001FFFFF801F0
00007FFFE000F0
000007FE000000
ENDCHAR
STARTCHAR 011F
ENCODING 287
SWIDTH 552 0
DWIDTH 43 0
BBX 34 74 3 -17
BITMAP
03E0007C00
03E0007C00
01F000F800
01F801F800
01FE07F800
00FFFFF000
00FFFFE000
007FFFE000
001FFF8000
0007FE0000
0000000000
0000000000
0000000000
0000000000
0000000000
0007F00000
003FFE0FC0
00FFFF0FC0
01FFFFCFC0
03FFFFEFC0
07FFFFEFC0
0FFC0FFFC0
0FF003FFC0
1FE000FFC0
3FC000FFC0
3F80007FC0
3F80003FC0
7F00003FC0
7F00001FC0
7E00001FC0
FE00001FC0
FE00001FC0
FE00000FC0
FE00000FC0
FE00000FC0
FE00000FC0
FE00000FC0
FE00000FC0
FE00000FC0
FE00000FC0
FE00000FC0
FE00000FC0
FE00001FC0
FE00001FC0
FE00001FC0
7F00001FC0
7F00003FC0
7F80003FC0
3F80007FC0
3FC0007FC0
1FE000FFC0
1FF003FFC0
0FFC0FEFC0
07FFFFEFC0
03FFFFCFC0
01FFFF8FC0
00FFFF0FC0
003FFC0FC0
000FF00FC0
0000001FC0
0000001FC0
0000001FC0
7F00001F80
7F00003F80
3F00003F80
3F80007F00
3FC000FF00
1FE001FE00
1FFF3FFC00
0FFFFFFC00
07FFFFF000
01FFFFE000
007FFF8000
000FF80000
ENDCHAR
STARTCHAR 0120
ENCODING 288
SWIDTH 784 0
DWIDTH 61 0
BBX 52 73 3 -2
BITMAP
000001FE000000
000001FE000000
000001FE000000
000001FE000000
000001FE000000
000001FE000000
000001FE000000
000001FE000000
00000000000000
00000000000000
00000000000000
00000000000000
00000000000000
000003FFC00000
00003FFFFC0000
0001FFFFFF0000
0003FFFFFFC000
000FFFFFFFE000
001FFFFFFFF800
003FFFC7FFFC00
007FF8003FFE00
00FFC00007FE00
01FF800003FF00
03FE000000FF80
07FC0000007F80
07F80000007FC0
0FF80000003FC0
0FF00000001FC0
1FE00000001FE0
1FE00000001FE0
1FC00000000FE0
3FC00000000000
3F800000000000
3F800000000000
7F800000000000
7F000000000000
7F000000000000
7F000000000000
7F000000000000
7F000000000000
7F000000000000
FF00000FFFFFF0
FF00000FFFFFF0
FF00000FFFFFF0
FF00000FFFFFF0
7F00000FFFFFF0
7F00000FFFFFF0
7F0000000003F0
7F0000000003F0
7F0000000003F0
7F8000000003F0
7F8000000003F0
3F8000000007F0
3FC000000007F0
3FC000000007F0
3FC000000007F0
1FE00000000FF0
1FE00000000FF0
0FF00000001FF0
0FF80000001FF0
07F80000003FF0
07FC0000007FF0
03FF000000FFF0
01FF800001FFF0
01FFE00007FBF0
00FFF8001FF3F0
007FFFE7FFE3F0
001FFFFFFFC1F0
000FFFFFFF81F0
0007FFFFFE01F0
0001FFFFF801F0
00007FFFE000F0
000007FE000000
ENDCHAR
STARTCHAR 0121
ENCODING 289
SWIDTH 552 0
DWIDTH 43 0
BBX 34 73 3 -17
BITMAP
0003FC0000
0003FC0000
0003FC0000
0003FC0000
0003FC0000
0003FC0000
0003FC0000
0003FC0000
0000000000
0000000000
0000000000
0000000000
0000000000
0000000000
0007F00000
003FFE0FC0
00FFFF0FC0
01FFFFCFC0
03FFFFEFC0
07FFFFEFC0
0FFC0FFFC0
0FF003FFC0
1FE000FFC0
3FC000FFC0
3F80007FC0
3F80003FC0
7F00003FC0
7F00001FC0
7E00001FC0
FE00001FC0
FE00001FC0
FE00000FC0
FE00000FC0
FE00000FC0
FE00000FC0
FE00000FC0
FE00000FC0
FE00000FC0
FE00000FC0
FE00000FC0
FE00000FC0
FE00001FC0
FE00001FC0
FE00001FC0
7F00001FC0
7F00003FC0
7F80003FC0
3F80007FC0
3FC0007FC0
1FE000FFC0
1FF003FFC0
0FFC0FEFC0
07FFFFEFC0
03FFFFCFC0
01FFFF8FC0
00FFFF0FC0
003FFC0FC0
000FF00FC0
0000001FC0
0000001FC0
0000001FC0
7F00001F80
7F00003F80
3F00003F80
3F80007F00
3FC000FF00
1FE001FE00
1FFF3FFC00
0FFFFFFC00
07FFFFF000
01FFFFE000
007FFF8000
000FF80000
ENDCHAR
STARTCHAR 0122
ENCODING 290
SWIDTH 784 0
DWIDTH 61 0
BBX 52 80 3 -23
BITMAP
000003FFC00000
00003FFFFC0000
0001FFFFFF0000
0003FFFFFFC000
000FFFFFFFE000
001FFFFFFFF800
003FFFC7FFFC00
007FF8003FFE00
00FFC00007FE00
01FF800003FF00
03FE000000FF80
07FC0000007F80
07F80000007FC0
0FF80000003FC0
0FF00000001FC0
1FE00000001FE0
1FE00000001FE0
1FC00000000FE0
3FC00000000000
3F800000000000
3F800000000000
7F800000000000
7F000000000000
7F000000000000
7F000000000000
7F000000000000
7F000000000000
7F000000000000
FF00000FFFFFF0
FF00000FFFFFF0
FF00000FFFFFF0
FF00000FFFFFF0
7F00000FFFFFF0
7F00000FFFFFF0
7F0000000003F0
7F0000000003F0
7F0000000003F0
7F8000000003F0
7F8000000003F0
3F8000000007F0
3FC000000007F0
3FC000000007F0
3FC000000007F0
1FE00000000FF0
1FE00000000FF0
0FF00000001FF0
0FF80000001FF0
07F80000003FF0
07FC0000007FF0
03FF000000FFF0
01FF800001FFF0
01FFE00007FBF0
00FFF8001FF3F0
007FFFE7FFE3F0
001FFFFFFFC1F0
000FFFFFFF81F0
0007FFFFFE01F0
0001FFFFF801F0
00007FFFE000F0
000007FE000000
00000000000000
00000000000000
00000000000000
000001FE000000
000001FE000000
000001FE000000
000001FE000000
000001FE000000
000001FE000000
000001FE000000
000001FE000000
0000000E000000
0000001E000000
0000001E000000
0000001E000000
0000001C000000
0000003C000000
000001F8000000
000001F0000000
000001E0000000
ENDCHAR
STARTCHAR 0123
ENCODING 291
SWIDTH 552 0
DWIDTH 43 0
BBX 34 81 3 -17
BITMAP
0000080000
0000780000
0000F80000
0001F80000
0001E00000
0003C00000
0003C00000
0003800000
0003800000
0003800000
0003F80000
0003F80000
0003F80000
0003F80000
0003F80000
0003F80000
0003F80000
0003F80000
0000000000
0000000000
0000000000
0000000000
0007F00000
003FFE0FC0
00FFFF0FC0
01FFFFCFC0
03FFFFEFC0
07FFFFEFC0
0FFC0FFFC0
0FF003FFC0
1FE000FFC0
3FC000FFC0
3F80007FC0
3F80003FC0
7F00003FC0
7F00001FC0
7E00001FC0
FE00001FC0
FE00001FC0
FE00000FC0
FE00000FC0
FE00000FC0
FE00000FC0
FE00000FC0
FE00000FC0
FE00000FC0
FE00000FC0
FE00000FC0
FE00000FC0
FE00001FC0
FE00001FC0
FE00001FC0
7F00001FC0
7F00003FC0
7F80003FC0
3F80007FC0
3FC0007FC0
1FE000FFC0
1FF003FFC0
0FFC0FEFC0
07FFFFEFC0
03FFFFCFC0
01FFFF8FC0
00FFFF0FC0
003FFC0FC0
000FF00FC0
0000001FC0
0000001FC0
0000001FC0
7F00001F80
7F00003F80
3F00003F80
3F80007F00
3FC000FF00
1FE001FE00
1FFF3FFC00
0FFFFFFC00
07FFFFF000
01FFFFE000
007FFF8000
000FF80000
ENDCHAR
STARTCHAR 0124
ENCODING 292
SWIDTH 720 0
DWIDTH 56 0
BBX 44 73 6 0
BITMAP
00001FE00000
00003FF00000
00007FF00000
00007FF80000
0000FDFC0000
0001F8FC0000
0001F87E0000
0003F03F0000
0007E01F0000
0007C00F8000
000F800FC000
000000000000
000000000000
000000000000
000000000000
000000000000
FF00000007F0
FF00000007F0
FF00000007F0
FF00000007F0
FF00000007F0
FF00000007F0
FF00000007F0
FF00000007F0
FF00000007F0
FF00000007F0
FF00000007F0
FF00000007F0
FF00000007F0
FF00000007F0
FF00000007F0
FF00000007F0
FF00000007F0
FF00000007F0
FF00000007F0
FF00000007F0
FF00000007F0
FF00000007F0
FF00000007F0
FF00000007F0
FF00000007F0
FFFFFFFFFFF0
FFFFFFFFFFF0
FFFFFFFFFFF0
FFFFFFFFFFF0
FFFFFFFFFFF0
FFFFFFFFFFF0
FF00000007F0
FF00000007F0
FF00000007F0
FF00000007F0
FF00000007F0
FF00000007F0
FF00000007F0
FF00000007F0
FF00000007F0
FF00000007F0
FF00000007F0
FF00000007F0
FF00000007F0
FF00000007F0
FF00000007F0
FF00000007F0
FF00000007F0
FF00000007F0
FF00000007F0
FF00000007F0
FF00000007F0
FF00000007F0
FF00000007F0
FF00000007F0
FF00000007F0
FF00000007F0
ENDCHAR
STARTCHAR 0125
ENCODING 293
SWIDTH 552 0
DWIDTH 43 0
BBX 40 73 -2 0
BITMAP
01FE000000
03FF000000
07FF000000
07FF800000
0FDFC00000
1F8FC00000
1F87E00000
3F03F00000
7E01F00000
7C00F80000
F800FC0000
0000000000
0000000000
0000000000
0000000000
0000000000
01FC000000
01FC000000
01FC000000
01FC000000
01FC000000
01FC000000
01FC000000
01FC000000
01FC000000
01FC000000
01FC000000
01FC000000
01FC000000
01FC000000
01FC000000
01FC01FE00
01FC0FFFC0
01FC3FFFF0
01FC7FFFF8
01FCFFFFFC
01FDFFFFFC
01FFF807FE
01FFE001FE
01FFC000FF
01FF8000FF
01FF00007F
01FF00007F
01FE00007F
01FE00007F
01FE00007F
01FC00007F
01FC00007F
01FC00007F
01FC00007F
01FC00007F
01FC00007F
01FC00007F
01FC00007F
01FC00007F
01FC00007F
01FC00007F
01FC00007F
01FC00007F
01FC00007F
01FC00007F
01FC00007F
01FC00007F
01FC00007F
01FC00007F
01FC00007F
01FC00007F
01FC00007F
01FC00007F
01FC00007F
01FC00007F
01FC00007F
01FC00007F
ENDCHAR
STARTCHAR 0126
ENCODING 294
SWIDTH 720 0
DWIDTH 56 0
BBX 55 57 1 0
BITMAP
07F80000003F80
07F80000003F80
07F80000003F80
07F80000003F80
07F80000003F80
07F80000003F80
07F80000003F80
07F80000003F80
07F80000003F80
07F80000003F80
07F80000003F80
07F80000003F80
07F80000003F80
FFFFFFFFFFFFFE
FFFFFFFFFFFFFE
FFFFFFFFFFFFFE
FFFFFFFFFFFFFE
FFFFFFFFFFFFFE
07F80000003F80
07F80000003F80
07F80000003F80
07F80000003F80
07F80000003F80
07F80000003F80
07F80000003F80
07FFFFFFFFFF80
07FFFFFFFFFF80
07FFFFFFFFFF80
07FFFFFFFFFF80
07FFFFFFFFFF80
07FFFFFFFFFF80
07F80000003F80
07F80000003F80
07F80000003F80
07F80000003F80
07F80000003F80
07F80000003F80
07F80000003F80
07F80000003F80
07F80000003F80
07F80000003F80
07F80000003F80
07F80000003F80
07F80000003F80
07F80000003F80
07F80000003F80
07F80000003F80
07F80000003F80
07F80000003F80
07F80000003F80
07F80000003F80
07F80000003F80
07F80000003F80
07F80000003F80
07F80000003F80
07F80000003F80
07F80000003F80
ENDCHAR
STARTCHAR 0127
ENCODING 295
SWIDTH 552 0
DWIDTH 43 0
BBX 37 57 1 0
BITMAP
0FE0000000
0FE0000000
0FE0000000
0FE0000000
0FE0000000
0FE0000000
FFFFFFE000
FFFFFFE000
FFFFFFE000
FFFFFFE000
0FE0000000
0FE0000000
0FE0000000
0FE0000000
0FE0000000
0FE00FF000
0FE07FFE00
0FE1FFFF80
0FE3FFFFC0
0FE7FFFFE0
0FEFFFFFE0
0FFFC03FF0
0FFF000FF0
0FFE0007F8
0FFC0007F8
0FF80003F8
0FF80003F8
0FF00003F8
0FF00003F8
0FF00003F8
0FE00003F8
0FE00003F8
0FE00003F8
0FE00003F8
0FE00003F8
0FE00003F8
0FE00003F8
0FE00003F8
0FE00003F8
0FE00003F8
0FE00003F8
0FE00003F8
0FE00003F8
0FE00003F8
0FE00003F8
0FE00003F8
0FE00003F8
0FE00003F8
0FE00003F8
0FE00003F8
0FE00003F8
0FE00003F8
0FE00003F8
0FE00003F8
0FE00003F8
0FE00003F8
0FE00003F8
ENDCHAR
STARTCHAR 0128
ENCODING 296
SWIDTH 282 0
DWIDTH 22 0
BBX 25 71 -2 0
BITMAP
0FF00F80
1FFE1F00
3FFFFF00
3FFFFF00
7FFFFE00
7C3FFE00
7807F800
F8000000
00000000
00000000
00000000
00000000
00000000
00000000
003F8000
003F8000
003F8000
003F8000
003F8000
003F8000
003F8000
003F8000
003F8000
003F8000
003F8000
003F8000
003F8000
003F8000
003F8000
003F8000
003F8000
003F8000
003F8000
003F8000
003F8000
003F8000
003F8000
003F8000
003F8000
003F8000
003F8000
003F8000
003F8000
003F8000
003F8000
003F8000
003F8000
003F8000
003F8000
003F8000
003F8000
003F8000
003F8000
003F8000
003F8000
003F8000
003F8000
003F8000
003F8000
003F8000
003F8000
003F8000
003F8000
003F8000
003F8000
003F8000
003F8000
003F8000
003F8000
003F8000
003F8000
ENDCHAR
STARTCHAR 0129
ENCODING 297
SWIDTH 282 0
DWIDTH 22 0
BBX 25 56 -2 0
BITMAP
07C00F80
1FF81F00
3FFF3F00
3FFFFF00
7FFFFE00
7C7FFE00
780FFC00
F801F000
00000000
00000000
00000000
00000000
00000000
00000000
00000000
007F0000
007F0000
007F0000
007F0000
007F0000
007F0000
007F0000
007F0000
007F0000
007F0000
007F0000
007F0000
007F0000
007F0000
007F0000
007F0000
007F0000
007F0000
007F0000
007F0000
007F0000
007F0000
007F0000
007F0000
007F0000
007F0000
007F0000
007F0000
007F0000
007F0000
007F0000
007F0000
007F0000
007F0000
007F0000
007F0000
007F0000
007F0000
007F0000
007F0000
007F0000
ENDCHAR
STARTCHAR 012A
ENCODING 298
SWIDTH 282 0
DWIDTH 22 0
BBX 19 70 2 0
BITMAP
FFFFE0
FFFFE0
FFFFE0
FFFFE0
FFFFE0
000000
000000
000000
000000
000000
000000
000000
000000
03F800
03F800
03F800
03F800
03F800
03F800
03F800
03F800
03F800
03F800
03F800
03F800
03F800
03F800
03F800
03F800
03F800
03F800
03F800
03F800
03F800
03F800
03F800
03F800
03F800
03F800
03F800
03F800
03F800
03F800
03F800
03F800
03F800
03F800
03F800
03F800
03F800
03F800
03F800
03F800
03F800
03F800
03F800
03F800
03F800
03F800
03F800
03F800
03F800
03F800
03F800
03F800
03F800
03F800
03F800
03F800
03F800
ENDCHAR
STARTCHAR 012B
ENCODING 299
SWIDTH 282 0
DWIDTH 22 0
BBX 19 55 1 0
BITMAP
FFFFE0
FFFFE0
FFFFE0
FFFFE0
FFFFE0
000000
000000
000000
000000
000000
000000
000000
000000
000000
01F800
01F800
01F800
01F800
01F800
01F800
01F800
01F800
01F800
01F800
01F800
01F800
01F800
01F800
01F800
01F800
01F800
01F800
01F800
01F800
01F800
01F800
01F800
01F800
01F800
01F800
01F800
01F800
01F800
01F800
01F800
01F800
01F800
01F800
01F800
01F800
01F800
01F800
01F800
01F800
01F800
ENDCHAR
STARTCHAR 012C
ENCODING 300
SWIDTH 282 0
DWIDTH 22 0
BBX 23 72 -1 0
BITMAP
F8001E
F8003E
FC003E
7E007E
7FE7FC
3FFFFC
3FFFF8
0FFFF0
07FFC0
00FF00
000000
000000
000000
000000
000000
00FF00
00FF00
00FF00
00FF00
00FF00
00FF00
00FF00
00FF00
00FF00
00FF00
00FF00
00FF00
00FF00
00FF00
00FF00
00FF00
00FF00
00FF00
00FF00
00FF00
00FF00
00FF00
00FF00
00FF00
00FF00
00FF00
00FF00
00FF00
00FF00
00FF00
00FF00
00FF00
00FF00
00FF00
00FF00
00FF00
00FF00
00FF00
00FF00
00FF00
00FF00
00FF00
00FF00
00FF00
00FF00
00FF00
00FF00
00FF00
00FF00
00FF00
00FF00
00FF00
00FF00
00FF00
00FF00
00FF00
00FF00
ENDCHAR
STARTCHAR 012D
ENCODING 301
SWIDTH 282 0
DWIDTH 22 0
BBX 23 57 -1 0
BITMAP
F8001E
F8001E
FC003E
FC007E
7F01FC
7FFFFC
3FFFF8
1FFFF0
0FFFE0
03FF80
000000
000000
000000
000000
000000
000000
00FE00
00FE00
00FE00
00FE00
00FE00
00FE00
00FE00
00FE00
00FE00
00FE00
00FE00
00FE00
00FE00
00FE00
00FE00
00FE00
00FE00
00FE00
00FE00
00FE00
00FE00
00FE00
00FE00
00FE00
00FE00
00FE00
00FE00
00FE00
00FE00
00FE00
00FE00
00FE00
00FE00
00FE00
00FE00
00FE00
00FE00
00FE00
00FE00
00FE00
00FE00
ENDCHAR
STARTCHAR 012E
ENCODING 302
SWIDTH 282 0
DWIDTH 22 0
BBX 13 73 5 -16
BITMAP
1FC0
1FC0
1FC0
1FC0
1FC0
1FC0
1FC0
1FC0
1FC0
1FC0
1FC0
1FC0
1FC0
1FC0
1FC0
1FC0
1FC0
1FC0
1FC0
1FC0
1FC0
1FC0
1FC0
1FC0
1FC0
1FC0
1FC0
1FC0
1FC0
1FC0
1FC0
1FC0
1FC0
1FC0
1FC0
1FC0
1FC0
1FC0
1FC0
1FC0
1FC0
1FC0
1FC0
1FC0
1FC0
1FC0
1FC0
1FC0
1FC0
1FC0
1FC0
1FC0
1FC0
1FC0
1FC0
1FC0
1FC0
07C0
0F80
1F00
3E00
7E00
7C00
7C00
FC00
FC00
FC00
FC00
7E00
7FF8
3FF8
1FF8
07F0
ENDCHAR
STARTCHAR 012F
ENCODING 303
SWIDTH 218 0
DWIDTH 17 0
BBX 13 73 2 -16
BITMAP
1FC0
1FC0
1FC0
1FC0
1FC0
1FC0
1FC0
1FC0
0000
0000
0000
0000
0000
0000
0000
0000
1FC0
1FC0
1FC0
1FC0
1FC0
1FC0
1FC0
1FC0
1FC0
1FC0
1FC0
1FC0
1FC0
1FC0
1FC0
1FC0
1FC0
1FC0
1FC0
1FC0
1FC0
1FC0
1FC0
1FC0
1FC0
1FC0
1FC0
1FC0
1FC0
1FC0
1FC0
1FC0
1FC0
1FC0
1FC0
1FC0
1FC0
1FC0
1FC0
1FC0
1FC0
0780
0F00
1F00
3E00
7C00
7C00
FC00
FC00
FC00
FC00
FC00
FE00
7FB8
3FF8
1FF8
07F0
ENDCHAR
STARTCHAR 0130
ENCODING 304
SWIDTH 282 0
DWIDTH 22 0
BBX 8 71 7 0
BITMAP
FF
FF
FF
FF
FF
FF
FF
FF
00
00
00
00
00
00
7F
7F
7F
7F
7F
7F
7F
7F
7F
7F
7F
7F
7F
7F
7F
7F
7F
7F
7F
7F
7F
7F
7F
7F
7F
7F
7F
7F
7F
7F
7F
7F
7F
7F
7F
7F
7F
7F
7F
7F
7F
7F
7F
7F
7F
7F
7F
7F
7F
7F
7F
7F
7F
7F
7F
7F
7F
ENDCHAR
STARTCHAR 0131
ENCODING 305
SWIDTH 282 0
DWIDTH 22 0
BBX 7 41 7 0
BITMAP
FE
FE
FE
FE
FE
FE
FE
FE
FE
FE
FE
FE
FE
FE
FE
FE
FE
FE
FE
FE
FE
FE
FE
FE
FE
FE
FE
FE
FE
FE
FE
FE
FE
FE
FE
FE
FE
FE
FE
FE
FE
ENDCHAR
STARTCHAR 0132
ENCODING 306
SWIDTH 732 0
DWIDTH 57 0
BBX 43 59 8 -2
BITMAP
FE0000000FE0
FE0000000FE0
FE0000000FE0
FE0000000FE0
FE0000000FE0
FE0000000FE0
FE0000000FE0
FE0000000FE0
FE0000000FE0
FE0000000FE0
FE0000000FE0
FE0000000FE0
FE0000000FE0
FE0000000FE0
FE0000000FE0
FE0000000FE0
FE0000000FE0
FE0000000FE0
FE0000000FE0
FE0000000FE0
FE0000000FE0
FE0000000FE0
FE0000000FE0
FE0000000FE0
FE0000000FE0
FE0000000FE0
FE0000000FE0
FE0000000FE0
FE0000000FE0
FE0000000FE0
FE0000000FE0
FE0000000FE0
FE0000000FE0
FE0000000FE0
FE0000000FE0
FE0000000FE0
FE0000000FE0
FE0000000FE0
FE0000000FE0
FE1FE0000FE0
FE1FE0000FE0
FE1FE0000FE0
FE1FE0000FE0
FE1FE0000FE0
FE1FE0000FE0
FE1FE0001FE0
FE1FE0001FE0
FE0FE0001FE0
FE0FF0003FC0
FE0FF0003FC0
FE0FF8007FC0
FE07FC00FF80
FE07FF03FF00
FE03FFFFFF00
FE01FFFFFE00
FE00FFFFFC00
FE007FFFF000
00001FFFE000
000003FE0000
ENDCHAR
STARTCHAR 0133
ENCODING 307
SWIDTH 450 0
DWIDTH 35 0
BBX 21 74 7 -17
BITMAP
FC01F8
FC01F8
FC01F8
FC01F8
FC01F8
FC01F8
FC01F8
FC01F8
000000
000000
000000
000000
000000
000000
000000
000000
FC01F8
FC01F8
FC01F8
FC01F8
FC01F8
FC01F8
FC01F8
FC01F8
FC01F8
FC01F8
FC01F8
FC01F8
FC01F8
FC01F8
FC01F8
FC01F8
FC01F8
FC01F8
FC01F8
FC01F8
FC01F8
FC01F8
FC01F8
FC01F8
FC01F8
FC01F8
FC01F8
FC01F8
FC01F8
FC01F8
FC01F8
FC01F8
FC01F8
FC01F8
FC01F8
FC01F8
FC01F8
FC01F8
FC01F8
FC01F8
FC01F8
0001F8
0001F8
0001F8
0001F8
0001F8
0001F8
0001F8
0001F8
0001F8
0003F8
0007F8
00FFF8
00FFF0
00FFF0
00FFE0
00FF80
00FE00
ENDCHAR
STARTCHAR 0134
ENCODING 308
SWIDTH 501 0
DWIDTH 39 0
BBX 38 75 1 -2
BITMAP
000001FF00
000001FF00
000003FF80
000007FFC0
000007EFC0
00000FC7E0
00001F83F0
00001F01F0
00003F01F8
00007E00FC
00007C007C
0000000000
0000000000
0000000000
0000000000
0000000000
0000007F00
0000007F00
0000007F00
0000007F00
0000007F00
0000007F00
0000007F00
0000007F00
0000007F00
0000007F00
0000007F00
0000007F00
0000007F00
0000007F00
0000007F00
0000007F00
0000007F00
0000007F00
0000007F00
0000007F00
0000007F00
0000007F00
0000007F00
0000007F00
0000007F00
0000007F00
0000007F00
0000007F00
0000007F00
0000007F00
0000007F00
0000007F00
0000007F00
0000007F00
0000007F00
0000007F00
0000007F00
0000007F00
0000007F00
FF00007F00
FF00007F00
FF00007F00
FF00007F00
FF00007F00
FF00007F00
FF00007F00
FF0000FF00
7F0000FF00
7F8000FE00
7F8001FE00
3FC003FE00
3FE007FC00
1FF81FFC00
1FFFFFF800
0FFFFFF000
07FFFFE000
01FFFFC000
00FFFF0000
001FF80000
ENDCHAR
STARTCHAR 0135
ENCODING 309
SWIDTH 218 0
DWIDTH 17 0
BBX 22 75 -3 -17
BITMAP
01FE00
01FF00
03FF80
07FF80
07EFC0
0FCFE0
0F87E0
1F83F0
3F01F0
3E00F8
7C007C
F8007C
000000
000000
000000
000000
000000
00FE00
00FE00
00FE00
00FE00
00FE00
00FE00
00FE00
00FE00
00FE00
00FE00
00FE00
00FE00
00FE00
00FE00
00FE00
00FE00
00FE00
00FE00
00FE00
00FE00
00FE00
00FE00
00FE00
00FE00
00FE00
00FE00
00FE00
00FE00
00FE00
00FE00
00FE00
00FE00
00FE00
00FE00
00FE00
00FE00
00FE00
00FE00
00FE00
00FE00
00FE00
00FE00
00FE00
00FE00
00FE00
00FE00
00FE00
00FE00
00FE00
00FE00
00FE00
01FE00
3FFC00
3FFC00
3FF800
3FF800
3FE000
3F0000
ENDCHAR
STARTCHAR 0136
ENCODING 310
SWIDTH 668 0
DWIDTH 52 0
BBX 45 79 6 -23
BITMAP
FE0000001FF0
FE0000003FE0
FE0000007FC0
FE000000FF80
FE000001FF00
FE000003FE00
FE000007FC00
FE00000FF800
FE00001FF000
FE00003FE000
FE00007FC000
FE0000FFC000
FE0001FF8000
FE0003FF0000
FE0007FE0000
FE000FFC0000
FE001FF80000
FE003FF00000
FE003FE00000
FE007FC00000
FE00FF800000
FE01FF000000
FE03FE000000
FE07FC000000
FE0FFE000000
FE1FFE000000
FE3FFF000000
FE7FFF800000
FEFF7F800000
FFFE3FC00000
FFFC3FE00000
FFF81FF00000
FFF00FF00000
FFE007F80000
FFC007FC0000
FF8003FC0000
FF0001FE0000
FE0001FF0000
FE0000FF0000
FE00007F8000
FE00007FC000
FE00003FC000
FE00001FE000
FE00001FF000
FE00000FF800
FE000007F800
FE000007FC00
FE000003FE00
FE000001FE00
FE000001FF00
FE000000FF80
FE0000007F80
FE0000003FC0
FE0000003FE0
FE0000001FE0
FE0000000FF0
FE0000000FF8
000000000000
000000000000
000000000000
000000000000
000000000000
00007F800000
00007F800000
00007F800000
00007F800000
00007F800000
00007F800000
00007F800000
00007F800000
000003800000
000003800000
000007800000
000007800000
000007000000
00000F000000
00007E000000
00007C000000
000078000000
ENDCHAR
STARTCHAR 0137
ENCODING 311
SWIDTH 501 0
DWIDTH 39 0
BBX 34 79 5 -23
BITMAP
FC00000000
FC00000000
FC00000000
FC00000000
FC00000000
FC00000000
FC00000000
FC00000000
FC00000000
FC00000000
FC00000000
FC00000000
FC00000000
FC00000000
FC00000000
FC00000000
FC0001FE00
FC0003FC00
FC0007F800
FC000FF000
FC001FE000
FC003FC000
FC007F8000
FC00FF0000
FC01FE0000
FC03FC0000
FC07F80000
FC0FF00000
FC1FE00000
FC3FC00000
FC7FC00000
FCFFC00000
FDFFE00000
FFFFE00000
FFFFF00000
FFF7F80000
FFE7F80000
FFC3FC0000
FF81FE0000
FF01FE0000
FE00FF0000
FC00FF0000
FC007F8000
FC003FC000
FC003FC000
FC001FE000
FC000FF000
FC000FF000
FC0007F800
FC0007F800
FC0003FC00
FC0001FE00
FC0001FE00
FC0000FF00
FC0000FF00
FC00007F80
FC00003FC0
0000000000
0000000000
0000000000
0000000000
0000000000
000FF00000
000FF00000
000FF00000
000FF00000
000FF00000
000FF00000
000FF00000
000FF00000
0000F00000
0000F00000
0000E00000
0000E00000
0001E00000
0001C00000
000FC00000
000F800000
000F000000
ENDCHAR
STARTCHAR 0138
ENCODING 312
SWIDTH 501 0
DWIDTH 39 0
BBX 31 40 3 0
BITMAP
F800007E
F80000FC
F80001F8
F80003F0
F80007E0
F8000FC0
F8001F80
F8003F00
F8007E00
F800FC00
F801F800
F803F000
F807E000
F80FC000
F81F8000
F83F0000
F87E0000
F8FF0000
F9FF8000
FBFF8000
FFEFC000
FFC7E000
FF83F000
FF03F000
FE01F800
FC00FC00
F800FC00
F8007E00
F8003F00
F8003F00
F8001F80
F8000FC0
F8000FC0
F80007E0
F80003F0
F80001F8
F80001F8
F80000FC
F800007E
F800007E
ENDCHAR
STARTCHAR 0139
ENCODING 313
SWIDTH 552 0
DWIDTH 43 0
BBX 35 73 6 0
BITMAP
03FE000000
03FC000000
07F8000000
0FF0000000
0FE0000000
1FC0000000
3F80000000
3F00000000
7E00000000
7C00000000
F800000000
0000000000
0000000000
0000000000
0000000000
0000000000
FE00000000
FE00000000
FE00000000
FE00000000
FE00000000
FE00000000
FE00000000
FE00000000
FE00000000
FE00000000
FE00000000
FE00000000
FE00000000
FE00000000
FE00000000
FE00000000
FE00000000
FE00000000
FE00000000
FE00000000
FE00000000
FE00000000
FE00000000
FE00000000
FE00000000
FE00000000
FE00000000
FE00000000
FE00000000
FE00000000
FE00000000
FE00000000
FE00000000
FE00000000
FE00000000
FE00000000
FE00000000
FE00000000
FE00000000
FE00000000
FE00000000
FE00000000
FE00000000
FE00000000
FE00000000
FE00000000
FE00000000
FE00000000
FE00000000
FE00000000
FE00000000
FFFFFFFFE0
FFFFFFFFE0
FFFFFFFFE0
FFFFFFFFE0
FFFFFFFFE0
FFFFFFFFE0
ENDCHAR
STARTCHAR 013A
ENCODING 314
SWIDTH 218 0
DWIDTH 17 0
BBX 16 73 5 0
BITMAP
01FF
03FC
03F8
07F0
0FE0
0FC0
1F80
3F00
3E00
7C00
F800
0000
0000
0000
0000
0000
FE00
FE00
FE00
FE00
FE00
FE00
FE00
FE00
FE00
FE00
FE00
FE00
FE00
FE00
FE00
FE00
FE00
FE00
FE00
FE00
FE00
FE00
FE00
FE00
FE00
FE00
FE00
FE00
FE00
FE00
FE00
FE00
FE00
FE00
FE00
FE00
FE00
FE00
FE00
FE00
FE00
FE00
FE00
FE00
FE00
FE00
FE00
FE00
FE00
FE00
FE00
FE00
FE00
FE00
FE00
FE00
FE00
ENDCHAR
STARTCHAR 013B
ENCODING 315
SWIDTH 552 0
DWIDTH 43 0
BBX 35 79 6 -23
BITMAP
FE00000000
FE00000000
FE00000000
FE00000000
FE00000000
FE00000000
FE00000000
FE00000000
FE00000000
FE00000000
FE00000000
FE00000000
FE00000000
FE00000000
FE00000000
FE00000000
FE00000000
FE00000000
FE00000000
FE00000000
FE00000000
FE00000000
FE00000000
FE00000000
FE00000000
FE00000000
FE00000000
FE00000000
FE00000000
FE00000000
FE00000000
FE00000000
FE00000000
FE00000000
FE00000000
FE00000000
FE00000000
FE00000000
FE00000000
FE00000000
FE00000000
FE00000000
FE00000000
FE00000000
FE00000000
FE00000000
FE00000000
FE00000000
FE00000000
FE00000000
FE00000000
FFFFFFFFE0
FFFFFFFFE0
FFFFFFFFE0
FFFFFFFFE0
FFFFFFFFE0
FFFFFFFFE0
0000000000
0000000000
0000000000
0000000000
0000000000
0003FC0000
0003FC0000
0003FC0000
0003FC0000
0003FC0000
0003FC0000
0003FC0000
0003FC0000
00003C0000
00003C0000
00003C0000
0000380000
0000780000
0000780000
0003F00000
0003E00000
0003C00000
ENDCHAR
STARTCHAR 013C
ENCODING 316
SWIDTH 218 0
DWIDTH 17 0
BBX 8 79 5 -23
BITMAP
FE
FE
FE
FE
FE
FE
FE
FE
FE
FE
FE
FE
FE
FE
FE
FE
FE
FE
FE
FE
FE
FE
FE
FE
FE
FE
FE
FE
FE
FE
FE
FE
FE
FE
FE
FE
FE
FE
FE
FE
FE
FE
FE
FE
FE
FE
FE
FE
FE
FE
FE
FE
FE
FE
FE
FE
FE
00
00
00
00
00
FF
FF
FF
FF
FF
FF
FF
FF
0F
0F
0E
0E
1E
1C
FC
F8
F0
ENDCHAR
STARTCHAR 013D
ENCODING 317
SWIDTH 552 0
DWIDTH 43 0
BBX 35 57 6 0
BITMAP
FE01FE0000
FE01FE0000
FE01FE0000
FE01FE0000
FE01FE0000
FE01FE0000
FE01FE0000
FE01FE0000
FE000E0000
FE001E0000
FE001E0000
FE001E0000
FE001C0000
FE003C0000
FE01F80000
FE01F00000
FE01E00000
FE01000000
FE00000000
FE00000000
FE00000000
FE00000000
FE00000000
FE00000000
FE00000000
FE00000000
FE00000000
FE00000000
FE00000000
FE00000000
FE00000000
FE00000000
FE00000000
FE00000000
FE00000000
FE00000000
FE00000000
FE00000000
FE00000000
FE00000000
FE00000000
FE00000000
FE00000000
FE00000000
FE00000000
FE00000000
FE00000000
FE00000000
FE00000000
FE00000000
FE00000000
FFFFFFFFE0
FFFFFFFFE0
FFFFFFFFE0
FFFFFFFFE0
FFFFFFFFE0
FFFFFFFFE0
ENDCHAR
STARTCHAR 013E
ENCODING 318
SWIDTH 295 0
DWIDTH 23 0
BBX 19 57 5 0
BITMAP
FE1FE0
FE1FE0
FE1FE0
FE1FE0
FE1FE0
FE1FE0
FE1FE0
FE1FE0
FE01E0
FE01E0
FE01E0
FE01C0
FE03C0
FE03C0
FE1F80
FE1F00
FE1E00
FE0000
FE0000
FE0000
FE0000
FE0000
FE0000
FE0000
FE0000
FE0000
FE0000
FE0000
FE0000
FE0000
FE0000
FE0000
FE0000
FE0000
FE0000
FE0000
FE0000
FE0000
FE0000
FE0000
FE0000
FE0000
FE0000
FE0000
FE0000
FE0000
FE0000
FE0000
FE0000
FE0000
FE0000
FE0000
FE0000
FE0000
FE0000
FE0000
FE0000
ENDCHAR
STARTCHAR 013F
ENCODING 319
SWIDTH 552 0
DWIDTH 43 0
BBX 35 57 6 0
BITMAP
FE00000000
FE00000000
FE00000000
FE00000000
FE00000000
FE00000000
FE00000000
FE00000000
FE00000000
FE00000000
FE00000000
FE00000000
FE00000000
FE00000000
FE00000000
FE00000000
FE00000000
FE00000000
FE00000000
FE00000000
FE00000000
FE00000000
FE00000000
FE00000000
FE00000000
FE0007F000
FE0007F000
FE0007F000
FE0007F000
FE0007F000
FE0007F000
FE0007F000
FE0007F000
FE00000000
FE00000000
FE00000000
FE00000000
FE00000000
FE00000000
FE00000000
FE00000000
FE00000000
FE00000000
FE00000000
FE00000000
FE00000000
FE00000000
FE00000000
FE00000000
FE00000000
FE00000000
FFFFFFFFE0
FFFFFFFFE0
FFFFFFFFE0
FFFFFFFFE0
FFFFFFFFE0
FFFFFFFFE0
ENDCHAR
STARTCHAR 0140
ENCODING 320
SWIDTH 334 0
DWIDTH 26 0
BBX 19 57 6 0
BITMAP
FC0000
FC0000
FC0000
FC0000
FC0000
FC0000
FC0000
FC0000
FC0000
FC0000
FC0000
FC0000
FC0000
FC0000
FC0000
FC0000
FC0000
FC0000
FC0000
FC0000
FC0000
FC0000
FC0000
FC0000
FC0000
FC1FE0
FC1FE0
FC1FE0
FC1FE0
FC1FE0
FC1FE0
FC1FE0
FC1FE0
FC0000
FC0000
FC0000
FC0000
FC0000
FC0000
FC0000
FC0000
FC0000
FC0000
FC0000
FC0000
FC0000
FC0000
FC0000
FC0000
FC0000
FC0000
FC0000
FC0000
FC0000
FC0000
FC0000
FC0000
ENDCHAR
STARTCHAR 0141
ENCODING 321
SWIDTH 552 0
DWIDTH 43 0
BBX 43 57 0 0
BITMAP
03F800000000
03F800000000
03F800000000
03F800000000
03F800000000
03F800000000
03F800000000
03F800000000
03F800000000
03F800000000
03F800000000
03F800000000
03F800000000
03F800000000
03F800000000
03F800000000
03F800200000
03F800E00000
03F801E00000
03F803E00000
03F80FE00000
03F81FE00000
03F87FC00000
03F8FF000000
03F9FE000000
03FFFC000000
03FFF0000000
03FFE0000000
03FF80000000
03FF00000000
0FFE00000000
1FF800000000
3FF800000000
FFF800000000
FFF800000000
FFF800000000
F3F800000000
E3F800000000
C3F800000000
03F800000000
03F800000000
03F800000000
03F800000000
03F800000000
03F800000000
03F800000000
03F800000000
03F800000000
03F800000000
03F800000000
03F800000000
03FFFFFFFFE0
03FFFFFFFFE0
03FFFFFFFFE0
03FFFFFFFFE0
03FFFFFFFFE0
03FFFFFFFFE0
ENDCHAR
STARTCHAR 0142
ENCODING 322
SWIDTH 218 0
DWIDTH 17 0
BBX 16 57 0 0
BITMAP
07E0
07E0
07E0
07E0
07E0
07E0
07E0
07E0
07E0
07E0
07E0
07E0
07E0
07E0
07E0
07E0
07E0
07E0
07E0
07E0
07E0
07E1
07E7
07EF
07FF
07FF
07FE
07F8
0FF0
3FE0
7FE0
FFE0
FFE0
F7E0
C7E0
87E0
07E0
07E0
07E0
07E0
07E0
07E0
07E0
07E0
07E0
07E0
07E0
07E0
07E0
07E0
07E0
07E0
07E0
07E0
07E0
07E0
07E0
ENDCHAR
STARTCHAR 0143
ENCODING 323
SWIDTH 720 0
DWIDTH 56 0
BBX 44 73 6 0
BITMAP
000000FF8000
000001FE0000
000003FC0000
000003F80000
000007F00000
000007E00000
00000FC00000
00001F800000
00001F000000
00003E000000
00007C000000
000000000000
000000000000
000000000000
000000000000
000000000000
FF00000007F0
FF80000007F0
FF80000007F0
FFC0000007F0
FFE0000007F0
FFE0000007F0
FFF0000007F0
FFF8000007F0
FFF8000007F0
FFFC000007F0
FFFC000007F0
FFFE000007F0
FEFF000007F0
FEFF000007F0
FE7F800007F0
FE3FC00007F0
FE3FC00007F0
FE1FE00007F0
FE0FF00007F0
FE0FF00007F0
FE07F80007F0
FE03F80007F0
FE03FC0007F0
FE01FE0007F0
FE01FE0007F0
FE00FF0007F0
FE007F8007F0
FE007F8007F0
FE003FC007F0
FE001FE007F0
FE001FE007F0
FE000FF007F0
FE0007F007F0
FE0007F807F0
FE0003FC07F0
FE0003FC07F0
FE0001FE07F0
FE0000FF07F0
FE0000FF07F0
FE00007F87F0
FE00003FC7F0
FE00003FC7F0
FE00001FE7F0
FE00001FE7F0
FE00000FF7F0
FE000007FFF0
FE000007FFF0
FE000003FFF0
FE000001FFF0
FE000001FFF0
FE000000FFF0
FE0000007FF0
FE0000007FF0
FE0000003FF0
FE0000003FF0
FE0000001FF0
FE0000000FF0
ENDCHAR
STARTCHAR 0144
ENCODING 324
SWIDTH 552 0
DWIDTH 43 0
BBX 33 58 5 0
BITMAP
00001FE000
00003FC000
00007F8000
00007F0000
0000FE0000
0000FC0000
0001F80000
0003F00000
0003E00000
0007C00000
000F800000
000F000000
0000000000
0000000000
0000000000
0000000000
0001FF0000
FC07FFE000
FC1FFFF800
FC3FFFFC00
FC7FFFFE00
FCFFFFFE00
FDFC03FF00
FDF000FF00
FFE0007F80
FFC0007F80
FF80003F80
FF80003F80
FF00003F80
FF00003F80
FF00003F80
FE00003F80
FE00003F80
FE00003F80
FE00003F80
FE00003F80
FE00003F80
FE00003F80
FE00003F80
FE00003F80
FE00003F80
FE00003F80
FE00003F80
FE00003F80
FE00003F80
FE00003F80
FE00003F80
FE00003F80
FE00003F80
FE00003F80
FE00003F80
FE00003F80
FE00003F80
FE00003F80
FE00003F80
FE00003F80
FE00003F80
FE00003F80
ENDCHAR
STARTCHAR 0145
ENCODING 325
SWIDTH 720 0
DWIDTH 56 0
BBX 44 79 6 -23
BITMAP
FF00000007F0
FF80000007F0
FF80000007F0
FFC0000007F0
FFE0000007F0
FFE0000007F0
FFF0000007F0
FFF8000007F0
FFF8000007F0
FFFC000007F0
FFFC000007F0
FFFE000007F0
FEFF000007F0
FEFF000007F0
FE7F800007F0
FE3FC00007F0
FE3FC00007F0
FE1FE00007F0
FE0FF00007F0
FE0FF00007F0
FE07F80007F0
FE03F80007F0
FE03FC0007F0
FE01FE0007F0
FE01FE0007F0
FE00FF0007F0
FE007F8007F0
FE007F8007F0
FE003FC007F0
FE001FE007F0
FE001FE007F0
FE000FF007F0
FE0007F007F0
FE0007F807F0
FE0003FC07F0
FE0003FC07F0
FE0001FE07F0
FE0000FF07F0
FE0000FF07F0
FE00007F87F0
FE00003FC7F0
FE00003FC7F0
FE00001FE7F0
FE00001FE7F0
FE00000FF7F0
FE000007FFF0
FE000007FFF0
FE000003FFF0
FE000001FFF0
FE000001FFF0
FE000000FFF0
FE0000007FF0
FE0000007FF0
FE0000003FF0
FE0000003FF0
FE0000001FF0
FE0000000FF0
000000000000
000000000000
000000000000
000000000000
000000000000
00007F800000
00007F800000
00007F800000
00007F800000
00007F800000
00007F800000
00007F800000
00007F800000
000007800000
000007800000
000007800000
000007800000
000007000000
00000F000000
00007E000000
00007C000000
000078000000
ENDCHAR
STARTCHAR 0146
ENCODING 326
SWIDTH 552 0
DWIDTH 43 0
BBX 33 64 5 -23
BITMAP
0001FF0000
FC07FFE000
FC1FFFF800
FC3FFFFC00
FC7FFFFE00
FCFFFFFE00
FDFC03FF00
FDF000FF00
FFE0007F80
FFC0007F80
FF80003F80
FF80003F80
FF00003F80
FF00003F80
FF00003F80
FE00003F80
FE00003F80
FE00003F80
FE00003F80
FE00003F80
FE00003F80
FE00003F80
FE00003F80
FE00003F80
FE00003F80
FE00003F80
FE00003F80
FE00003F80
FE00003F80
FE00003F80
FE00003F80
FE00003F80
FE00003F80
FE00003F80
FE00003F80
FE00003F80
FE00003F80
FE00003F80
FE00003F80
FE00003F80
FE00003F80
FE00003F80
0000000000
0000000000
0000000000
0000000000
0000000000
0007F80000
0007F80000
0007F80000
0007F80000
0007F80000
0007F80000
0007F80000
0007F80000
0000780000
0000780000
0000700000
0000700000
0000F00000
0000E00000
0007E00000
0007C00000
0007800000
ENDCHAR
STARTCHAR 0147
ENCODING 327
SWIDTH 720 0
DWIDTH 56 0
BBX 44 73 6 0
BITMAP
001F801F8000
000F801F0000
0007C03E0000
0007E07E0000
0003F0FC0000
0001F9F80000
0001FDF80000
0000FFF00000
00007FF00000
00007FE00000
00003FC00000
000000000000
000000000000
000000000000
000000000000
000000000000
FF00000007F0
FF80000007F0
FF80000007F0
FFC0000007F0
FFE0000007F0
FFE0000007F0
FFF0000007F0
FFF8000007F0
FFF8000007F0
FFFC000007F0
FFFC000007F0
FFFE000007F0
FEFF000007F0
FEFF000007F0
FE7F800007F0
FE3FC00007F0
FE3FC00007F0
FE1FE00007F0
FE0FF00007F0
FE0FF00007F0
FE07F80007F0
FE03F80007F0
FE03FC0007F0
FE01FE0007F0
FE01FE0007F0
FE00FF0007F0
FE007F8007F0
FE007F8007F0
FE003FC007F0
FE001FE007F0
FE001FE007F0
FE000FF007F0
FE0007F007F0
FE0007F807F0
FE0003FC07F0
FE0003FC07F0
FE0001FE07F0
FE0000FF07F0
FE0000FF07F0
FE00007F87F0
FE00003FC7F0
FE00003FC7F0
FE00001FE7F0
FE00001FE7F0
FE00000FF7F0
FE000007FFF0
FE000007FFF0
FE000003FFF0
FE000001FFF0
FE000001FFF0
FE000000FFF0
FE0000007FF0
FE0000007FF0
FE0000003FF0
FE0000003FF0
FE0000001FF0
FE0000000FF0
ENDCHAR
STARTCHAR 0148
ENCODING 328
SWIDTH 552 0
DWIDTH 43 0
BBX 33 58 5 0
BITMAP
03E003F000
03F003E000
01F007C000
00F80FC000
00FC1F8000
007E3F0000
003F3F0000
003FFE0000
001FFC0000
000FFC0000
000FF80000
0007F80000
0000000000
0000000000
0000000000
0000000000
0001FF0000
FC07FFE000
FC1FFFF800
FC3FFFFC00
FC7FFFFE00
FCFFFFFE00
FDFC03FF00
FDF000FF00
FFE0007F80
FFC0007F80
FF80003F80
FF80003F80
FF00003F80
FF00003F80
FF00003F80
FE00003F80
FE00003F80
FE00003F80
FE00003F80
FE00003F80
FE00003F80
FE00003F80
FE00003F80
FE00003F80
FE00003F80
FE00003F80
FE00003F80
FE00003F80
FE00003F80
FE00003F80
FE00003F80
FE00003F80
FE00003F80
FE00003F80
FE00003F80
FE00003F80
FE00003F80
FE00003F80
FE00003F80
FE00003F80
FE00003F80
FE00003F80
ENDCHAR
STARTCHAR 0149
ENCODING 329
SWIDTH 604 0
DWIDTH 47 0
BBX 41 60 1 0
BITMAP
FF0000000000
FF0000000000
FF0000000000
FF0000000000
FF0000000000
FF0000000000
FF0000000000
FF0000000000
0F0000000000
0F0000000000
0E0000000000
0E0000000000
1E0000000000
1E0000000000
7C0000000000
F80000000000
F00000000000
E00000000000
000001FF0000
00FC0FFFE000
00FC1FFFF800
00FC3FFFFC00
00FC7FFFFE00
00FCFFFFFE00
00FDFC03FF00
00FFF001FF00
00FFE000FF00
00FFC0007F80
00FF80003F80
00FF00003F80
00FF00003F80
00FF00003F80
00FE00003F80
00FE00003F80
00FE00003F80
00FE00003F80
00FE00003F80
00FE00003F80
00FE00003F80
00FE00003F80
00FE00003F80
00FE00003F80
00FE00003F80
00FE00003F80
00FE00003F80
00FE00003F80
00FE00003F80
00FE00003F80
00FE00003F80
00FE00003F80
00FE00003F80
00FE00003F80
00FE00003F80
00FE00003F80
00FE00003F80
00FE00003F80
00FE00003F80
00FE00003F80
00FE00003F80
00FE00003F80
ENDCHAR
STARTCHAR 014A
ENCODING 330
SWIDTH 720 0
DWIDTH 56 0
BBX 42 81 7 -23
BITMAP
000007FC0000
00007FFF8000
FE01FFFFE000
FE03FFFFF800
FE07FFFFFC00
FE1FFFFFFE00
FE3FFCFFFF00
FE3F8007FF00
FE7E0001FF80
FEFC0000FF80
FFF800007FC0
FFF000003FC0
FFE000003FC0
FFC000003FC0
FFC000001FC0
FF8000001FC0
FF8000001FC0
FF8000001FC0
FF0000001FC0
FF0000001FC0
FF0000001FC0
FF0000001FC0
FF0000001FC0
FF0000001FC0
FF0000001FC0
FF0000001FC0
FF0000001FC0
FF0000001FC0
FF0000001FC0
FF0000001FC0
FF0000001FC0
FF0000001FC0
FF0000001FC0
FF0000001FC0
FF0000001FC0
FF0000001FC0
FF0000001FC0
FF0000001FC0
FF0000001FC0
FF0000001FC0
FF0000001FC0
FF0000001FC0
FF0000001FC0
FF0000001FC0
FF0000001FC0
FF0000001FC0
FF0000001FC0
FF0000001FC0
FF0000001FC0
FF0000001FC0
FF0000001FC0
FF0000001FC0
FF0000001FC0
FF0000001FC0
FF0000001FC0
FF0000001FC0
FF0000001FC0
FF0000001FC0
000000001FC0
000000001FC0
000000001FC0
000000001FC0
000000001FC0
000000001FC0
000000001FC0
000000001FC0
000000001FC0
000000001FC0
000000001FC0
000000001FC0
000000001FC0
000000001FC0
000000003FC0
000000007FC0
0000007FFF80
0000007FFF80
0000007FFF00
0000007FFE00
0000007FFC00
0000007FF800
0000007FC000
ENDCHAR
STARTCHAR 014B
ENCODING 331
SWIDTH 552 0
DWIDTH 43 0
BBX 32 59 6 -17
BITMAP
0001FE00
FC0FFFC0
FC1FFFF0
FC3FFFF8
FCFFFFFC
FCFFFFFC
FDF807FE
FFE001FE
FFC000FF
FF8000FF
FF00007F
FF00007F
FE00007F
FE00007F
FE00007F
FC00007F
FC00007F
FC00007F
FC00007F
FC00007F
FC00007F
FC00007F
FC00007F
FC00007F
FC00007F
FC00007F
FC00007F
FC00007F
FC00007F
FC00007F
FC00007F
FC00007F
FC00007F
FC00007F
FC00007F
FC00007F
FC00007F
FC00007F
FC00007F
FC00007F
FC00007F
FC00007F
0000007F
0000007F
0000007F
0000007F
0000007F
0000007F
0000007F
0000007F
0000007F
0000007F
000000FF
00001FFE
00001FFE
00001FFC
00001FF8
00001FF0
00001FC0
ENDCHAR
STARTCHAR 014C
ENCODING 332
SWIDTH 784 0
DWIDTH 61 0
BBX 55 72 3 -2
BITMAP
00007FFFFC0000
00007FFFFC0000
00007FFFFC0000
00007FFFFC0000
00007FFFFC0000
00000000000000
00000000000000
00000000000000
00000000000000
00000000000000
00000000000000
00000000000000
000003FF800000
00003FFFF80000
0000FFFFFE0000
0003FFFFFF8000
000FFFFFFFE000
001FFFFFFFF000
007FFFCFFFF800
00FFF0003FFE00
01FFC0000FFE00
01FF000003FF00
03FE000001FF80
07FC0000007FC0
0FF80000003FC0
0FF00000003FE0
1FE00000001FE0
1FE00000000FF0
3FC00000000FF0
3FC000000007F8
3F8000000007F8
7F8000000003F8
7F8000000003FC
7F0000000003FC
7F0000000001FC
7F0000000001FC
FF0000000001FC
FF0000000001FC
FE0000000001FE
FE0000000001FE
FE0000000001FE
FE0000000001FE
FE0000000001FE
FE0000000001FE
FE0000000001FE
FE0000000001FE
FF0000000001FE
FF0000000001FC
FF0000000001FC
7F0000000001FC
7F0000000003FC
7F8000000003FC
7F8000000003F8
3F8000000007F8
3FC000000007F8
3FC00000000FF0
1FE00000000FF0
1FF00000001FE0
0FF00000001FE0
0FF80000003FC0
07FC0000007FC0
03FE000000FF80
03FF800003FF00
01FFC00007FE00
00FFF8003FFE00
007FFFC7FFF800
003FFFFFFFF000
000FFFFFFFE000
0007FFFFFF8000
0001FFFFFE0000
00003FFFF80000
000003FF800000
ENDCHAR
STARTCHAR 014D
ENCODING 333
SWIDTH 552 0
DWIDTH 43 0
BBX 37 56 3 -2
BITMAP
00FFFFF800
00FFFFF800
00FFFFF800
00FFFFF800
00FFFFF800
0000000000
0000000000
0000000000
0000000000
0000000000
0000000000
0000000000
0003FE0000
003FFFC000
007FFFF000
01FFFFFC00
03FFFFFE00
07FFFFFF00
0FFE03FF00
1FF800FF80
1FE0007FC0
3FC0003FC0
3FC0001FE0
3F80000FE0
7F00000FE0
7F00000FF0
7F000007F0
FE000007F0
FE000007F0
FE000003F0
FE000003F8
FE000003F8
FE000003F8
FE000003F8
FE000003F8
FE000003F8
FE000003F8
FE000003F8
FE000003F0
FE000007F0
FE000007F0
7F000007F0
7F000007F0
7F00000FE0
7F80000FE0
3FC0001FE0
3FC0003FC0
1FE0007FC0
1FF800FF80
0FFE03FF00
07FFFFFF00
03FFFFFE00
01FFFFF800
00FFFFF000
003FFFC000
0003FE0000
ENDCHAR
STARTCHAR 014E
ENCODING 334
SWIDTH 784 0
DWIDTH 61 0
BBX 55 74 3 -2
BITMAP
0000F0003E0000
0000F8003E0000
0000F8007C0000
0000FC00FC0000
0000FFCFFC0000
00007FFFF80000
00003FFFF00000
00001FFFE00000
00000FFFC00000
000001FE000000
00000000000000
00000000000000
00000000000000
00000000000000
000003FF800000
00003FFFF80000
0000FFFFFE0000
0003FFFFFF8000
000FFFFFFFE000
001FFFFFFFF000
007FFFCFFFF800
00FFF0003FFE00
01FFC0000FFE00
01FF000003FF00
03FE000001FF80
07FC0000007FC0
0FF80000003FC0
0FF00000003FE0
1FE00000001FE0
1FE00000000FF0
3FC00000000FF0
3FC000000007F8
3F8000000007F8
7F8000000003F8
7F8000000003FC
7F0000000003FC
7F0000000001FC
7F0000000001FC
FF0000000001FC
FF0000000001FC
FE0000000001FE
FE0000000001FE
FE0000000001FE
FE0000000001FE
FE0000000001FE
FE0000000001FE
FE0000000001FE
FE0000000001FE
FF0000000001FE
FF0000000001FC
FF0000000001FC
7F0000000001FC
7F0000000003FC
7F8000000003FC
7F8000000003F8
3F8000000007F8
3FC000000007F8
3FC00000000FF0
1FE00000000FF0
1FF00000001FE0
0FF00000001FE0
0FF80000003FC0
07FC0000007FC0
03FE000000FF80
03FF800003FF00
01FFC00007FE00
00FFF8003FFE00
007FFFC7FFF800
003FFFFFFFF000
000FFFFFFFE000
0007FFFFFF8000
0001FFFFFE0000
00003FFFF80000
000003FF800000
ENDCHAR
STARTCHAR 014F
ENCODING 335
SWIDTH 552 0
DWIDTH 43 0
BBX 37 59 3 -2
BITMAP
01E0007C00
01E0007C00
01F000F800
01F801F800
01FE03F800
00FFFFF000
007FFFF000
007FFFE000
001FFF8000
0007FE0000
0000000000
0000000000
0000000000
0000000000
0000000000
0003FE0000
003FFFC000
007FFFF000
01FFFFFC00
03FFFFFE00
07FFFFFF00
0FFE03FF00
1FF800FF80
1FE0007FC0
3FC0003FC0
3FC0001FE0
3F80000FE0
7F00000FE0
7F00000FF0
7F000007F0
FE000007F0
FE000007F0
FE000003F0
FE000003F8
FE000003F8
FE000003F8
FE000003F8
FE000003F8
FE000003F8
FE000003F8
FE000003F8
FE000003F0
FE000007F0
FE000007F0
7F000007F0
7F000007F0
7F00000FE0
7F80000FE0
3FC0001FE0
3FC0003FC0
1FE0007FC0
1FF800FF80
0FFE03FF00
07FFFFFF00
03FFFFFE00
01FFFFF800
00FFFFF000
003FFFC000
0003FE0000
ENDCHAR
STARTCHAR 0150
ENCODING 336
SWIDTH 784 0
DWIDTH 61 0
BBX 55 75 3 -2
BITMAP
0000007FC3FE00
000000FF03FC00
000001FE07F800
000001FC0FF000
000003F80FE000
000003F01FC000
000007E03F8000
00000FC03F0000
00000F807E0000
00001F007C0000
00003E00F80000
00000000000000
00000000000000
00000000000000
00000000000000
000003FF800000
00003FFFF80000
0000FFFFFE0000
0003FFFFFF8000
000FFFFFFFE000
001FFFFFFFF000
007FFFCFFFF800
00FFF0003FFE00
01FFC0000FFE00
01FF000003FF00
03FE000001FF80
07FC0000007FC0
0FF80000003FC0
0FF00000003FE0
1FE00000001FE0
1FE00000000FF0
3FC00000000FF0
3FC000000007F8
3F8000000007F8
7F8000000003F8
7F8000000003FC
7F0000000003FC
7F0000000001FC
7F0000000001FC
FF0000000001FC
FF0000000001FC
FE0000000001FE
FE0000000001FE
FE0000000001FE
FE0000000001FE
FE0000000001FE
FE0000000001FE
FE0000000001FE
FE0000000001FE
FF0000000001FE
FF0000000001FC
FF0000000001FC
7F0000000001FC
7F0000000003FC
7F8000000003FC
7F8000000003F8
3F8000000007F8
3FC000000007F8
3FC00000000FF0
1FE00000000FF0
1FF00000001FE0
0FF00000001FE0
0FF80000003FC0
07FC0000007FC0
03FE000000FF80
03FF800003FF00
01FFC00007FE00
00FFF8003FFE00
007FFFC7FFF800
003FFFFFFFF000
000FFFFFFFE000
0007FFFFFF8000
0001FFFFFE0000
00003FFFF80000
000003FF800000
ENDCHAR
STARTCHAR 0151
ENCODING 337
SWIDTH 552 0
DWIDTH 43 0
BBX 37 60 3 -2
BITMAP
0001FF07F8
0001FE0FF0
0003FC0FE0
0007F81FE0
0007F03FC0
000FE03F80
000FC07F00
001F80FE00
003F00FC00
003E01F800
007C01F000
00F803E000
0000000000
0000000000
0000000000
0000000000
0003FE0000
003FFFC000
007FFFF000
01FFFFFC00
03FFFFFE00
07FFFFFF00
0FFE03FF00
1FF800FF80
1FE0007FC0
3FC0003FC0
3FC0001FE0
3F80000FE0
7F00000FE0
7F00000FF0
7F000007F0
FE000007F0
FE000007F0
FE000003F0
FE000003F8
FE000003F8
FE000003F8
FE000003F8
FE000003F8
FE000003F8
FE000003F8
FE000003F8
FE000003F0
FE000007F0
FE000007F0
7F000007F0
7F000007F0
7F00000FE0
7F80000FE0
3FC0001FE0
3FC0003FC0
1FE0007FC0
1FF800FF80
0FFE03FF00
07FFFFFF00
03FFFFFE00
01FFFFF800
00FFFFF000
003FFFC000
0003FE0000
ENDCHAR
STARTCHAR 0152
ENCODING 338
SWIDTH 1002 0
DWIDTH 78 0
BBX 72 60 3 -2
BITMAP
00001FF80000000000
0000FFFF03FFFFFFFE
0007FFFF83FFFFFFFE
000FFFFFE3FFFFFFFE
003FFFFFF3FFFFFFFE
007FFFFFFBFFFFFFFE
00FFFE7FFFFFFFFFFE
01FFC003FFF8000000
03FF0000FFF8000000
03FC00007FF8000000
07F800003FF8000000
0FF000001FF8000000
0FF000000FF8000000
1FE0000007F8000000
1FC0000007F8000000
1FC0000003F8000000
3FC0000003F8000000
3F80000003F8000000
3F80000003F8000000
7F80000003F8000000
7F00000003F8000000
7F00000003F8000000
7F00000003F8000000
7F00000003F8000000
7F00000003F8000000
7F00000003F8000000
FF00000003FFFFFFFE
FF00000003FFFFFFFE
FF00000003FFFFFFFE
FF00000003FFFFFFFE
FF00000003FFFFFFFE
FF00000003FFFFFFFE
FF00000003F8000000
FF00000003F8000000
7F00000003F8000000
7F00000003F8000000
7F00000003F8000000
7F00000003F8000000
7F00000003F8000000
7F00000003F8000000
7F80000003F8000000
3F80000003F8000000
3F80000003F8000000
3FC0000003F8000000
3FC0000003F8000000
1FC0000007F8000000
1FE0000007F8000000
0FF000000FF8000000
0FF000001FF8000000
07F800003FF8000000
07FC00007FF8000000
03FF0000FFF8000000
01FFC003FFFFFFFFFF
00FFFC3FFBFFFFFFFF
007FFFFFF3FFFFFFFF
003FFFFFE3FFFFFFFF
001FFFFFC3FFFFFFFF
0007FFFF83FFFFFFFF
0001FFFE0000000000
00003FF00000000000
ENDCHAR
STARTCHAR 0153
ENCODING 339
SWIDTH 938 0
DWIDTH 73 0
BBX 67 44 3 -2
BITMAP
0003FE000007F80000
001FFFC0003FFF0000
007FFFF000FFFFC000
01FFFFFC03FFFFF000
03FFFFFE07FFFFF800
07FFFFFF0FFFFFFC00
0FFE03FF9FF80FFE00
0FF800FFBFE003FF00
1FF0007FFFC000FF00
1FE0003FFF80007F80
3FC0001FFF00003F80
3F80000FFE00003FC0
7F80000FFE00001FC0
7F000007FC00001FC0
7F000007FC00001FC0
7F000007FC00000FC0
7E000003F800000FE0
FE000003F800000FE0
FE000003F800000FE0
FE000003FFFFFFFFE0
FE000003FFFFFFFFE0
FE000003FFFFFFFFE0
FE000003FFFFFFFFE0
FE000003FFFFFFFFE0
FE000003F800000000
FE000003F800000000
FE000003F800000000
FE000003F800000000
7F000003F800000000
7F000007FC00000000
7F000007FC00001FC0
7F80000FFC00001FC0
3F80000FFE00003F80
3FC0001FFF00003F80
1FE0001FFF80007F80
1FF0003FFFC000FF00
0FF800FFBFE001FF00
0FFE03FF9FF80FFE00
07FFFFFF1FFFFFFC00
03FFFFFE0FFFFFF800
01FFFFFC03FFFFF000
007FFFF001FFFFC000
001FFFC0007FFF0000
0003FE00000FF80000
ENDCHAR
ENDFONT
